G75*
%MOIN*%
%OFA0B0*%
%FSLAX25Y25*%
%IPPOS*%
%LPD*%
%AMOC8*
5,1,8,0,0,1.08239X$1,22.5*
%
%ADD10C,0.07124*%
%ADD11R,0.05550X0.05550*%
%ADD12C,0.05550*%
%ADD13C,0.06200*%
%ADD14C,0.01600*%
D10*
X0021000Y0021000D03*
X0041000Y0021000D03*
X0071000Y0021000D03*
X0091000Y0021000D03*
X0131000Y0031000D03*
X0131000Y0051000D03*
X0131000Y0081000D03*
X0131000Y0101000D03*
X0131000Y0126000D03*
X0131000Y0146000D03*
X0056000Y0181000D03*
X0036000Y0181000D03*
D11*
X0096000Y0186000D03*
X0138500Y0008500D03*
D12*
X0128500Y0008500D03*
X0118500Y0008500D03*
X0096000Y0126000D03*
X0096000Y0146000D03*
X0096000Y0166000D03*
D13*
X0073500Y0163500D03*
X0073500Y0153500D03*
X0073500Y0143500D03*
X0073500Y0133500D03*
X0073500Y0123500D03*
X0073500Y0113500D03*
X0073500Y0103500D03*
X0073500Y0093500D03*
X0073500Y0083500D03*
X0073500Y0073500D03*
X0073500Y0063500D03*
X0013500Y0063500D03*
X0013500Y0073500D03*
X0013500Y0083500D03*
X0013500Y0093500D03*
X0013500Y0103500D03*
X0013500Y0113500D03*
X0013500Y0123500D03*
X0013500Y0133500D03*
X0013500Y0143500D03*
X0013500Y0153500D03*
X0013500Y0163500D03*
X0013500Y0173500D03*
X0013500Y0183500D03*
X0013500Y0193500D03*
X0073500Y0193500D03*
X0073500Y0183500D03*
X0073500Y0173500D03*
D14*
X0131000Y0101000D02*
X0131000Y0081000D01*
X0101000Y0081000D01*
X0041000Y0021000D01*
X0021000Y0021000D01*
X0071000Y0021000D02*
X0091000Y0021000D01*
X0103500Y0008500D01*
X0118500Y0008500D01*
X0138500Y0023500D02*
X0131000Y0031000D01*
X0131000Y0051000D01*
X0138500Y0023500D02*
X0138500Y0008500D01*
M02*
