G75*
%MOIN*%
%OFA0B0*%
%FSLAX25Y25*%
%IPPOS*%
%LPD*%
%AMOC8*
5,1,8,0,0,1.08239X$1,22.5*
%
%ADD10C,0.00600*%
%ADD11C,0.00500*%
%ADD12C,0.00300*%
%ADD13C,0.00400*%
%ADD14C,0.00200*%
%ADD15C,0.00800*%
D10*
X0033600Y0042500D02*
X0038400Y0042500D01*
X0038400Y0049500D02*
X0033600Y0049500D01*
X0018300Y0047600D02*
X0013700Y0047600D01*
X0013700Y0054400D02*
X0018300Y0054400D01*
X0052600Y0049900D02*
X0052600Y0045700D01*
X0056100Y0045700D01*
X0060900Y0045700D02*
X0064400Y0045700D01*
X0064400Y0047300D01*
X0064400Y0049900D01*
X0063500Y0049299D02*
X0063458Y0049246D01*
X0063419Y0049190D01*
X0063383Y0049132D01*
X0063351Y0049072D01*
X0063322Y0049011D01*
X0063296Y0048948D01*
X0063274Y0048883D01*
X0063255Y0048818D01*
X0063240Y0048751D01*
X0063229Y0048684D01*
X0063222Y0048616D01*
X0063218Y0048548D01*
X0063219Y0048480D01*
X0063223Y0048412D01*
X0063231Y0048344D01*
X0063242Y0048277D01*
X0063258Y0048211D01*
X0063277Y0048145D01*
X0063299Y0048081D01*
X0063325Y0048018D01*
X0063355Y0047957D01*
X0063388Y0047897D01*
X0063425Y0047840D01*
X0063464Y0047784D01*
X0063507Y0047731D01*
X0063552Y0047680D01*
X0063600Y0047632D01*
X0063651Y0047587D01*
X0063704Y0047544D01*
X0063760Y0047505D01*
X0063817Y0047469D01*
X0063877Y0047436D01*
X0063938Y0047406D01*
X0064001Y0047380D01*
X0064066Y0047357D01*
X0064131Y0047338D01*
X0064197Y0047323D01*
X0064265Y0047311D01*
X0064332Y0047304D01*
X0064400Y0047300D01*
X0059900Y0051300D02*
X0057100Y0051300D01*
X0078600Y0054500D02*
X0083400Y0054500D01*
X0083400Y0047500D02*
X0078600Y0047500D01*
X0083600Y0075700D02*
X0083600Y0081300D01*
X0093400Y0081300D02*
X0093400Y0075700D01*
X0100000Y0078600D02*
X0100000Y0083400D01*
X0098300Y0092600D02*
X0093700Y0092600D01*
X0093700Y0099400D02*
X0098300Y0099400D01*
X0098400Y0105000D02*
X0093600Y0105000D01*
X0093600Y0112000D02*
X0098400Y0112000D01*
X0107000Y0083400D02*
X0107000Y0078600D01*
X0105900Y0067000D02*
X0101100Y0067000D01*
X0101100Y0060000D02*
X0105900Y0060000D01*
X0102500Y0028400D02*
X0102500Y0023600D01*
X0109500Y0023600D02*
X0109500Y0028400D01*
X0051900Y0143200D02*
X0048400Y0143200D01*
X0051900Y0143200D02*
X0051900Y0144800D01*
X0051900Y0147400D01*
X0051000Y0146799D02*
X0050958Y0146746D01*
X0050919Y0146690D01*
X0050883Y0146632D01*
X0050851Y0146572D01*
X0050822Y0146511D01*
X0050796Y0146448D01*
X0050774Y0146383D01*
X0050755Y0146318D01*
X0050740Y0146251D01*
X0050729Y0146184D01*
X0050722Y0146116D01*
X0050718Y0146048D01*
X0050719Y0145980D01*
X0050723Y0145912D01*
X0050731Y0145844D01*
X0050742Y0145777D01*
X0050758Y0145711D01*
X0050777Y0145645D01*
X0050799Y0145581D01*
X0050825Y0145518D01*
X0050855Y0145457D01*
X0050888Y0145397D01*
X0050925Y0145340D01*
X0050964Y0145284D01*
X0051007Y0145231D01*
X0051052Y0145180D01*
X0051100Y0145132D01*
X0051151Y0145087D01*
X0051204Y0145044D01*
X0051260Y0145005D01*
X0051317Y0144969D01*
X0051377Y0144936D01*
X0051438Y0144906D01*
X0051501Y0144880D01*
X0051566Y0144857D01*
X0051631Y0144838D01*
X0051697Y0144823D01*
X0051765Y0144811D01*
X0051832Y0144804D01*
X0051900Y0144800D01*
X0047400Y0148800D02*
X0044600Y0148800D01*
X0040100Y0147400D02*
X0040100Y0143200D01*
X0043600Y0143200D01*
X0033070Y0159503D02*
X0028800Y0159503D01*
X0061300Y0159503D02*
X0065570Y0159503D01*
X0063435Y0161638D02*
X0063435Y0157368D01*
X0126200Y0162600D02*
X0130800Y0162600D01*
X0130800Y0169400D02*
X0126200Y0169400D01*
D11*
X0031000Y0003500D02*
X0011000Y0003500D01*
X0011000Y0038500D01*
X0031000Y0038500D01*
X0031000Y0003500D01*
X0051000Y0003500D01*
X0051000Y0038500D01*
X0031000Y0038500D01*
X0061000Y0038500D02*
X0061000Y0003500D01*
X0081000Y0003500D01*
X0081000Y0038500D01*
X0061000Y0038500D01*
X0081000Y0038500D02*
X0101000Y0038500D01*
X0101000Y0003500D01*
X0081000Y0003500D01*
X0108500Y0003500D02*
X0148500Y0003500D01*
X0148500Y0013500D01*
X0108500Y0013500D01*
X0108500Y0003500D01*
X0113500Y0021000D02*
X0148500Y0021000D01*
X0148500Y0041000D01*
X0113500Y0041000D01*
X0113500Y0021000D01*
X0113500Y0041000D02*
X0113500Y0061000D01*
X0148500Y0061000D01*
X0148500Y0041000D01*
X0148500Y0071000D02*
X0148500Y0091000D01*
X0113500Y0091000D01*
X0113500Y0071000D01*
X0148500Y0071000D01*
X0148500Y0091000D02*
X0148500Y0111000D01*
X0113500Y0111000D01*
X0113500Y0091000D01*
X0113500Y0116000D02*
X0113500Y0136000D01*
X0148500Y0136000D01*
X0148500Y0156000D01*
X0113500Y0156000D01*
X0113500Y0136000D01*
X0113500Y0116000D02*
X0148500Y0116000D01*
X0148500Y0136000D01*
X0107000Y0117000D02*
X0107000Y0195000D01*
X0085000Y0195000D01*
X0085000Y0117000D01*
X0107000Y0117000D01*
X0066000Y0163500D02*
X0066000Y0198500D01*
X0046000Y0198500D01*
X0046000Y0163500D01*
X0066000Y0163500D01*
X0046000Y0163500D02*
X0026000Y0163500D01*
X0026000Y0198500D01*
X0046000Y0198500D01*
D12*
X0025850Y0190100D02*
X0025850Y0188866D01*
X0025233Y0188249D01*
X0024616Y0188249D01*
X0023998Y0188866D01*
X0023998Y0190100D01*
X0024616Y0190718D01*
X0025233Y0190718D01*
X0025850Y0190100D01*
X0023998Y0190100D02*
X0023381Y0190718D01*
X0022764Y0190718D01*
X0022147Y0190100D01*
X0022147Y0188866D01*
X0022764Y0188249D01*
X0023381Y0188249D01*
X0023998Y0188866D01*
X0022764Y0187034D02*
X0022147Y0186417D01*
X0022147Y0185183D01*
X0022764Y0184566D01*
X0025233Y0184566D01*
X0022764Y0187034D01*
X0025233Y0187034D01*
X0025850Y0186417D01*
X0025850Y0185183D01*
X0025233Y0184566D01*
X0025233Y0183351D02*
X0022764Y0183351D01*
X0025233Y0180883D01*
X0025850Y0181500D01*
X0025850Y0182734D01*
X0025233Y0183351D01*
X0025233Y0180883D02*
X0022764Y0180883D01*
X0022147Y0181500D01*
X0022147Y0182734D01*
X0022764Y0183351D01*
X0022147Y0179668D02*
X0022764Y0178434D01*
X0023998Y0177199D01*
X0023998Y0179051D01*
X0024616Y0179668D01*
X0025233Y0179668D01*
X0025850Y0179051D01*
X0025850Y0177817D01*
X0025233Y0177199D01*
X0023998Y0177199D01*
X0023381Y0175985D02*
X0023998Y0175368D01*
X0023998Y0173516D01*
X0024616Y0172302D02*
X0023998Y0171685D01*
X0023998Y0170450D01*
X0023381Y0169833D01*
X0022764Y0169833D01*
X0022147Y0170450D01*
X0022147Y0171685D01*
X0022764Y0172302D01*
X0022147Y0173516D02*
X0022147Y0175368D01*
X0022764Y0175985D01*
X0023381Y0175985D01*
X0023998Y0175368D02*
X0024616Y0175985D01*
X0025233Y0175985D01*
X0025850Y0175368D01*
X0025850Y0173516D01*
X0022147Y0173516D01*
X0024616Y0172302D02*
X0025233Y0172302D01*
X0025850Y0171685D01*
X0025850Y0170450D01*
X0025233Y0169833D01*
X0025233Y0168619D02*
X0022147Y0168619D01*
X0022147Y0166150D02*
X0025233Y0166150D01*
X0025850Y0166767D01*
X0025850Y0168002D01*
X0025233Y0168619D01*
X0041150Y0159052D02*
X0041150Y0156634D01*
X0041634Y0156150D01*
X0042601Y0156150D01*
X0043085Y0156634D01*
X0043085Y0159052D01*
X0044097Y0158085D02*
X0045064Y0159052D01*
X0045064Y0156150D01*
X0044097Y0156150D02*
X0046031Y0156150D01*
X0046031Y0136552D02*
X0044097Y0136552D01*
X0044097Y0133650D01*
X0046031Y0133650D01*
X0045064Y0135101D02*
X0044097Y0135101D01*
X0043085Y0136552D02*
X0041150Y0136552D01*
X0041150Y0133650D01*
X0041150Y0135101D02*
X0042117Y0135101D01*
X0047043Y0136552D02*
X0048978Y0136552D01*
X0048011Y0136552D02*
X0048011Y0133650D01*
X0053650Y0061552D02*
X0053650Y0059134D01*
X0054134Y0058650D01*
X0055101Y0058650D01*
X0055585Y0059134D01*
X0055585Y0061552D01*
X0056597Y0061069D02*
X0057080Y0061552D01*
X0058048Y0061552D01*
X0058531Y0061069D01*
X0058531Y0060585D01*
X0056597Y0058650D01*
X0058531Y0058650D01*
X0058531Y0039052D02*
X0057564Y0039052D01*
X0058048Y0039052D02*
X0058048Y0036634D01*
X0057564Y0036150D01*
X0057080Y0036150D01*
X0056597Y0036634D01*
X0055585Y0036634D02*
X0055101Y0036150D01*
X0053650Y0036150D01*
X0053650Y0039052D01*
X0055101Y0039052D01*
X0055585Y0038569D01*
X0055585Y0038085D01*
X0055101Y0037601D01*
X0053650Y0037601D01*
X0055101Y0037601D02*
X0055585Y0037117D01*
X0055585Y0036634D01*
X0054850Y0034936D02*
X0054850Y0032467D01*
X0054850Y0033701D02*
X0051147Y0033701D01*
X0052381Y0032467D01*
X0051764Y0031252D02*
X0051147Y0030635D01*
X0051147Y0029401D01*
X0051764Y0028784D01*
X0052381Y0028784D01*
X0052998Y0029401D01*
X0052998Y0030635D01*
X0053616Y0031252D01*
X0054233Y0031252D01*
X0054850Y0030635D01*
X0054850Y0029401D01*
X0054233Y0028784D01*
X0054850Y0027569D02*
X0054850Y0025101D01*
X0052381Y0027569D01*
X0051764Y0027569D01*
X0051147Y0026952D01*
X0051147Y0025718D01*
X0051764Y0025101D01*
X0051764Y0023886D02*
X0051147Y0023269D01*
X0051147Y0022035D01*
X0051764Y0021417D01*
X0054233Y0021417D01*
X0054850Y0022035D01*
X0054850Y0023269D01*
X0054233Y0023886D01*
X0057764Y0019668D02*
X0057147Y0019051D01*
X0057147Y0017817D01*
X0057764Y0017199D01*
X0057764Y0015985D02*
X0057147Y0015368D01*
X0057147Y0014133D01*
X0057764Y0013516D01*
X0058381Y0013516D01*
X0058998Y0014133D01*
X0058998Y0015368D01*
X0059616Y0015985D01*
X0060233Y0015985D01*
X0060850Y0015368D01*
X0060850Y0014133D01*
X0060233Y0013516D01*
X0060850Y0012302D02*
X0060850Y0009833D01*
X0058381Y0012302D01*
X0057764Y0012302D01*
X0057147Y0011685D01*
X0057147Y0010450D01*
X0057764Y0009833D01*
X0057764Y0008619D02*
X0057147Y0008002D01*
X0057147Y0006767D01*
X0057764Y0006150D01*
X0060233Y0006150D01*
X0060850Y0006767D01*
X0060850Y0008002D01*
X0060233Y0008619D01*
X0060850Y0017199D02*
X0058381Y0019668D01*
X0057764Y0019668D01*
X0060850Y0019668D02*
X0060850Y0017199D01*
X0060511Y0036150D02*
X0060511Y0039052D01*
X0061478Y0039052D02*
X0059543Y0039052D01*
X0116150Y0061767D02*
X0116767Y0061150D01*
X0118002Y0061150D01*
X0118619Y0061767D01*
X0119833Y0061150D02*
X0122302Y0061150D01*
X0121068Y0061150D02*
X0121068Y0064853D01*
X0119833Y0063619D01*
X0118619Y0064236D02*
X0118002Y0064853D01*
X0116767Y0064853D01*
X0116150Y0064236D01*
X0116150Y0061767D01*
X0123516Y0061767D02*
X0124133Y0061150D01*
X0125368Y0061150D01*
X0125985Y0061767D01*
X0125985Y0062384D01*
X0125368Y0063002D01*
X0124133Y0063002D01*
X0123516Y0063619D01*
X0123516Y0064236D01*
X0124133Y0064853D01*
X0125368Y0064853D01*
X0125985Y0064236D01*
X0127199Y0064236D02*
X0127817Y0064853D01*
X0129051Y0064853D01*
X0129668Y0064236D01*
X0129668Y0063619D01*
X0127199Y0061150D01*
X0129668Y0061150D01*
X0129668Y0111150D02*
X0127199Y0111150D01*
X0128434Y0111150D02*
X0128434Y0114853D01*
X0127199Y0113619D01*
X0127734Y0112767D02*
X0128351Y0112150D01*
X0129586Y0112150D01*
X0130203Y0112767D01*
X0130203Y0113384D01*
X0129586Y0114002D01*
X0128351Y0114002D01*
X0127734Y0114619D01*
X0127734Y0115236D01*
X0128351Y0115853D01*
X0129586Y0115853D01*
X0130203Y0115236D01*
X0131417Y0115236D02*
X0131417Y0112767D01*
X0132035Y0112150D01*
X0133269Y0112150D01*
X0133886Y0112767D01*
X0135101Y0112767D02*
X0135718Y0112150D01*
X0136952Y0112150D01*
X0137569Y0112767D01*
X0137569Y0115236D01*
X0136952Y0115853D01*
X0135718Y0115853D01*
X0135101Y0115236D01*
X0135101Y0112767D01*
X0133886Y0115236D02*
X0133269Y0115853D01*
X0132035Y0115853D01*
X0131417Y0115236D01*
X0126520Y0115236D02*
X0126520Y0112767D01*
X0125903Y0112150D01*
X0124668Y0112150D01*
X0124051Y0112767D01*
X0124051Y0115236D01*
X0124668Y0115853D01*
X0125903Y0115853D01*
X0126520Y0115236D01*
X0125985Y0114236D02*
X0125368Y0114853D01*
X0124133Y0114853D01*
X0123516Y0114236D01*
X0123516Y0113619D01*
X0124133Y0113002D01*
X0125368Y0113002D01*
X0125985Y0112384D01*
X0125985Y0111767D01*
X0125368Y0111150D01*
X0124133Y0111150D01*
X0123516Y0111767D01*
X0122302Y0111150D02*
X0119833Y0111150D01*
X0121068Y0111150D02*
X0121068Y0114853D01*
X0119833Y0113619D01*
X0118619Y0114236D02*
X0118002Y0114853D01*
X0116767Y0114853D01*
X0116150Y0114236D01*
X0116150Y0111767D01*
X0116767Y0111150D01*
X0118002Y0111150D01*
X0118619Y0111767D01*
X0138784Y0112150D02*
X0138784Y0115853D01*
X0140635Y0115853D01*
X0141252Y0115236D01*
X0141252Y0114002D01*
X0140635Y0113384D01*
X0138784Y0113384D01*
X0142467Y0114002D02*
X0143701Y0114002D01*
X0142467Y0115853D02*
X0142467Y0112150D01*
X0144936Y0112150D01*
X0144936Y0115853D02*
X0142467Y0115853D01*
D13*
X0080800Y0116967D02*
X0080800Y0118502D01*
X0080033Y0119269D01*
X0080033Y0120804D02*
X0080800Y0121571D01*
X0080800Y0123106D01*
X0080033Y0123873D01*
X0076963Y0123873D01*
X0076196Y0123106D01*
X0076196Y0121571D01*
X0076963Y0120804D01*
X0080033Y0120804D01*
X0076963Y0119269D02*
X0076196Y0118502D01*
X0076196Y0116967D01*
X0076963Y0116200D01*
X0080033Y0116200D01*
X0080800Y0116967D01*
X0076196Y0125408D02*
X0076196Y0128477D01*
X0076196Y0126942D02*
X0080800Y0126942D01*
X0080033Y0130012D02*
X0076963Y0130012D01*
X0076196Y0130779D01*
X0076196Y0132314D01*
X0076963Y0133081D01*
X0080033Y0133081D01*
X0080800Y0132314D01*
X0080800Y0130779D01*
X0080033Y0130012D01*
X0080033Y0139220D02*
X0080800Y0139987D01*
X0080800Y0141522D01*
X0080033Y0142289D01*
X0076963Y0142289D01*
X0076196Y0141522D01*
X0076196Y0139987D01*
X0076963Y0139220D01*
X0077731Y0139220D01*
X0078498Y0139987D01*
X0078498Y0142289D01*
X0076963Y0143824D02*
X0076196Y0144591D01*
X0076196Y0146126D01*
X0076963Y0146893D01*
X0080033Y0143824D01*
X0080800Y0144591D01*
X0080800Y0146126D01*
X0080033Y0146893D01*
X0076963Y0146893D01*
X0076963Y0148427D02*
X0076196Y0149195D01*
X0076196Y0150729D01*
X0076963Y0151497D01*
X0080033Y0148427D01*
X0080800Y0149195D01*
X0080800Y0150729D01*
X0080033Y0151497D01*
X0076963Y0151497D01*
X0077731Y0153031D02*
X0076196Y0154566D01*
X0080800Y0154566D01*
X0080800Y0153031D02*
X0080800Y0156101D01*
X0080033Y0148427D02*
X0076963Y0148427D01*
X0076963Y0143824D02*
X0080033Y0143824D01*
X0109467Y0018304D02*
X0108700Y0017537D01*
X0108700Y0016769D01*
X0109467Y0016002D01*
X0111002Y0016002D01*
X0111769Y0015235D01*
X0111769Y0014467D01*
X0111002Y0013700D01*
X0109467Y0013700D01*
X0108700Y0014467D01*
X0109467Y0018304D02*
X0111002Y0018304D01*
X0111769Y0017537D01*
X0113304Y0018304D02*
X0115606Y0018304D01*
X0116373Y0017537D01*
X0116373Y0016002D01*
X0115606Y0015235D01*
X0113304Y0015235D01*
X0113304Y0013700D02*
X0113304Y0018304D01*
X0117908Y0018304D02*
X0117908Y0013700D01*
X0120210Y0013700D01*
X0120977Y0014467D01*
X0120977Y0017537D01*
X0120210Y0018304D01*
X0117908Y0018304D01*
X0122512Y0018304D02*
X0125581Y0018304D01*
X0124046Y0018304D02*
X0124046Y0013700D01*
D14*
X0097299Y0071100D02*
X0096198Y0072201D01*
X0098400Y0072201D01*
X0098400Y0073310D02*
X0098400Y0073677D01*
X0098033Y0073677D01*
X0098033Y0073310D01*
X0098400Y0073310D01*
X0098400Y0074415D02*
X0098033Y0074415D01*
X0096565Y0075883D01*
X0096198Y0075883D01*
X0096198Y0074415D01*
X0097299Y0072568D02*
X0097299Y0071100D01*
X0096932Y0076625D02*
X0098033Y0076625D01*
X0098400Y0076992D01*
X0098400Y0078093D01*
X0096932Y0078093D01*
X0097299Y0078835D02*
X0097299Y0080302D01*
X0096198Y0080302D02*
X0098400Y0080302D01*
X0098400Y0078835D02*
X0096198Y0078835D01*
X0096680Y0088700D02*
X0096680Y0090902D01*
X0097781Y0090902D01*
X0098148Y0090535D01*
X0098148Y0089801D01*
X0097781Y0089434D01*
X0096680Y0089434D01*
X0097414Y0089434D02*
X0098148Y0088700D01*
X0098890Y0088700D02*
X0100358Y0088700D01*
X0099624Y0088700D02*
X0099624Y0090902D01*
X0098890Y0090168D01*
X0098890Y0101200D02*
X0098890Y0103402D01*
X0098148Y0103035D02*
X0096680Y0101567D01*
X0097047Y0101200D01*
X0097781Y0101200D01*
X0098148Y0101567D01*
X0098148Y0103035D01*
X0097781Y0103402D01*
X0097047Y0103402D01*
X0096680Y0103035D01*
X0096680Y0101567D01*
X0095938Y0101567D02*
X0095938Y0103035D01*
X0094470Y0101567D01*
X0094837Y0101200D01*
X0095571Y0101200D01*
X0095938Y0101567D01*
X0094470Y0101567D02*
X0094470Y0103035D01*
X0094837Y0103402D01*
X0095571Y0103402D01*
X0095938Y0103035D01*
X0093728Y0101200D02*
X0092260Y0101200D01*
X0092994Y0101200D02*
X0092994Y0103402D01*
X0092260Y0102668D01*
X0098890Y0101934D02*
X0100358Y0103402D01*
X0099257Y0102301D02*
X0100358Y0101200D01*
X0080900Y0074778D02*
X0080900Y0073310D01*
X0080900Y0074044D02*
X0078698Y0074044D01*
X0079432Y0073310D01*
X0080900Y0072568D02*
X0080900Y0071100D01*
X0078698Y0071100D01*
X0016988Y0045435D02*
X0016988Y0043967D01*
X0016621Y0043600D01*
X0015887Y0043600D01*
X0015520Y0043967D01*
X0016988Y0045435D01*
X0016621Y0045802D01*
X0015887Y0045802D01*
X0015520Y0045435D01*
X0015520Y0043967D01*
X0014778Y0043600D02*
X0013310Y0043600D01*
X0014778Y0045068D01*
X0014778Y0045435D01*
X0014411Y0045802D01*
X0013677Y0045802D01*
X0013310Y0045435D01*
X0012568Y0045435D02*
X0012201Y0045802D01*
X0011467Y0045802D01*
X0011100Y0045435D01*
X0012568Y0045435D02*
X0012568Y0045068D01*
X0011100Y0043600D01*
X0012568Y0043600D01*
X0012568Y0056100D02*
X0011834Y0056834D01*
X0012201Y0056834D02*
X0011100Y0056834D01*
X0011100Y0056100D02*
X0011100Y0058302D01*
X0012201Y0058302D01*
X0012568Y0057935D01*
X0012568Y0057201D01*
X0012201Y0056834D01*
X0013310Y0056100D02*
X0014778Y0057568D01*
X0014778Y0057935D01*
X0014411Y0058302D01*
X0013677Y0058302D01*
X0013310Y0057935D01*
X0013310Y0056100D02*
X0014778Y0056100D01*
X0123600Y0158600D02*
X0125068Y0158600D01*
X0124334Y0158600D02*
X0124334Y0160802D01*
X0123600Y0160068D01*
X0125810Y0160435D02*
X0125810Y0158967D01*
X0127278Y0160435D01*
X0127278Y0158967D01*
X0126911Y0158600D01*
X0126177Y0158600D01*
X0125810Y0158967D01*
X0125810Y0160435D02*
X0126177Y0160802D01*
X0126911Y0160802D01*
X0127278Y0160435D01*
X0128020Y0160802D02*
X0128020Y0158600D01*
X0128020Y0159334D02*
X0129488Y0160802D01*
X0128387Y0159701D02*
X0129488Y0158600D01*
X0126911Y0171100D02*
X0126177Y0171100D01*
X0125810Y0171467D01*
X0125068Y0171100D02*
X0124334Y0171834D01*
X0124701Y0171834D02*
X0123600Y0171834D01*
X0123600Y0171100D02*
X0123600Y0173302D01*
X0124701Y0173302D01*
X0125068Y0172935D01*
X0125068Y0172201D01*
X0124701Y0171834D01*
X0125810Y0172935D02*
X0126177Y0173302D01*
X0126911Y0173302D01*
X0127278Y0172935D01*
X0127278Y0172568D01*
X0126911Y0172201D01*
X0127278Y0171834D01*
X0127278Y0171467D01*
X0126911Y0171100D01*
X0126911Y0172201D02*
X0126544Y0172201D01*
D15*
X0078500Y0198500D02*
X0078500Y0058500D01*
X0008500Y0058500D01*
X0008500Y0198500D01*
X0038500Y0198500D01*
X0038500Y0193500D01*
X0048500Y0193500D01*
X0048500Y0198500D01*
X0078500Y0198500D01*
M02*
