G75*
%MOIN*%
%OFA0B0*%
%FSLAX25Y25*%
%IPPOS*%
%LPD*%
%AMOC8*
5,1,8,0,0,1.08239X$1,22.5*
%
%ADD10C,0.00000*%
%ADD11R,0.07100X0.03600*%
%ADD12R,0.03600X0.07100*%
%ADD13R,0.07087X0.05906*%
%ADD14R,0.05906X0.07087*%
%ADD15R,0.05000X0.05000*%
%ADD16R,0.23622X0.19685*%
%ADD17R,0.04400X0.06900*%
%ADD18R,0.06000X0.06000*%
%ADD19C,0.06000*%
%ADD20R,0.05543X0.05543*%
%ADD21C,0.05543*%
%ADD22C,0.05150*%
%ADD23R,0.05150X0.05150*%
%ADD24R,0.02200X0.05000*%
%ADD25R,0.06400X0.03500*%
%ADD26R,0.06400X0.12500*%
%ADD27R,0.02362X0.08661*%
%ADD28C,0.01600*%
%ADD29R,0.04356X0.04356*%
D10*
X0013500Y0013500D02*
X0013500Y0063500D01*
X0001000Y0063500D01*
X0001000Y0338500D01*
X0013500Y0338500D01*
X0013500Y0388500D01*
X0063500Y0388500D01*
X0063500Y0401000D01*
X0338500Y0401000D01*
X0338500Y0388500D01*
X0388500Y0388500D01*
X0388500Y0338500D01*
X0401000Y0338500D01*
X0401000Y0063500D01*
X0388500Y0063500D01*
X0388500Y0013500D01*
X0338500Y0013500D01*
X0338500Y0001000D01*
X0063500Y0001000D01*
X0063500Y0013500D01*
X0013500Y0013500D01*
X0068950Y0038500D02*
X0068952Y0038673D01*
X0068958Y0038846D01*
X0068969Y0039019D01*
X0068984Y0039191D01*
X0069003Y0039363D01*
X0069026Y0039534D01*
X0069054Y0039705D01*
X0069085Y0039875D01*
X0069121Y0040045D01*
X0069161Y0040213D01*
X0069205Y0040380D01*
X0069254Y0040547D01*
X0069306Y0040711D01*
X0069362Y0040875D01*
X0069422Y0041037D01*
X0069487Y0041198D01*
X0069555Y0041357D01*
X0069627Y0041514D01*
X0069703Y0041670D01*
X0069782Y0041823D01*
X0069866Y0041975D01*
X0069953Y0042124D01*
X0070044Y0042272D01*
X0070138Y0042417D01*
X0070236Y0042559D01*
X0070337Y0042700D01*
X0070442Y0042837D01*
X0070550Y0042972D01*
X0070662Y0043105D01*
X0070776Y0043234D01*
X0070894Y0043361D01*
X0071015Y0043485D01*
X0071139Y0043606D01*
X0071266Y0043724D01*
X0071395Y0043838D01*
X0071528Y0043950D01*
X0071663Y0044058D01*
X0071800Y0044163D01*
X0071941Y0044264D01*
X0072083Y0044362D01*
X0072228Y0044456D01*
X0072376Y0044547D01*
X0072525Y0044634D01*
X0072677Y0044718D01*
X0072830Y0044797D01*
X0072986Y0044873D01*
X0073143Y0044945D01*
X0073302Y0045013D01*
X0073463Y0045078D01*
X0073625Y0045138D01*
X0073789Y0045194D01*
X0073953Y0045246D01*
X0074120Y0045295D01*
X0074287Y0045339D01*
X0074455Y0045379D01*
X0074625Y0045415D01*
X0074795Y0045446D01*
X0074966Y0045474D01*
X0075137Y0045497D01*
X0075309Y0045516D01*
X0075481Y0045531D01*
X0075654Y0045542D01*
X0075827Y0045548D01*
X0076000Y0045550D01*
X0076173Y0045548D01*
X0076346Y0045542D01*
X0076519Y0045531D01*
X0076691Y0045516D01*
X0076863Y0045497D01*
X0077034Y0045474D01*
X0077205Y0045446D01*
X0077375Y0045415D01*
X0077545Y0045379D01*
X0077713Y0045339D01*
X0077880Y0045295D01*
X0078047Y0045246D01*
X0078211Y0045194D01*
X0078375Y0045138D01*
X0078537Y0045078D01*
X0078698Y0045013D01*
X0078857Y0044945D01*
X0079014Y0044873D01*
X0079170Y0044797D01*
X0079323Y0044718D01*
X0079475Y0044634D01*
X0079624Y0044547D01*
X0079772Y0044456D01*
X0079917Y0044362D01*
X0080059Y0044264D01*
X0080200Y0044163D01*
X0080337Y0044058D01*
X0080472Y0043950D01*
X0080605Y0043838D01*
X0080734Y0043724D01*
X0080861Y0043606D01*
X0080985Y0043485D01*
X0081106Y0043361D01*
X0081224Y0043234D01*
X0081338Y0043105D01*
X0081450Y0042972D01*
X0081558Y0042837D01*
X0081663Y0042700D01*
X0081764Y0042559D01*
X0081862Y0042417D01*
X0081956Y0042272D01*
X0082047Y0042124D01*
X0082134Y0041975D01*
X0082218Y0041823D01*
X0082297Y0041670D01*
X0082373Y0041514D01*
X0082445Y0041357D01*
X0082513Y0041198D01*
X0082578Y0041037D01*
X0082638Y0040875D01*
X0082694Y0040711D01*
X0082746Y0040547D01*
X0082795Y0040380D01*
X0082839Y0040213D01*
X0082879Y0040045D01*
X0082915Y0039875D01*
X0082946Y0039705D01*
X0082974Y0039534D01*
X0082997Y0039363D01*
X0083016Y0039191D01*
X0083031Y0039019D01*
X0083042Y0038846D01*
X0083048Y0038673D01*
X0083050Y0038500D01*
X0083048Y0038327D01*
X0083042Y0038154D01*
X0083031Y0037981D01*
X0083016Y0037809D01*
X0082997Y0037637D01*
X0082974Y0037466D01*
X0082946Y0037295D01*
X0082915Y0037125D01*
X0082879Y0036955D01*
X0082839Y0036787D01*
X0082795Y0036620D01*
X0082746Y0036453D01*
X0082694Y0036289D01*
X0082638Y0036125D01*
X0082578Y0035963D01*
X0082513Y0035802D01*
X0082445Y0035643D01*
X0082373Y0035486D01*
X0082297Y0035330D01*
X0082218Y0035177D01*
X0082134Y0035025D01*
X0082047Y0034876D01*
X0081956Y0034728D01*
X0081862Y0034583D01*
X0081764Y0034441D01*
X0081663Y0034300D01*
X0081558Y0034163D01*
X0081450Y0034028D01*
X0081338Y0033895D01*
X0081224Y0033766D01*
X0081106Y0033639D01*
X0080985Y0033515D01*
X0080861Y0033394D01*
X0080734Y0033276D01*
X0080605Y0033162D01*
X0080472Y0033050D01*
X0080337Y0032942D01*
X0080200Y0032837D01*
X0080059Y0032736D01*
X0079917Y0032638D01*
X0079772Y0032544D01*
X0079624Y0032453D01*
X0079475Y0032366D01*
X0079323Y0032282D01*
X0079170Y0032203D01*
X0079014Y0032127D01*
X0078857Y0032055D01*
X0078698Y0031987D01*
X0078537Y0031922D01*
X0078375Y0031862D01*
X0078211Y0031806D01*
X0078047Y0031754D01*
X0077880Y0031705D01*
X0077713Y0031661D01*
X0077545Y0031621D01*
X0077375Y0031585D01*
X0077205Y0031554D01*
X0077034Y0031526D01*
X0076863Y0031503D01*
X0076691Y0031484D01*
X0076519Y0031469D01*
X0076346Y0031458D01*
X0076173Y0031452D01*
X0076000Y0031450D01*
X0075827Y0031452D01*
X0075654Y0031458D01*
X0075481Y0031469D01*
X0075309Y0031484D01*
X0075137Y0031503D01*
X0074966Y0031526D01*
X0074795Y0031554D01*
X0074625Y0031585D01*
X0074455Y0031621D01*
X0074287Y0031661D01*
X0074120Y0031705D01*
X0073953Y0031754D01*
X0073789Y0031806D01*
X0073625Y0031862D01*
X0073463Y0031922D01*
X0073302Y0031987D01*
X0073143Y0032055D01*
X0072986Y0032127D01*
X0072830Y0032203D01*
X0072677Y0032282D01*
X0072525Y0032366D01*
X0072376Y0032453D01*
X0072228Y0032544D01*
X0072083Y0032638D01*
X0071941Y0032736D01*
X0071800Y0032837D01*
X0071663Y0032942D01*
X0071528Y0033050D01*
X0071395Y0033162D01*
X0071266Y0033276D01*
X0071139Y0033394D01*
X0071015Y0033515D01*
X0070894Y0033639D01*
X0070776Y0033766D01*
X0070662Y0033895D01*
X0070550Y0034028D01*
X0070442Y0034163D01*
X0070337Y0034300D01*
X0070236Y0034441D01*
X0070138Y0034583D01*
X0070044Y0034728D01*
X0069953Y0034876D01*
X0069866Y0035025D01*
X0069782Y0035177D01*
X0069703Y0035330D01*
X0069627Y0035486D01*
X0069555Y0035643D01*
X0069487Y0035802D01*
X0069422Y0035963D01*
X0069362Y0036125D01*
X0069306Y0036289D01*
X0069254Y0036453D01*
X0069205Y0036620D01*
X0069161Y0036787D01*
X0069121Y0036955D01*
X0069085Y0037125D01*
X0069054Y0037295D01*
X0069026Y0037466D01*
X0069003Y0037637D01*
X0068984Y0037809D01*
X0068969Y0037981D01*
X0068958Y0038154D01*
X0068952Y0038327D01*
X0068950Y0038500D01*
X0135961Y0139307D02*
X0135963Y0139454D01*
X0135969Y0139600D01*
X0135979Y0139746D01*
X0135993Y0139892D01*
X0136011Y0140038D01*
X0136032Y0140183D01*
X0136058Y0140327D01*
X0136088Y0140471D01*
X0136121Y0140613D01*
X0136158Y0140755D01*
X0136199Y0140896D01*
X0136244Y0141035D01*
X0136293Y0141174D01*
X0136345Y0141311D01*
X0136402Y0141446D01*
X0136461Y0141580D01*
X0136525Y0141712D01*
X0136592Y0141842D01*
X0136662Y0141971D01*
X0136736Y0142098D01*
X0136813Y0142222D01*
X0136894Y0142345D01*
X0136978Y0142465D01*
X0137065Y0142583D01*
X0137155Y0142698D01*
X0137248Y0142811D01*
X0137345Y0142922D01*
X0137444Y0143030D01*
X0137546Y0143135D01*
X0137651Y0143237D01*
X0137759Y0143336D01*
X0137870Y0143433D01*
X0137983Y0143526D01*
X0138098Y0143616D01*
X0138216Y0143703D01*
X0138336Y0143787D01*
X0138459Y0143868D01*
X0138583Y0143945D01*
X0138710Y0144019D01*
X0138839Y0144089D01*
X0138969Y0144156D01*
X0139101Y0144220D01*
X0139235Y0144279D01*
X0139370Y0144336D01*
X0139507Y0144388D01*
X0139646Y0144437D01*
X0139785Y0144482D01*
X0139926Y0144523D01*
X0140068Y0144560D01*
X0140210Y0144593D01*
X0140354Y0144623D01*
X0140498Y0144649D01*
X0140643Y0144670D01*
X0140789Y0144688D01*
X0140935Y0144702D01*
X0141081Y0144712D01*
X0141227Y0144718D01*
X0141374Y0144720D01*
X0141521Y0144718D01*
X0141667Y0144712D01*
X0141813Y0144702D01*
X0141959Y0144688D01*
X0142105Y0144670D01*
X0142250Y0144649D01*
X0142394Y0144623D01*
X0142538Y0144593D01*
X0142680Y0144560D01*
X0142822Y0144523D01*
X0142963Y0144482D01*
X0143102Y0144437D01*
X0143241Y0144388D01*
X0143378Y0144336D01*
X0143513Y0144279D01*
X0143647Y0144220D01*
X0143779Y0144156D01*
X0143909Y0144089D01*
X0144038Y0144019D01*
X0144165Y0143945D01*
X0144289Y0143868D01*
X0144412Y0143787D01*
X0144532Y0143703D01*
X0144650Y0143616D01*
X0144765Y0143526D01*
X0144878Y0143433D01*
X0144989Y0143336D01*
X0145097Y0143237D01*
X0145202Y0143135D01*
X0145304Y0143030D01*
X0145403Y0142922D01*
X0145500Y0142811D01*
X0145593Y0142698D01*
X0145683Y0142583D01*
X0145770Y0142465D01*
X0145854Y0142345D01*
X0145935Y0142222D01*
X0146012Y0142098D01*
X0146086Y0141971D01*
X0146156Y0141842D01*
X0146223Y0141712D01*
X0146287Y0141580D01*
X0146346Y0141446D01*
X0146403Y0141311D01*
X0146455Y0141174D01*
X0146504Y0141035D01*
X0146549Y0140896D01*
X0146590Y0140755D01*
X0146627Y0140613D01*
X0146660Y0140471D01*
X0146690Y0140327D01*
X0146716Y0140183D01*
X0146737Y0140038D01*
X0146755Y0139892D01*
X0146769Y0139746D01*
X0146779Y0139600D01*
X0146785Y0139454D01*
X0146787Y0139307D01*
X0146785Y0139160D01*
X0146779Y0139014D01*
X0146769Y0138868D01*
X0146755Y0138722D01*
X0146737Y0138576D01*
X0146716Y0138431D01*
X0146690Y0138287D01*
X0146660Y0138143D01*
X0146627Y0138001D01*
X0146590Y0137859D01*
X0146549Y0137718D01*
X0146504Y0137579D01*
X0146455Y0137440D01*
X0146403Y0137303D01*
X0146346Y0137168D01*
X0146287Y0137034D01*
X0146223Y0136902D01*
X0146156Y0136772D01*
X0146086Y0136643D01*
X0146012Y0136516D01*
X0145935Y0136392D01*
X0145854Y0136269D01*
X0145770Y0136149D01*
X0145683Y0136031D01*
X0145593Y0135916D01*
X0145500Y0135803D01*
X0145403Y0135692D01*
X0145304Y0135584D01*
X0145202Y0135479D01*
X0145097Y0135377D01*
X0144989Y0135278D01*
X0144878Y0135181D01*
X0144765Y0135088D01*
X0144650Y0134998D01*
X0144532Y0134911D01*
X0144412Y0134827D01*
X0144289Y0134746D01*
X0144165Y0134669D01*
X0144038Y0134595D01*
X0143909Y0134525D01*
X0143779Y0134458D01*
X0143647Y0134394D01*
X0143513Y0134335D01*
X0143378Y0134278D01*
X0143241Y0134226D01*
X0143102Y0134177D01*
X0142963Y0134132D01*
X0142822Y0134091D01*
X0142680Y0134054D01*
X0142538Y0134021D01*
X0142394Y0133991D01*
X0142250Y0133965D01*
X0142105Y0133944D01*
X0141959Y0133926D01*
X0141813Y0133912D01*
X0141667Y0133902D01*
X0141521Y0133896D01*
X0141374Y0133894D01*
X0141227Y0133896D01*
X0141081Y0133902D01*
X0140935Y0133912D01*
X0140789Y0133926D01*
X0140643Y0133944D01*
X0140498Y0133965D01*
X0140354Y0133991D01*
X0140210Y0134021D01*
X0140068Y0134054D01*
X0139926Y0134091D01*
X0139785Y0134132D01*
X0139646Y0134177D01*
X0139507Y0134226D01*
X0139370Y0134278D01*
X0139235Y0134335D01*
X0139101Y0134394D01*
X0138969Y0134458D01*
X0138839Y0134525D01*
X0138710Y0134595D01*
X0138583Y0134669D01*
X0138459Y0134746D01*
X0138336Y0134827D01*
X0138216Y0134911D01*
X0138098Y0134998D01*
X0137983Y0135088D01*
X0137870Y0135181D01*
X0137759Y0135278D01*
X0137651Y0135377D01*
X0137546Y0135479D01*
X0137444Y0135584D01*
X0137345Y0135692D01*
X0137248Y0135803D01*
X0137155Y0135916D01*
X0137065Y0136031D01*
X0136978Y0136149D01*
X0136894Y0136269D01*
X0136813Y0136392D01*
X0136736Y0136516D01*
X0136662Y0136643D01*
X0136592Y0136772D01*
X0136525Y0136902D01*
X0136461Y0137034D01*
X0136402Y0137168D01*
X0136345Y0137303D01*
X0136293Y0137440D01*
X0136244Y0137579D01*
X0136199Y0137718D01*
X0136158Y0137859D01*
X0136121Y0138001D01*
X0136088Y0138143D01*
X0136058Y0138287D01*
X0136032Y0138431D01*
X0136011Y0138576D01*
X0135993Y0138722D01*
X0135979Y0138868D01*
X0135969Y0139014D01*
X0135963Y0139160D01*
X0135961Y0139307D01*
X0237201Y0031000D02*
X0237203Y0031158D01*
X0237209Y0031316D01*
X0237219Y0031474D01*
X0237233Y0031632D01*
X0237251Y0031789D01*
X0237272Y0031946D01*
X0237298Y0032102D01*
X0237328Y0032258D01*
X0237361Y0032413D01*
X0237399Y0032566D01*
X0237440Y0032719D01*
X0237485Y0032871D01*
X0237534Y0033022D01*
X0237587Y0033171D01*
X0237643Y0033319D01*
X0237703Y0033465D01*
X0237767Y0033610D01*
X0237835Y0033753D01*
X0237906Y0033895D01*
X0237980Y0034035D01*
X0238058Y0034172D01*
X0238140Y0034308D01*
X0238224Y0034442D01*
X0238313Y0034573D01*
X0238404Y0034702D01*
X0238499Y0034829D01*
X0238596Y0034954D01*
X0238697Y0035076D01*
X0238801Y0035195D01*
X0238908Y0035312D01*
X0239018Y0035426D01*
X0239131Y0035537D01*
X0239246Y0035646D01*
X0239364Y0035751D01*
X0239485Y0035853D01*
X0239608Y0035953D01*
X0239734Y0036049D01*
X0239862Y0036142D01*
X0239992Y0036232D01*
X0240125Y0036318D01*
X0240260Y0036402D01*
X0240396Y0036481D01*
X0240535Y0036558D01*
X0240676Y0036630D01*
X0240818Y0036700D01*
X0240962Y0036765D01*
X0241108Y0036827D01*
X0241255Y0036885D01*
X0241404Y0036940D01*
X0241554Y0036991D01*
X0241705Y0037038D01*
X0241857Y0037081D01*
X0242010Y0037120D01*
X0242165Y0037156D01*
X0242320Y0037187D01*
X0242476Y0037215D01*
X0242632Y0037239D01*
X0242789Y0037259D01*
X0242947Y0037275D01*
X0243104Y0037287D01*
X0243263Y0037295D01*
X0243421Y0037299D01*
X0243579Y0037299D01*
X0243737Y0037295D01*
X0243896Y0037287D01*
X0244053Y0037275D01*
X0244211Y0037259D01*
X0244368Y0037239D01*
X0244524Y0037215D01*
X0244680Y0037187D01*
X0244835Y0037156D01*
X0244990Y0037120D01*
X0245143Y0037081D01*
X0245295Y0037038D01*
X0245446Y0036991D01*
X0245596Y0036940D01*
X0245745Y0036885D01*
X0245892Y0036827D01*
X0246038Y0036765D01*
X0246182Y0036700D01*
X0246324Y0036630D01*
X0246465Y0036558D01*
X0246604Y0036481D01*
X0246740Y0036402D01*
X0246875Y0036318D01*
X0247008Y0036232D01*
X0247138Y0036142D01*
X0247266Y0036049D01*
X0247392Y0035953D01*
X0247515Y0035853D01*
X0247636Y0035751D01*
X0247754Y0035646D01*
X0247869Y0035537D01*
X0247982Y0035426D01*
X0248092Y0035312D01*
X0248199Y0035195D01*
X0248303Y0035076D01*
X0248404Y0034954D01*
X0248501Y0034829D01*
X0248596Y0034702D01*
X0248687Y0034573D01*
X0248776Y0034442D01*
X0248860Y0034308D01*
X0248942Y0034172D01*
X0249020Y0034035D01*
X0249094Y0033895D01*
X0249165Y0033753D01*
X0249233Y0033610D01*
X0249297Y0033465D01*
X0249357Y0033319D01*
X0249413Y0033171D01*
X0249466Y0033022D01*
X0249515Y0032871D01*
X0249560Y0032719D01*
X0249601Y0032566D01*
X0249639Y0032413D01*
X0249672Y0032258D01*
X0249702Y0032102D01*
X0249728Y0031946D01*
X0249749Y0031789D01*
X0249767Y0031632D01*
X0249781Y0031474D01*
X0249791Y0031316D01*
X0249797Y0031158D01*
X0249799Y0031000D01*
X0249797Y0030842D01*
X0249791Y0030684D01*
X0249781Y0030526D01*
X0249767Y0030368D01*
X0249749Y0030211D01*
X0249728Y0030054D01*
X0249702Y0029898D01*
X0249672Y0029742D01*
X0249639Y0029587D01*
X0249601Y0029434D01*
X0249560Y0029281D01*
X0249515Y0029129D01*
X0249466Y0028978D01*
X0249413Y0028829D01*
X0249357Y0028681D01*
X0249297Y0028535D01*
X0249233Y0028390D01*
X0249165Y0028247D01*
X0249094Y0028105D01*
X0249020Y0027965D01*
X0248942Y0027828D01*
X0248860Y0027692D01*
X0248776Y0027558D01*
X0248687Y0027427D01*
X0248596Y0027298D01*
X0248501Y0027171D01*
X0248404Y0027046D01*
X0248303Y0026924D01*
X0248199Y0026805D01*
X0248092Y0026688D01*
X0247982Y0026574D01*
X0247869Y0026463D01*
X0247754Y0026354D01*
X0247636Y0026249D01*
X0247515Y0026147D01*
X0247392Y0026047D01*
X0247266Y0025951D01*
X0247138Y0025858D01*
X0247008Y0025768D01*
X0246875Y0025682D01*
X0246740Y0025598D01*
X0246604Y0025519D01*
X0246465Y0025442D01*
X0246324Y0025370D01*
X0246182Y0025300D01*
X0246038Y0025235D01*
X0245892Y0025173D01*
X0245745Y0025115D01*
X0245596Y0025060D01*
X0245446Y0025009D01*
X0245295Y0024962D01*
X0245143Y0024919D01*
X0244990Y0024880D01*
X0244835Y0024844D01*
X0244680Y0024813D01*
X0244524Y0024785D01*
X0244368Y0024761D01*
X0244211Y0024741D01*
X0244053Y0024725D01*
X0243896Y0024713D01*
X0243737Y0024705D01*
X0243579Y0024701D01*
X0243421Y0024701D01*
X0243263Y0024705D01*
X0243104Y0024713D01*
X0242947Y0024725D01*
X0242789Y0024741D01*
X0242632Y0024761D01*
X0242476Y0024785D01*
X0242320Y0024813D01*
X0242165Y0024844D01*
X0242010Y0024880D01*
X0241857Y0024919D01*
X0241705Y0024962D01*
X0241554Y0025009D01*
X0241404Y0025060D01*
X0241255Y0025115D01*
X0241108Y0025173D01*
X0240962Y0025235D01*
X0240818Y0025300D01*
X0240676Y0025370D01*
X0240535Y0025442D01*
X0240396Y0025519D01*
X0240260Y0025598D01*
X0240125Y0025682D01*
X0239992Y0025768D01*
X0239862Y0025858D01*
X0239734Y0025951D01*
X0239608Y0026047D01*
X0239485Y0026147D01*
X0239364Y0026249D01*
X0239246Y0026354D01*
X0239131Y0026463D01*
X0239018Y0026574D01*
X0238908Y0026688D01*
X0238801Y0026805D01*
X0238697Y0026924D01*
X0238596Y0027046D01*
X0238499Y0027171D01*
X0238404Y0027298D01*
X0238313Y0027427D01*
X0238224Y0027558D01*
X0238140Y0027692D01*
X0238058Y0027828D01*
X0237980Y0027965D01*
X0237906Y0028105D01*
X0237835Y0028247D01*
X0237767Y0028390D01*
X0237703Y0028535D01*
X0237643Y0028681D01*
X0237587Y0028829D01*
X0237534Y0028978D01*
X0237485Y0029129D01*
X0237440Y0029281D01*
X0237399Y0029434D01*
X0237361Y0029587D01*
X0237328Y0029742D01*
X0237298Y0029898D01*
X0237272Y0030054D01*
X0237251Y0030211D01*
X0237233Y0030368D01*
X0237219Y0030526D01*
X0237209Y0030684D01*
X0237203Y0030842D01*
X0237201Y0031000D01*
X0307201Y0031000D02*
X0307203Y0031158D01*
X0307209Y0031316D01*
X0307219Y0031474D01*
X0307233Y0031632D01*
X0307251Y0031789D01*
X0307272Y0031946D01*
X0307298Y0032102D01*
X0307328Y0032258D01*
X0307361Y0032413D01*
X0307399Y0032566D01*
X0307440Y0032719D01*
X0307485Y0032871D01*
X0307534Y0033022D01*
X0307587Y0033171D01*
X0307643Y0033319D01*
X0307703Y0033465D01*
X0307767Y0033610D01*
X0307835Y0033753D01*
X0307906Y0033895D01*
X0307980Y0034035D01*
X0308058Y0034172D01*
X0308140Y0034308D01*
X0308224Y0034442D01*
X0308313Y0034573D01*
X0308404Y0034702D01*
X0308499Y0034829D01*
X0308596Y0034954D01*
X0308697Y0035076D01*
X0308801Y0035195D01*
X0308908Y0035312D01*
X0309018Y0035426D01*
X0309131Y0035537D01*
X0309246Y0035646D01*
X0309364Y0035751D01*
X0309485Y0035853D01*
X0309608Y0035953D01*
X0309734Y0036049D01*
X0309862Y0036142D01*
X0309992Y0036232D01*
X0310125Y0036318D01*
X0310260Y0036402D01*
X0310396Y0036481D01*
X0310535Y0036558D01*
X0310676Y0036630D01*
X0310818Y0036700D01*
X0310962Y0036765D01*
X0311108Y0036827D01*
X0311255Y0036885D01*
X0311404Y0036940D01*
X0311554Y0036991D01*
X0311705Y0037038D01*
X0311857Y0037081D01*
X0312010Y0037120D01*
X0312165Y0037156D01*
X0312320Y0037187D01*
X0312476Y0037215D01*
X0312632Y0037239D01*
X0312789Y0037259D01*
X0312947Y0037275D01*
X0313104Y0037287D01*
X0313263Y0037295D01*
X0313421Y0037299D01*
X0313579Y0037299D01*
X0313737Y0037295D01*
X0313896Y0037287D01*
X0314053Y0037275D01*
X0314211Y0037259D01*
X0314368Y0037239D01*
X0314524Y0037215D01*
X0314680Y0037187D01*
X0314835Y0037156D01*
X0314990Y0037120D01*
X0315143Y0037081D01*
X0315295Y0037038D01*
X0315446Y0036991D01*
X0315596Y0036940D01*
X0315745Y0036885D01*
X0315892Y0036827D01*
X0316038Y0036765D01*
X0316182Y0036700D01*
X0316324Y0036630D01*
X0316465Y0036558D01*
X0316604Y0036481D01*
X0316740Y0036402D01*
X0316875Y0036318D01*
X0317008Y0036232D01*
X0317138Y0036142D01*
X0317266Y0036049D01*
X0317392Y0035953D01*
X0317515Y0035853D01*
X0317636Y0035751D01*
X0317754Y0035646D01*
X0317869Y0035537D01*
X0317982Y0035426D01*
X0318092Y0035312D01*
X0318199Y0035195D01*
X0318303Y0035076D01*
X0318404Y0034954D01*
X0318501Y0034829D01*
X0318596Y0034702D01*
X0318687Y0034573D01*
X0318776Y0034442D01*
X0318860Y0034308D01*
X0318942Y0034172D01*
X0319020Y0034035D01*
X0319094Y0033895D01*
X0319165Y0033753D01*
X0319233Y0033610D01*
X0319297Y0033465D01*
X0319357Y0033319D01*
X0319413Y0033171D01*
X0319466Y0033022D01*
X0319515Y0032871D01*
X0319560Y0032719D01*
X0319601Y0032566D01*
X0319639Y0032413D01*
X0319672Y0032258D01*
X0319702Y0032102D01*
X0319728Y0031946D01*
X0319749Y0031789D01*
X0319767Y0031632D01*
X0319781Y0031474D01*
X0319791Y0031316D01*
X0319797Y0031158D01*
X0319799Y0031000D01*
X0319797Y0030842D01*
X0319791Y0030684D01*
X0319781Y0030526D01*
X0319767Y0030368D01*
X0319749Y0030211D01*
X0319728Y0030054D01*
X0319702Y0029898D01*
X0319672Y0029742D01*
X0319639Y0029587D01*
X0319601Y0029434D01*
X0319560Y0029281D01*
X0319515Y0029129D01*
X0319466Y0028978D01*
X0319413Y0028829D01*
X0319357Y0028681D01*
X0319297Y0028535D01*
X0319233Y0028390D01*
X0319165Y0028247D01*
X0319094Y0028105D01*
X0319020Y0027965D01*
X0318942Y0027828D01*
X0318860Y0027692D01*
X0318776Y0027558D01*
X0318687Y0027427D01*
X0318596Y0027298D01*
X0318501Y0027171D01*
X0318404Y0027046D01*
X0318303Y0026924D01*
X0318199Y0026805D01*
X0318092Y0026688D01*
X0317982Y0026574D01*
X0317869Y0026463D01*
X0317754Y0026354D01*
X0317636Y0026249D01*
X0317515Y0026147D01*
X0317392Y0026047D01*
X0317266Y0025951D01*
X0317138Y0025858D01*
X0317008Y0025768D01*
X0316875Y0025682D01*
X0316740Y0025598D01*
X0316604Y0025519D01*
X0316465Y0025442D01*
X0316324Y0025370D01*
X0316182Y0025300D01*
X0316038Y0025235D01*
X0315892Y0025173D01*
X0315745Y0025115D01*
X0315596Y0025060D01*
X0315446Y0025009D01*
X0315295Y0024962D01*
X0315143Y0024919D01*
X0314990Y0024880D01*
X0314835Y0024844D01*
X0314680Y0024813D01*
X0314524Y0024785D01*
X0314368Y0024761D01*
X0314211Y0024741D01*
X0314053Y0024725D01*
X0313896Y0024713D01*
X0313737Y0024705D01*
X0313579Y0024701D01*
X0313421Y0024701D01*
X0313263Y0024705D01*
X0313104Y0024713D01*
X0312947Y0024725D01*
X0312789Y0024741D01*
X0312632Y0024761D01*
X0312476Y0024785D01*
X0312320Y0024813D01*
X0312165Y0024844D01*
X0312010Y0024880D01*
X0311857Y0024919D01*
X0311705Y0024962D01*
X0311554Y0025009D01*
X0311404Y0025060D01*
X0311255Y0025115D01*
X0311108Y0025173D01*
X0310962Y0025235D01*
X0310818Y0025300D01*
X0310676Y0025370D01*
X0310535Y0025442D01*
X0310396Y0025519D01*
X0310260Y0025598D01*
X0310125Y0025682D01*
X0309992Y0025768D01*
X0309862Y0025858D01*
X0309734Y0025951D01*
X0309608Y0026047D01*
X0309485Y0026147D01*
X0309364Y0026249D01*
X0309246Y0026354D01*
X0309131Y0026463D01*
X0309018Y0026574D01*
X0308908Y0026688D01*
X0308801Y0026805D01*
X0308697Y0026924D01*
X0308596Y0027046D01*
X0308499Y0027171D01*
X0308404Y0027298D01*
X0308313Y0027427D01*
X0308224Y0027558D01*
X0308140Y0027692D01*
X0308058Y0027828D01*
X0307980Y0027965D01*
X0307906Y0028105D01*
X0307835Y0028247D01*
X0307767Y0028390D01*
X0307703Y0028535D01*
X0307643Y0028681D01*
X0307587Y0028829D01*
X0307534Y0028978D01*
X0307485Y0029129D01*
X0307440Y0029281D01*
X0307399Y0029434D01*
X0307361Y0029587D01*
X0307328Y0029742D01*
X0307298Y0029898D01*
X0307272Y0030054D01*
X0307251Y0030211D01*
X0307233Y0030368D01*
X0307219Y0030526D01*
X0307209Y0030684D01*
X0307203Y0030842D01*
X0307201Y0031000D01*
X0356450Y0038500D02*
X0356452Y0038673D01*
X0356458Y0038846D01*
X0356469Y0039019D01*
X0356484Y0039191D01*
X0356503Y0039363D01*
X0356526Y0039534D01*
X0356554Y0039705D01*
X0356585Y0039875D01*
X0356621Y0040045D01*
X0356661Y0040213D01*
X0356705Y0040380D01*
X0356754Y0040547D01*
X0356806Y0040711D01*
X0356862Y0040875D01*
X0356922Y0041037D01*
X0356987Y0041198D01*
X0357055Y0041357D01*
X0357127Y0041514D01*
X0357203Y0041670D01*
X0357282Y0041823D01*
X0357366Y0041975D01*
X0357453Y0042124D01*
X0357544Y0042272D01*
X0357638Y0042417D01*
X0357736Y0042559D01*
X0357837Y0042700D01*
X0357942Y0042837D01*
X0358050Y0042972D01*
X0358162Y0043105D01*
X0358276Y0043234D01*
X0358394Y0043361D01*
X0358515Y0043485D01*
X0358639Y0043606D01*
X0358766Y0043724D01*
X0358895Y0043838D01*
X0359028Y0043950D01*
X0359163Y0044058D01*
X0359300Y0044163D01*
X0359441Y0044264D01*
X0359583Y0044362D01*
X0359728Y0044456D01*
X0359876Y0044547D01*
X0360025Y0044634D01*
X0360177Y0044718D01*
X0360330Y0044797D01*
X0360486Y0044873D01*
X0360643Y0044945D01*
X0360802Y0045013D01*
X0360963Y0045078D01*
X0361125Y0045138D01*
X0361289Y0045194D01*
X0361453Y0045246D01*
X0361620Y0045295D01*
X0361787Y0045339D01*
X0361955Y0045379D01*
X0362125Y0045415D01*
X0362295Y0045446D01*
X0362466Y0045474D01*
X0362637Y0045497D01*
X0362809Y0045516D01*
X0362981Y0045531D01*
X0363154Y0045542D01*
X0363327Y0045548D01*
X0363500Y0045550D01*
X0363673Y0045548D01*
X0363846Y0045542D01*
X0364019Y0045531D01*
X0364191Y0045516D01*
X0364363Y0045497D01*
X0364534Y0045474D01*
X0364705Y0045446D01*
X0364875Y0045415D01*
X0365045Y0045379D01*
X0365213Y0045339D01*
X0365380Y0045295D01*
X0365547Y0045246D01*
X0365711Y0045194D01*
X0365875Y0045138D01*
X0366037Y0045078D01*
X0366198Y0045013D01*
X0366357Y0044945D01*
X0366514Y0044873D01*
X0366670Y0044797D01*
X0366823Y0044718D01*
X0366975Y0044634D01*
X0367124Y0044547D01*
X0367272Y0044456D01*
X0367417Y0044362D01*
X0367559Y0044264D01*
X0367700Y0044163D01*
X0367837Y0044058D01*
X0367972Y0043950D01*
X0368105Y0043838D01*
X0368234Y0043724D01*
X0368361Y0043606D01*
X0368485Y0043485D01*
X0368606Y0043361D01*
X0368724Y0043234D01*
X0368838Y0043105D01*
X0368950Y0042972D01*
X0369058Y0042837D01*
X0369163Y0042700D01*
X0369264Y0042559D01*
X0369362Y0042417D01*
X0369456Y0042272D01*
X0369547Y0042124D01*
X0369634Y0041975D01*
X0369718Y0041823D01*
X0369797Y0041670D01*
X0369873Y0041514D01*
X0369945Y0041357D01*
X0370013Y0041198D01*
X0370078Y0041037D01*
X0370138Y0040875D01*
X0370194Y0040711D01*
X0370246Y0040547D01*
X0370295Y0040380D01*
X0370339Y0040213D01*
X0370379Y0040045D01*
X0370415Y0039875D01*
X0370446Y0039705D01*
X0370474Y0039534D01*
X0370497Y0039363D01*
X0370516Y0039191D01*
X0370531Y0039019D01*
X0370542Y0038846D01*
X0370548Y0038673D01*
X0370550Y0038500D01*
X0370548Y0038327D01*
X0370542Y0038154D01*
X0370531Y0037981D01*
X0370516Y0037809D01*
X0370497Y0037637D01*
X0370474Y0037466D01*
X0370446Y0037295D01*
X0370415Y0037125D01*
X0370379Y0036955D01*
X0370339Y0036787D01*
X0370295Y0036620D01*
X0370246Y0036453D01*
X0370194Y0036289D01*
X0370138Y0036125D01*
X0370078Y0035963D01*
X0370013Y0035802D01*
X0369945Y0035643D01*
X0369873Y0035486D01*
X0369797Y0035330D01*
X0369718Y0035177D01*
X0369634Y0035025D01*
X0369547Y0034876D01*
X0369456Y0034728D01*
X0369362Y0034583D01*
X0369264Y0034441D01*
X0369163Y0034300D01*
X0369058Y0034163D01*
X0368950Y0034028D01*
X0368838Y0033895D01*
X0368724Y0033766D01*
X0368606Y0033639D01*
X0368485Y0033515D01*
X0368361Y0033394D01*
X0368234Y0033276D01*
X0368105Y0033162D01*
X0367972Y0033050D01*
X0367837Y0032942D01*
X0367700Y0032837D01*
X0367559Y0032736D01*
X0367417Y0032638D01*
X0367272Y0032544D01*
X0367124Y0032453D01*
X0366975Y0032366D01*
X0366823Y0032282D01*
X0366670Y0032203D01*
X0366514Y0032127D01*
X0366357Y0032055D01*
X0366198Y0031987D01*
X0366037Y0031922D01*
X0365875Y0031862D01*
X0365711Y0031806D01*
X0365547Y0031754D01*
X0365380Y0031705D01*
X0365213Y0031661D01*
X0365045Y0031621D01*
X0364875Y0031585D01*
X0364705Y0031554D01*
X0364534Y0031526D01*
X0364363Y0031503D01*
X0364191Y0031484D01*
X0364019Y0031469D01*
X0363846Y0031458D01*
X0363673Y0031452D01*
X0363500Y0031450D01*
X0363327Y0031452D01*
X0363154Y0031458D01*
X0362981Y0031469D01*
X0362809Y0031484D01*
X0362637Y0031503D01*
X0362466Y0031526D01*
X0362295Y0031554D01*
X0362125Y0031585D01*
X0361955Y0031621D01*
X0361787Y0031661D01*
X0361620Y0031705D01*
X0361453Y0031754D01*
X0361289Y0031806D01*
X0361125Y0031862D01*
X0360963Y0031922D01*
X0360802Y0031987D01*
X0360643Y0032055D01*
X0360486Y0032127D01*
X0360330Y0032203D01*
X0360177Y0032282D01*
X0360025Y0032366D01*
X0359876Y0032453D01*
X0359728Y0032544D01*
X0359583Y0032638D01*
X0359441Y0032736D01*
X0359300Y0032837D01*
X0359163Y0032942D01*
X0359028Y0033050D01*
X0358895Y0033162D01*
X0358766Y0033276D01*
X0358639Y0033394D01*
X0358515Y0033515D01*
X0358394Y0033639D01*
X0358276Y0033766D01*
X0358162Y0033895D01*
X0358050Y0034028D01*
X0357942Y0034163D01*
X0357837Y0034300D01*
X0357736Y0034441D01*
X0357638Y0034583D01*
X0357544Y0034728D01*
X0357453Y0034876D01*
X0357366Y0035025D01*
X0357282Y0035177D01*
X0357203Y0035330D01*
X0357127Y0035486D01*
X0357055Y0035643D01*
X0356987Y0035802D01*
X0356922Y0035963D01*
X0356862Y0036125D01*
X0356806Y0036289D01*
X0356754Y0036453D01*
X0356705Y0036620D01*
X0356661Y0036787D01*
X0356621Y0036955D01*
X0356585Y0037125D01*
X0356554Y0037295D01*
X0356526Y0037466D01*
X0356503Y0037637D01*
X0356484Y0037809D01*
X0356469Y0037981D01*
X0356458Y0038154D01*
X0356452Y0038327D01*
X0356450Y0038500D01*
X0364307Y0139307D02*
X0364309Y0139454D01*
X0364315Y0139600D01*
X0364325Y0139746D01*
X0364339Y0139892D01*
X0364357Y0140038D01*
X0364378Y0140183D01*
X0364404Y0140327D01*
X0364434Y0140471D01*
X0364467Y0140613D01*
X0364504Y0140755D01*
X0364545Y0140896D01*
X0364590Y0141035D01*
X0364639Y0141174D01*
X0364691Y0141311D01*
X0364748Y0141446D01*
X0364807Y0141580D01*
X0364871Y0141712D01*
X0364938Y0141842D01*
X0365008Y0141971D01*
X0365082Y0142098D01*
X0365159Y0142222D01*
X0365240Y0142345D01*
X0365324Y0142465D01*
X0365411Y0142583D01*
X0365501Y0142698D01*
X0365594Y0142811D01*
X0365691Y0142922D01*
X0365790Y0143030D01*
X0365892Y0143135D01*
X0365997Y0143237D01*
X0366105Y0143336D01*
X0366216Y0143433D01*
X0366329Y0143526D01*
X0366444Y0143616D01*
X0366562Y0143703D01*
X0366682Y0143787D01*
X0366805Y0143868D01*
X0366929Y0143945D01*
X0367056Y0144019D01*
X0367185Y0144089D01*
X0367315Y0144156D01*
X0367447Y0144220D01*
X0367581Y0144279D01*
X0367716Y0144336D01*
X0367853Y0144388D01*
X0367992Y0144437D01*
X0368131Y0144482D01*
X0368272Y0144523D01*
X0368414Y0144560D01*
X0368556Y0144593D01*
X0368700Y0144623D01*
X0368844Y0144649D01*
X0368989Y0144670D01*
X0369135Y0144688D01*
X0369281Y0144702D01*
X0369427Y0144712D01*
X0369573Y0144718D01*
X0369720Y0144720D01*
X0369867Y0144718D01*
X0370013Y0144712D01*
X0370159Y0144702D01*
X0370305Y0144688D01*
X0370451Y0144670D01*
X0370596Y0144649D01*
X0370740Y0144623D01*
X0370884Y0144593D01*
X0371026Y0144560D01*
X0371168Y0144523D01*
X0371309Y0144482D01*
X0371448Y0144437D01*
X0371587Y0144388D01*
X0371724Y0144336D01*
X0371859Y0144279D01*
X0371993Y0144220D01*
X0372125Y0144156D01*
X0372255Y0144089D01*
X0372384Y0144019D01*
X0372511Y0143945D01*
X0372635Y0143868D01*
X0372758Y0143787D01*
X0372878Y0143703D01*
X0372996Y0143616D01*
X0373111Y0143526D01*
X0373224Y0143433D01*
X0373335Y0143336D01*
X0373443Y0143237D01*
X0373548Y0143135D01*
X0373650Y0143030D01*
X0373749Y0142922D01*
X0373846Y0142811D01*
X0373939Y0142698D01*
X0374029Y0142583D01*
X0374116Y0142465D01*
X0374200Y0142345D01*
X0374281Y0142222D01*
X0374358Y0142098D01*
X0374432Y0141971D01*
X0374502Y0141842D01*
X0374569Y0141712D01*
X0374633Y0141580D01*
X0374692Y0141446D01*
X0374749Y0141311D01*
X0374801Y0141174D01*
X0374850Y0141035D01*
X0374895Y0140896D01*
X0374936Y0140755D01*
X0374973Y0140613D01*
X0375006Y0140471D01*
X0375036Y0140327D01*
X0375062Y0140183D01*
X0375083Y0140038D01*
X0375101Y0139892D01*
X0375115Y0139746D01*
X0375125Y0139600D01*
X0375131Y0139454D01*
X0375133Y0139307D01*
X0375131Y0139160D01*
X0375125Y0139014D01*
X0375115Y0138868D01*
X0375101Y0138722D01*
X0375083Y0138576D01*
X0375062Y0138431D01*
X0375036Y0138287D01*
X0375006Y0138143D01*
X0374973Y0138001D01*
X0374936Y0137859D01*
X0374895Y0137718D01*
X0374850Y0137579D01*
X0374801Y0137440D01*
X0374749Y0137303D01*
X0374692Y0137168D01*
X0374633Y0137034D01*
X0374569Y0136902D01*
X0374502Y0136772D01*
X0374432Y0136643D01*
X0374358Y0136516D01*
X0374281Y0136392D01*
X0374200Y0136269D01*
X0374116Y0136149D01*
X0374029Y0136031D01*
X0373939Y0135916D01*
X0373846Y0135803D01*
X0373749Y0135692D01*
X0373650Y0135584D01*
X0373548Y0135479D01*
X0373443Y0135377D01*
X0373335Y0135278D01*
X0373224Y0135181D01*
X0373111Y0135088D01*
X0372996Y0134998D01*
X0372878Y0134911D01*
X0372758Y0134827D01*
X0372635Y0134746D01*
X0372511Y0134669D01*
X0372384Y0134595D01*
X0372255Y0134525D01*
X0372125Y0134458D01*
X0371993Y0134394D01*
X0371859Y0134335D01*
X0371724Y0134278D01*
X0371587Y0134226D01*
X0371448Y0134177D01*
X0371309Y0134132D01*
X0371168Y0134091D01*
X0371026Y0134054D01*
X0370884Y0134021D01*
X0370740Y0133991D01*
X0370596Y0133965D01*
X0370451Y0133944D01*
X0370305Y0133926D01*
X0370159Y0133912D01*
X0370013Y0133902D01*
X0369867Y0133896D01*
X0369720Y0133894D01*
X0369573Y0133896D01*
X0369427Y0133902D01*
X0369281Y0133912D01*
X0369135Y0133926D01*
X0368989Y0133944D01*
X0368844Y0133965D01*
X0368700Y0133991D01*
X0368556Y0134021D01*
X0368414Y0134054D01*
X0368272Y0134091D01*
X0368131Y0134132D01*
X0367992Y0134177D01*
X0367853Y0134226D01*
X0367716Y0134278D01*
X0367581Y0134335D01*
X0367447Y0134394D01*
X0367315Y0134458D01*
X0367185Y0134525D01*
X0367056Y0134595D01*
X0366929Y0134669D01*
X0366805Y0134746D01*
X0366682Y0134827D01*
X0366562Y0134911D01*
X0366444Y0134998D01*
X0366329Y0135088D01*
X0366216Y0135181D01*
X0366105Y0135278D01*
X0365997Y0135377D01*
X0365892Y0135479D01*
X0365790Y0135584D01*
X0365691Y0135692D01*
X0365594Y0135803D01*
X0365501Y0135916D01*
X0365411Y0136031D01*
X0365324Y0136149D01*
X0365240Y0136269D01*
X0365159Y0136392D01*
X0365082Y0136516D01*
X0365008Y0136643D01*
X0364938Y0136772D01*
X0364871Y0136902D01*
X0364807Y0137034D01*
X0364748Y0137168D01*
X0364691Y0137303D01*
X0364639Y0137440D01*
X0364590Y0137579D01*
X0364545Y0137718D01*
X0364504Y0137859D01*
X0364467Y0138001D01*
X0364434Y0138143D01*
X0364404Y0138287D01*
X0364378Y0138431D01*
X0364357Y0138576D01*
X0364339Y0138722D01*
X0364325Y0138868D01*
X0364315Y0139014D01*
X0364309Y0139160D01*
X0364307Y0139307D01*
X0322201Y0323500D02*
X0322203Y0323658D01*
X0322209Y0323816D01*
X0322219Y0323974D01*
X0322233Y0324132D01*
X0322251Y0324289D01*
X0322272Y0324446D01*
X0322298Y0324602D01*
X0322328Y0324758D01*
X0322361Y0324913D01*
X0322399Y0325066D01*
X0322440Y0325219D01*
X0322485Y0325371D01*
X0322534Y0325522D01*
X0322587Y0325671D01*
X0322643Y0325819D01*
X0322703Y0325965D01*
X0322767Y0326110D01*
X0322835Y0326253D01*
X0322906Y0326395D01*
X0322980Y0326535D01*
X0323058Y0326672D01*
X0323140Y0326808D01*
X0323224Y0326942D01*
X0323313Y0327073D01*
X0323404Y0327202D01*
X0323499Y0327329D01*
X0323596Y0327454D01*
X0323697Y0327576D01*
X0323801Y0327695D01*
X0323908Y0327812D01*
X0324018Y0327926D01*
X0324131Y0328037D01*
X0324246Y0328146D01*
X0324364Y0328251D01*
X0324485Y0328353D01*
X0324608Y0328453D01*
X0324734Y0328549D01*
X0324862Y0328642D01*
X0324992Y0328732D01*
X0325125Y0328818D01*
X0325260Y0328902D01*
X0325396Y0328981D01*
X0325535Y0329058D01*
X0325676Y0329130D01*
X0325818Y0329200D01*
X0325962Y0329265D01*
X0326108Y0329327D01*
X0326255Y0329385D01*
X0326404Y0329440D01*
X0326554Y0329491D01*
X0326705Y0329538D01*
X0326857Y0329581D01*
X0327010Y0329620D01*
X0327165Y0329656D01*
X0327320Y0329687D01*
X0327476Y0329715D01*
X0327632Y0329739D01*
X0327789Y0329759D01*
X0327947Y0329775D01*
X0328104Y0329787D01*
X0328263Y0329795D01*
X0328421Y0329799D01*
X0328579Y0329799D01*
X0328737Y0329795D01*
X0328896Y0329787D01*
X0329053Y0329775D01*
X0329211Y0329759D01*
X0329368Y0329739D01*
X0329524Y0329715D01*
X0329680Y0329687D01*
X0329835Y0329656D01*
X0329990Y0329620D01*
X0330143Y0329581D01*
X0330295Y0329538D01*
X0330446Y0329491D01*
X0330596Y0329440D01*
X0330745Y0329385D01*
X0330892Y0329327D01*
X0331038Y0329265D01*
X0331182Y0329200D01*
X0331324Y0329130D01*
X0331465Y0329058D01*
X0331604Y0328981D01*
X0331740Y0328902D01*
X0331875Y0328818D01*
X0332008Y0328732D01*
X0332138Y0328642D01*
X0332266Y0328549D01*
X0332392Y0328453D01*
X0332515Y0328353D01*
X0332636Y0328251D01*
X0332754Y0328146D01*
X0332869Y0328037D01*
X0332982Y0327926D01*
X0333092Y0327812D01*
X0333199Y0327695D01*
X0333303Y0327576D01*
X0333404Y0327454D01*
X0333501Y0327329D01*
X0333596Y0327202D01*
X0333687Y0327073D01*
X0333776Y0326942D01*
X0333860Y0326808D01*
X0333942Y0326672D01*
X0334020Y0326535D01*
X0334094Y0326395D01*
X0334165Y0326253D01*
X0334233Y0326110D01*
X0334297Y0325965D01*
X0334357Y0325819D01*
X0334413Y0325671D01*
X0334466Y0325522D01*
X0334515Y0325371D01*
X0334560Y0325219D01*
X0334601Y0325066D01*
X0334639Y0324913D01*
X0334672Y0324758D01*
X0334702Y0324602D01*
X0334728Y0324446D01*
X0334749Y0324289D01*
X0334767Y0324132D01*
X0334781Y0323974D01*
X0334791Y0323816D01*
X0334797Y0323658D01*
X0334799Y0323500D01*
X0334797Y0323342D01*
X0334791Y0323184D01*
X0334781Y0323026D01*
X0334767Y0322868D01*
X0334749Y0322711D01*
X0334728Y0322554D01*
X0334702Y0322398D01*
X0334672Y0322242D01*
X0334639Y0322087D01*
X0334601Y0321934D01*
X0334560Y0321781D01*
X0334515Y0321629D01*
X0334466Y0321478D01*
X0334413Y0321329D01*
X0334357Y0321181D01*
X0334297Y0321035D01*
X0334233Y0320890D01*
X0334165Y0320747D01*
X0334094Y0320605D01*
X0334020Y0320465D01*
X0333942Y0320328D01*
X0333860Y0320192D01*
X0333776Y0320058D01*
X0333687Y0319927D01*
X0333596Y0319798D01*
X0333501Y0319671D01*
X0333404Y0319546D01*
X0333303Y0319424D01*
X0333199Y0319305D01*
X0333092Y0319188D01*
X0332982Y0319074D01*
X0332869Y0318963D01*
X0332754Y0318854D01*
X0332636Y0318749D01*
X0332515Y0318647D01*
X0332392Y0318547D01*
X0332266Y0318451D01*
X0332138Y0318358D01*
X0332008Y0318268D01*
X0331875Y0318182D01*
X0331740Y0318098D01*
X0331604Y0318019D01*
X0331465Y0317942D01*
X0331324Y0317870D01*
X0331182Y0317800D01*
X0331038Y0317735D01*
X0330892Y0317673D01*
X0330745Y0317615D01*
X0330596Y0317560D01*
X0330446Y0317509D01*
X0330295Y0317462D01*
X0330143Y0317419D01*
X0329990Y0317380D01*
X0329835Y0317344D01*
X0329680Y0317313D01*
X0329524Y0317285D01*
X0329368Y0317261D01*
X0329211Y0317241D01*
X0329053Y0317225D01*
X0328896Y0317213D01*
X0328737Y0317205D01*
X0328579Y0317201D01*
X0328421Y0317201D01*
X0328263Y0317205D01*
X0328104Y0317213D01*
X0327947Y0317225D01*
X0327789Y0317241D01*
X0327632Y0317261D01*
X0327476Y0317285D01*
X0327320Y0317313D01*
X0327165Y0317344D01*
X0327010Y0317380D01*
X0326857Y0317419D01*
X0326705Y0317462D01*
X0326554Y0317509D01*
X0326404Y0317560D01*
X0326255Y0317615D01*
X0326108Y0317673D01*
X0325962Y0317735D01*
X0325818Y0317800D01*
X0325676Y0317870D01*
X0325535Y0317942D01*
X0325396Y0318019D01*
X0325260Y0318098D01*
X0325125Y0318182D01*
X0324992Y0318268D01*
X0324862Y0318358D01*
X0324734Y0318451D01*
X0324608Y0318547D01*
X0324485Y0318647D01*
X0324364Y0318749D01*
X0324246Y0318854D01*
X0324131Y0318963D01*
X0324018Y0319074D01*
X0323908Y0319188D01*
X0323801Y0319305D01*
X0323697Y0319424D01*
X0323596Y0319546D01*
X0323499Y0319671D01*
X0323404Y0319798D01*
X0323313Y0319927D01*
X0323224Y0320058D01*
X0323140Y0320192D01*
X0323058Y0320328D01*
X0322980Y0320465D01*
X0322906Y0320605D01*
X0322835Y0320747D01*
X0322767Y0320890D01*
X0322703Y0321035D01*
X0322643Y0321181D01*
X0322587Y0321329D01*
X0322534Y0321478D01*
X0322485Y0321629D01*
X0322440Y0321781D01*
X0322399Y0321934D01*
X0322361Y0322087D01*
X0322328Y0322242D01*
X0322298Y0322398D01*
X0322272Y0322554D01*
X0322251Y0322711D01*
X0322233Y0322868D01*
X0322219Y0323026D01*
X0322209Y0323184D01*
X0322203Y0323342D01*
X0322201Y0323500D01*
X0356450Y0363500D02*
X0356452Y0363673D01*
X0356458Y0363846D01*
X0356469Y0364019D01*
X0356484Y0364191D01*
X0356503Y0364363D01*
X0356526Y0364534D01*
X0356554Y0364705D01*
X0356585Y0364875D01*
X0356621Y0365045D01*
X0356661Y0365213D01*
X0356705Y0365380D01*
X0356754Y0365547D01*
X0356806Y0365711D01*
X0356862Y0365875D01*
X0356922Y0366037D01*
X0356987Y0366198D01*
X0357055Y0366357D01*
X0357127Y0366514D01*
X0357203Y0366670D01*
X0357282Y0366823D01*
X0357366Y0366975D01*
X0357453Y0367124D01*
X0357544Y0367272D01*
X0357638Y0367417D01*
X0357736Y0367559D01*
X0357837Y0367700D01*
X0357942Y0367837D01*
X0358050Y0367972D01*
X0358162Y0368105D01*
X0358276Y0368234D01*
X0358394Y0368361D01*
X0358515Y0368485D01*
X0358639Y0368606D01*
X0358766Y0368724D01*
X0358895Y0368838D01*
X0359028Y0368950D01*
X0359163Y0369058D01*
X0359300Y0369163D01*
X0359441Y0369264D01*
X0359583Y0369362D01*
X0359728Y0369456D01*
X0359876Y0369547D01*
X0360025Y0369634D01*
X0360177Y0369718D01*
X0360330Y0369797D01*
X0360486Y0369873D01*
X0360643Y0369945D01*
X0360802Y0370013D01*
X0360963Y0370078D01*
X0361125Y0370138D01*
X0361289Y0370194D01*
X0361453Y0370246D01*
X0361620Y0370295D01*
X0361787Y0370339D01*
X0361955Y0370379D01*
X0362125Y0370415D01*
X0362295Y0370446D01*
X0362466Y0370474D01*
X0362637Y0370497D01*
X0362809Y0370516D01*
X0362981Y0370531D01*
X0363154Y0370542D01*
X0363327Y0370548D01*
X0363500Y0370550D01*
X0363673Y0370548D01*
X0363846Y0370542D01*
X0364019Y0370531D01*
X0364191Y0370516D01*
X0364363Y0370497D01*
X0364534Y0370474D01*
X0364705Y0370446D01*
X0364875Y0370415D01*
X0365045Y0370379D01*
X0365213Y0370339D01*
X0365380Y0370295D01*
X0365547Y0370246D01*
X0365711Y0370194D01*
X0365875Y0370138D01*
X0366037Y0370078D01*
X0366198Y0370013D01*
X0366357Y0369945D01*
X0366514Y0369873D01*
X0366670Y0369797D01*
X0366823Y0369718D01*
X0366975Y0369634D01*
X0367124Y0369547D01*
X0367272Y0369456D01*
X0367417Y0369362D01*
X0367559Y0369264D01*
X0367700Y0369163D01*
X0367837Y0369058D01*
X0367972Y0368950D01*
X0368105Y0368838D01*
X0368234Y0368724D01*
X0368361Y0368606D01*
X0368485Y0368485D01*
X0368606Y0368361D01*
X0368724Y0368234D01*
X0368838Y0368105D01*
X0368950Y0367972D01*
X0369058Y0367837D01*
X0369163Y0367700D01*
X0369264Y0367559D01*
X0369362Y0367417D01*
X0369456Y0367272D01*
X0369547Y0367124D01*
X0369634Y0366975D01*
X0369718Y0366823D01*
X0369797Y0366670D01*
X0369873Y0366514D01*
X0369945Y0366357D01*
X0370013Y0366198D01*
X0370078Y0366037D01*
X0370138Y0365875D01*
X0370194Y0365711D01*
X0370246Y0365547D01*
X0370295Y0365380D01*
X0370339Y0365213D01*
X0370379Y0365045D01*
X0370415Y0364875D01*
X0370446Y0364705D01*
X0370474Y0364534D01*
X0370497Y0364363D01*
X0370516Y0364191D01*
X0370531Y0364019D01*
X0370542Y0363846D01*
X0370548Y0363673D01*
X0370550Y0363500D01*
X0370548Y0363327D01*
X0370542Y0363154D01*
X0370531Y0362981D01*
X0370516Y0362809D01*
X0370497Y0362637D01*
X0370474Y0362466D01*
X0370446Y0362295D01*
X0370415Y0362125D01*
X0370379Y0361955D01*
X0370339Y0361787D01*
X0370295Y0361620D01*
X0370246Y0361453D01*
X0370194Y0361289D01*
X0370138Y0361125D01*
X0370078Y0360963D01*
X0370013Y0360802D01*
X0369945Y0360643D01*
X0369873Y0360486D01*
X0369797Y0360330D01*
X0369718Y0360177D01*
X0369634Y0360025D01*
X0369547Y0359876D01*
X0369456Y0359728D01*
X0369362Y0359583D01*
X0369264Y0359441D01*
X0369163Y0359300D01*
X0369058Y0359163D01*
X0368950Y0359028D01*
X0368838Y0358895D01*
X0368724Y0358766D01*
X0368606Y0358639D01*
X0368485Y0358515D01*
X0368361Y0358394D01*
X0368234Y0358276D01*
X0368105Y0358162D01*
X0367972Y0358050D01*
X0367837Y0357942D01*
X0367700Y0357837D01*
X0367559Y0357736D01*
X0367417Y0357638D01*
X0367272Y0357544D01*
X0367124Y0357453D01*
X0366975Y0357366D01*
X0366823Y0357282D01*
X0366670Y0357203D01*
X0366514Y0357127D01*
X0366357Y0357055D01*
X0366198Y0356987D01*
X0366037Y0356922D01*
X0365875Y0356862D01*
X0365711Y0356806D01*
X0365547Y0356754D01*
X0365380Y0356705D01*
X0365213Y0356661D01*
X0365045Y0356621D01*
X0364875Y0356585D01*
X0364705Y0356554D01*
X0364534Y0356526D01*
X0364363Y0356503D01*
X0364191Y0356484D01*
X0364019Y0356469D01*
X0363846Y0356458D01*
X0363673Y0356452D01*
X0363500Y0356450D01*
X0363327Y0356452D01*
X0363154Y0356458D01*
X0362981Y0356469D01*
X0362809Y0356484D01*
X0362637Y0356503D01*
X0362466Y0356526D01*
X0362295Y0356554D01*
X0362125Y0356585D01*
X0361955Y0356621D01*
X0361787Y0356661D01*
X0361620Y0356705D01*
X0361453Y0356754D01*
X0361289Y0356806D01*
X0361125Y0356862D01*
X0360963Y0356922D01*
X0360802Y0356987D01*
X0360643Y0357055D01*
X0360486Y0357127D01*
X0360330Y0357203D01*
X0360177Y0357282D01*
X0360025Y0357366D01*
X0359876Y0357453D01*
X0359728Y0357544D01*
X0359583Y0357638D01*
X0359441Y0357736D01*
X0359300Y0357837D01*
X0359163Y0357942D01*
X0359028Y0358050D01*
X0358895Y0358162D01*
X0358766Y0358276D01*
X0358639Y0358394D01*
X0358515Y0358515D01*
X0358394Y0358639D01*
X0358276Y0358766D01*
X0358162Y0358895D01*
X0358050Y0359028D01*
X0357942Y0359163D01*
X0357837Y0359300D01*
X0357736Y0359441D01*
X0357638Y0359583D01*
X0357544Y0359728D01*
X0357453Y0359876D01*
X0357366Y0360025D01*
X0357282Y0360177D01*
X0357203Y0360330D01*
X0357127Y0360486D01*
X0357055Y0360643D01*
X0356987Y0360802D01*
X0356922Y0360963D01*
X0356862Y0361125D01*
X0356806Y0361289D01*
X0356754Y0361453D01*
X0356705Y0361620D01*
X0356661Y0361787D01*
X0356621Y0361955D01*
X0356585Y0362125D01*
X0356554Y0362295D01*
X0356526Y0362466D01*
X0356503Y0362637D01*
X0356484Y0362809D01*
X0356469Y0362981D01*
X0356458Y0363154D01*
X0356452Y0363327D01*
X0356450Y0363500D01*
X0364307Y0332220D02*
X0364309Y0332367D01*
X0364315Y0332513D01*
X0364325Y0332659D01*
X0364339Y0332805D01*
X0364357Y0332951D01*
X0364378Y0333096D01*
X0364404Y0333240D01*
X0364434Y0333384D01*
X0364467Y0333526D01*
X0364504Y0333668D01*
X0364545Y0333809D01*
X0364590Y0333948D01*
X0364639Y0334087D01*
X0364691Y0334224D01*
X0364748Y0334359D01*
X0364807Y0334493D01*
X0364871Y0334625D01*
X0364938Y0334755D01*
X0365008Y0334884D01*
X0365082Y0335011D01*
X0365159Y0335135D01*
X0365240Y0335258D01*
X0365324Y0335378D01*
X0365411Y0335496D01*
X0365501Y0335611D01*
X0365594Y0335724D01*
X0365691Y0335835D01*
X0365790Y0335943D01*
X0365892Y0336048D01*
X0365997Y0336150D01*
X0366105Y0336249D01*
X0366216Y0336346D01*
X0366329Y0336439D01*
X0366444Y0336529D01*
X0366562Y0336616D01*
X0366682Y0336700D01*
X0366805Y0336781D01*
X0366929Y0336858D01*
X0367056Y0336932D01*
X0367185Y0337002D01*
X0367315Y0337069D01*
X0367447Y0337133D01*
X0367581Y0337192D01*
X0367716Y0337249D01*
X0367853Y0337301D01*
X0367992Y0337350D01*
X0368131Y0337395D01*
X0368272Y0337436D01*
X0368414Y0337473D01*
X0368556Y0337506D01*
X0368700Y0337536D01*
X0368844Y0337562D01*
X0368989Y0337583D01*
X0369135Y0337601D01*
X0369281Y0337615D01*
X0369427Y0337625D01*
X0369573Y0337631D01*
X0369720Y0337633D01*
X0369867Y0337631D01*
X0370013Y0337625D01*
X0370159Y0337615D01*
X0370305Y0337601D01*
X0370451Y0337583D01*
X0370596Y0337562D01*
X0370740Y0337536D01*
X0370884Y0337506D01*
X0371026Y0337473D01*
X0371168Y0337436D01*
X0371309Y0337395D01*
X0371448Y0337350D01*
X0371587Y0337301D01*
X0371724Y0337249D01*
X0371859Y0337192D01*
X0371993Y0337133D01*
X0372125Y0337069D01*
X0372255Y0337002D01*
X0372384Y0336932D01*
X0372511Y0336858D01*
X0372635Y0336781D01*
X0372758Y0336700D01*
X0372878Y0336616D01*
X0372996Y0336529D01*
X0373111Y0336439D01*
X0373224Y0336346D01*
X0373335Y0336249D01*
X0373443Y0336150D01*
X0373548Y0336048D01*
X0373650Y0335943D01*
X0373749Y0335835D01*
X0373846Y0335724D01*
X0373939Y0335611D01*
X0374029Y0335496D01*
X0374116Y0335378D01*
X0374200Y0335258D01*
X0374281Y0335135D01*
X0374358Y0335011D01*
X0374432Y0334884D01*
X0374502Y0334755D01*
X0374569Y0334625D01*
X0374633Y0334493D01*
X0374692Y0334359D01*
X0374749Y0334224D01*
X0374801Y0334087D01*
X0374850Y0333948D01*
X0374895Y0333809D01*
X0374936Y0333668D01*
X0374973Y0333526D01*
X0375006Y0333384D01*
X0375036Y0333240D01*
X0375062Y0333096D01*
X0375083Y0332951D01*
X0375101Y0332805D01*
X0375115Y0332659D01*
X0375125Y0332513D01*
X0375131Y0332367D01*
X0375133Y0332220D01*
X0375131Y0332073D01*
X0375125Y0331927D01*
X0375115Y0331781D01*
X0375101Y0331635D01*
X0375083Y0331489D01*
X0375062Y0331344D01*
X0375036Y0331200D01*
X0375006Y0331056D01*
X0374973Y0330914D01*
X0374936Y0330772D01*
X0374895Y0330631D01*
X0374850Y0330492D01*
X0374801Y0330353D01*
X0374749Y0330216D01*
X0374692Y0330081D01*
X0374633Y0329947D01*
X0374569Y0329815D01*
X0374502Y0329685D01*
X0374432Y0329556D01*
X0374358Y0329429D01*
X0374281Y0329305D01*
X0374200Y0329182D01*
X0374116Y0329062D01*
X0374029Y0328944D01*
X0373939Y0328829D01*
X0373846Y0328716D01*
X0373749Y0328605D01*
X0373650Y0328497D01*
X0373548Y0328392D01*
X0373443Y0328290D01*
X0373335Y0328191D01*
X0373224Y0328094D01*
X0373111Y0328001D01*
X0372996Y0327911D01*
X0372878Y0327824D01*
X0372758Y0327740D01*
X0372635Y0327659D01*
X0372511Y0327582D01*
X0372384Y0327508D01*
X0372255Y0327438D01*
X0372125Y0327371D01*
X0371993Y0327307D01*
X0371859Y0327248D01*
X0371724Y0327191D01*
X0371587Y0327139D01*
X0371448Y0327090D01*
X0371309Y0327045D01*
X0371168Y0327004D01*
X0371026Y0326967D01*
X0370884Y0326934D01*
X0370740Y0326904D01*
X0370596Y0326878D01*
X0370451Y0326857D01*
X0370305Y0326839D01*
X0370159Y0326825D01*
X0370013Y0326815D01*
X0369867Y0326809D01*
X0369720Y0326807D01*
X0369573Y0326809D01*
X0369427Y0326815D01*
X0369281Y0326825D01*
X0369135Y0326839D01*
X0368989Y0326857D01*
X0368844Y0326878D01*
X0368700Y0326904D01*
X0368556Y0326934D01*
X0368414Y0326967D01*
X0368272Y0327004D01*
X0368131Y0327045D01*
X0367992Y0327090D01*
X0367853Y0327139D01*
X0367716Y0327191D01*
X0367581Y0327248D01*
X0367447Y0327307D01*
X0367315Y0327371D01*
X0367185Y0327438D01*
X0367056Y0327508D01*
X0366929Y0327582D01*
X0366805Y0327659D01*
X0366682Y0327740D01*
X0366562Y0327824D01*
X0366444Y0327911D01*
X0366329Y0328001D01*
X0366216Y0328094D01*
X0366105Y0328191D01*
X0365997Y0328290D01*
X0365892Y0328392D01*
X0365790Y0328497D01*
X0365691Y0328605D01*
X0365594Y0328716D01*
X0365501Y0328829D01*
X0365411Y0328944D01*
X0365324Y0329062D01*
X0365240Y0329182D01*
X0365159Y0329305D01*
X0365082Y0329429D01*
X0365008Y0329556D01*
X0364938Y0329685D01*
X0364871Y0329815D01*
X0364807Y0329947D01*
X0364748Y0330081D01*
X0364691Y0330216D01*
X0364639Y0330353D01*
X0364590Y0330492D01*
X0364545Y0330631D01*
X0364504Y0330772D01*
X0364467Y0330914D01*
X0364434Y0331056D01*
X0364404Y0331200D01*
X0364378Y0331344D01*
X0364357Y0331489D01*
X0364339Y0331635D01*
X0364325Y0331781D01*
X0364315Y0331927D01*
X0364309Y0332073D01*
X0364307Y0332220D01*
X0272201Y0323500D02*
X0272203Y0323658D01*
X0272209Y0323816D01*
X0272219Y0323974D01*
X0272233Y0324132D01*
X0272251Y0324289D01*
X0272272Y0324446D01*
X0272298Y0324602D01*
X0272328Y0324758D01*
X0272361Y0324913D01*
X0272399Y0325066D01*
X0272440Y0325219D01*
X0272485Y0325371D01*
X0272534Y0325522D01*
X0272587Y0325671D01*
X0272643Y0325819D01*
X0272703Y0325965D01*
X0272767Y0326110D01*
X0272835Y0326253D01*
X0272906Y0326395D01*
X0272980Y0326535D01*
X0273058Y0326672D01*
X0273140Y0326808D01*
X0273224Y0326942D01*
X0273313Y0327073D01*
X0273404Y0327202D01*
X0273499Y0327329D01*
X0273596Y0327454D01*
X0273697Y0327576D01*
X0273801Y0327695D01*
X0273908Y0327812D01*
X0274018Y0327926D01*
X0274131Y0328037D01*
X0274246Y0328146D01*
X0274364Y0328251D01*
X0274485Y0328353D01*
X0274608Y0328453D01*
X0274734Y0328549D01*
X0274862Y0328642D01*
X0274992Y0328732D01*
X0275125Y0328818D01*
X0275260Y0328902D01*
X0275396Y0328981D01*
X0275535Y0329058D01*
X0275676Y0329130D01*
X0275818Y0329200D01*
X0275962Y0329265D01*
X0276108Y0329327D01*
X0276255Y0329385D01*
X0276404Y0329440D01*
X0276554Y0329491D01*
X0276705Y0329538D01*
X0276857Y0329581D01*
X0277010Y0329620D01*
X0277165Y0329656D01*
X0277320Y0329687D01*
X0277476Y0329715D01*
X0277632Y0329739D01*
X0277789Y0329759D01*
X0277947Y0329775D01*
X0278104Y0329787D01*
X0278263Y0329795D01*
X0278421Y0329799D01*
X0278579Y0329799D01*
X0278737Y0329795D01*
X0278896Y0329787D01*
X0279053Y0329775D01*
X0279211Y0329759D01*
X0279368Y0329739D01*
X0279524Y0329715D01*
X0279680Y0329687D01*
X0279835Y0329656D01*
X0279990Y0329620D01*
X0280143Y0329581D01*
X0280295Y0329538D01*
X0280446Y0329491D01*
X0280596Y0329440D01*
X0280745Y0329385D01*
X0280892Y0329327D01*
X0281038Y0329265D01*
X0281182Y0329200D01*
X0281324Y0329130D01*
X0281465Y0329058D01*
X0281604Y0328981D01*
X0281740Y0328902D01*
X0281875Y0328818D01*
X0282008Y0328732D01*
X0282138Y0328642D01*
X0282266Y0328549D01*
X0282392Y0328453D01*
X0282515Y0328353D01*
X0282636Y0328251D01*
X0282754Y0328146D01*
X0282869Y0328037D01*
X0282982Y0327926D01*
X0283092Y0327812D01*
X0283199Y0327695D01*
X0283303Y0327576D01*
X0283404Y0327454D01*
X0283501Y0327329D01*
X0283596Y0327202D01*
X0283687Y0327073D01*
X0283776Y0326942D01*
X0283860Y0326808D01*
X0283942Y0326672D01*
X0284020Y0326535D01*
X0284094Y0326395D01*
X0284165Y0326253D01*
X0284233Y0326110D01*
X0284297Y0325965D01*
X0284357Y0325819D01*
X0284413Y0325671D01*
X0284466Y0325522D01*
X0284515Y0325371D01*
X0284560Y0325219D01*
X0284601Y0325066D01*
X0284639Y0324913D01*
X0284672Y0324758D01*
X0284702Y0324602D01*
X0284728Y0324446D01*
X0284749Y0324289D01*
X0284767Y0324132D01*
X0284781Y0323974D01*
X0284791Y0323816D01*
X0284797Y0323658D01*
X0284799Y0323500D01*
X0284797Y0323342D01*
X0284791Y0323184D01*
X0284781Y0323026D01*
X0284767Y0322868D01*
X0284749Y0322711D01*
X0284728Y0322554D01*
X0284702Y0322398D01*
X0284672Y0322242D01*
X0284639Y0322087D01*
X0284601Y0321934D01*
X0284560Y0321781D01*
X0284515Y0321629D01*
X0284466Y0321478D01*
X0284413Y0321329D01*
X0284357Y0321181D01*
X0284297Y0321035D01*
X0284233Y0320890D01*
X0284165Y0320747D01*
X0284094Y0320605D01*
X0284020Y0320465D01*
X0283942Y0320328D01*
X0283860Y0320192D01*
X0283776Y0320058D01*
X0283687Y0319927D01*
X0283596Y0319798D01*
X0283501Y0319671D01*
X0283404Y0319546D01*
X0283303Y0319424D01*
X0283199Y0319305D01*
X0283092Y0319188D01*
X0282982Y0319074D01*
X0282869Y0318963D01*
X0282754Y0318854D01*
X0282636Y0318749D01*
X0282515Y0318647D01*
X0282392Y0318547D01*
X0282266Y0318451D01*
X0282138Y0318358D01*
X0282008Y0318268D01*
X0281875Y0318182D01*
X0281740Y0318098D01*
X0281604Y0318019D01*
X0281465Y0317942D01*
X0281324Y0317870D01*
X0281182Y0317800D01*
X0281038Y0317735D01*
X0280892Y0317673D01*
X0280745Y0317615D01*
X0280596Y0317560D01*
X0280446Y0317509D01*
X0280295Y0317462D01*
X0280143Y0317419D01*
X0279990Y0317380D01*
X0279835Y0317344D01*
X0279680Y0317313D01*
X0279524Y0317285D01*
X0279368Y0317261D01*
X0279211Y0317241D01*
X0279053Y0317225D01*
X0278896Y0317213D01*
X0278737Y0317205D01*
X0278579Y0317201D01*
X0278421Y0317201D01*
X0278263Y0317205D01*
X0278104Y0317213D01*
X0277947Y0317225D01*
X0277789Y0317241D01*
X0277632Y0317261D01*
X0277476Y0317285D01*
X0277320Y0317313D01*
X0277165Y0317344D01*
X0277010Y0317380D01*
X0276857Y0317419D01*
X0276705Y0317462D01*
X0276554Y0317509D01*
X0276404Y0317560D01*
X0276255Y0317615D01*
X0276108Y0317673D01*
X0275962Y0317735D01*
X0275818Y0317800D01*
X0275676Y0317870D01*
X0275535Y0317942D01*
X0275396Y0318019D01*
X0275260Y0318098D01*
X0275125Y0318182D01*
X0274992Y0318268D01*
X0274862Y0318358D01*
X0274734Y0318451D01*
X0274608Y0318547D01*
X0274485Y0318647D01*
X0274364Y0318749D01*
X0274246Y0318854D01*
X0274131Y0318963D01*
X0274018Y0319074D01*
X0273908Y0319188D01*
X0273801Y0319305D01*
X0273697Y0319424D01*
X0273596Y0319546D01*
X0273499Y0319671D01*
X0273404Y0319798D01*
X0273313Y0319927D01*
X0273224Y0320058D01*
X0273140Y0320192D01*
X0273058Y0320328D01*
X0272980Y0320465D01*
X0272906Y0320605D01*
X0272835Y0320747D01*
X0272767Y0320890D01*
X0272703Y0321035D01*
X0272643Y0321181D01*
X0272587Y0321329D01*
X0272534Y0321478D01*
X0272485Y0321629D01*
X0272440Y0321781D01*
X0272399Y0321934D01*
X0272361Y0322087D01*
X0272328Y0322242D01*
X0272298Y0322398D01*
X0272272Y0322554D01*
X0272251Y0322711D01*
X0272233Y0322868D01*
X0272219Y0323026D01*
X0272209Y0323184D01*
X0272203Y0323342D01*
X0272201Y0323500D01*
X0135961Y0332220D02*
X0135963Y0332367D01*
X0135969Y0332513D01*
X0135979Y0332659D01*
X0135993Y0332805D01*
X0136011Y0332951D01*
X0136032Y0333096D01*
X0136058Y0333240D01*
X0136088Y0333384D01*
X0136121Y0333526D01*
X0136158Y0333668D01*
X0136199Y0333809D01*
X0136244Y0333948D01*
X0136293Y0334087D01*
X0136345Y0334224D01*
X0136402Y0334359D01*
X0136461Y0334493D01*
X0136525Y0334625D01*
X0136592Y0334755D01*
X0136662Y0334884D01*
X0136736Y0335011D01*
X0136813Y0335135D01*
X0136894Y0335258D01*
X0136978Y0335378D01*
X0137065Y0335496D01*
X0137155Y0335611D01*
X0137248Y0335724D01*
X0137345Y0335835D01*
X0137444Y0335943D01*
X0137546Y0336048D01*
X0137651Y0336150D01*
X0137759Y0336249D01*
X0137870Y0336346D01*
X0137983Y0336439D01*
X0138098Y0336529D01*
X0138216Y0336616D01*
X0138336Y0336700D01*
X0138459Y0336781D01*
X0138583Y0336858D01*
X0138710Y0336932D01*
X0138839Y0337002D01*
X0138969Y0337069D01*
X0139101Y0337133D01*
X0139235Y0337192D01*
X0139370Y0337249D01*
X0139507Y0337301D01*
X0139646Y0337350D01*
X0139785Y0337395D01*
X0139926Y0337436D01*
X0140068Y0337473D01*
X0140210Y0337506D01*
X0140354Y0337536D01*
X0140498Y0337562D01*
X0140643Y0337583D01*
X0140789Y0337601D01*
X0140935Y0337615D01*
X0141081Y0337625D01*
X0141227Y0337631D01*
X0141374Y0337633D01*
X0141521Y0337631D01*
X0141667Y0337625D01*
X0141813Y0337615D01*
X0141959Y0337601D01*
X0142105Y0337583D01*
X0142250Y0337562D01*
X0142394Y0337536D01*
X0142538Y0337506D01*
X0142680Y0337473D01*
X0142822Y0337436D01*
X0142963Y0337395D01*
X0143102Y0337350D01*
X0143241Y0337301D01*
X0143378Y0337249D01*
X0143513Y0337192D01*
X0143647Y0337133D01*
X0143779Y0337069D01*
X0143909Y0337002D01*
X0144038Y0336932D01*
X0144165Y0336858D01*
X0144289Y0336781D01*
X0144412Y0336700D01*
X0144532Y0336616D01*
X0144650Y0336529D01*
X0144765Y0336439D01*
X0144878Y0336346D01*
X0144989Y0336249D01*
X0145097Y0336150D01*
X0145202Y0336048D01*
X0145304Y0335943D01*
X0145403Y0335835D01*
X0145500Y0335724D01*
X0145593Y0335611D01*
X0145683Y0335496D01*
X0145770Y0335378D01*
X0145854Y0335258D01*
X0145935Y0335135D01*
X0146012Y0335011D01*
X0146086Y0334884D01*
X0146156Y0334755D01*
X0146223Y0334625D01*
X0146287Y0334493D01*
X0146346Y0334359D01*
X0146403Y0334224D01*
X0146455Y0334087D01*
X0146504Y0333948D01*
X0146549Y0333809D01*
X0146590Y0333668D01*
X0146627Y0333526D01*
X0146660Y0333384D01*
X0146690Y0333240D01*
X0146716Y0333096D01*
X0146737Y0332951D01*
X0146755Y0332805D01*
X0146769Y0332659D01*
X0146779Y0332513D01*
X0146785Y0332367D01*
X0146787Y0332220D01*
X0146785Y0332073D01*
X0146779Y0331927D01*
X0146769Y0331781D01*
X0146755Y0331635D01*
X0146737Y0331489D01*
X0146716Y0331344D01*
X0146690Y0331200D01*
X0146660Y0331056D01*
X0146627Y0330914D01*
X0146590Y0330772D01*
X0146549Y0330631D01*
X0146504Y0330492D01*
X0146455Y0330353D01*
X0146403Y0330216D01*
X0146346Y0330081D01*
X0146287Y0329947D01*
X0146223Y0329815D01*
X0146156Y0329685D01*
X0146086Y0329556D01*
X0146012Y0329429D01*
X0145935Y0329305D01*
X0145854Y0329182D01*
X0145770Y0329062D01*
X0145683Y0328944D01*
X0145593Y0328829D01*
X0145500Y0328716D01*
X0145403Y0328605D01*
X0145304Y0328497D01*
X0145202Y0328392D01*
X0145097Y0328290D01*
X0144989Y0328191D01*
X0144878Y0328094D01*
X0144765Y0328001D01*
X0144650Y0327911D01*
X0144532Y0327824D01*
X0144412Y0327740D01*
X0144289Y0327659D01*
X0144165Y0327582D01*
X0144038Y0327508D01*
X0143909Y0327438D01*
X0143779Y0327371D01*
X0143647Y0327307D01*
X0143513Y0327248D01*
X0143378Y0327191D01*
X0143241Y0327139D01*
X0143102Y0327090D01*
X0142963Y0327045D01*
X0142822Y0327004D01*
X0142680Y0326967D01*
X0142538Y0326934D01*
X0142394Y0326904D01*
X0142250Y0326878D01*
X0142105Y0326857D01*
X0141959Y0326839D01*
X0141813Y0326825D01*
X0141667Y0326815D01*
X0141521Y0326809D01*
X0141374Y0326807D01*
X0141227Y0326809D01*
X0141081Y0326815D01*
X0140935Y0326825D01*
X0140789Y0326839D01*
X0140643Y0326857D01*
X0140498Y0326878D01*
X0140354Y0326904D01*
X0140210Y0326934D01*
X0140068Y0326967D01*
X0139926Y0327004D01*
X0139785Y0327045D01*
X0139646Y0327090D01*
X0139507Y0327139D01*
X0139370Y0327191D01*
X0139235Y0327248D01*
X0139101Y0327307D01*
X0138969Y0327371D01*
X0138839Y0327438D01*
X0138710Y0327508D01*
X0138583Y0327582D01*
X0138459Y0327659D01*
X0138336Y0327740D01*
X0138216Y0327824D01*
X0138098Y0327911D01*
X0137983Y0328001D01*
X0137870Y0328094D01*
X0137759Y0328191D01*
X0137651Y0328290D01*
X0137546Y0328392D01*
X0137444Y0328497D01*
X0137345Y0328605D01*
X0137248Y0328716D01*
X0137155Y0328829D01*
X0137065Y0328944D01*
X0136978Y0329062D01*
X0136894Y0329182D01*
X0136813Y0329305D01*
X0136736Y0329429D01*
X0136662Y0329556D01*
X0136592Y0329685D01*
X0136525Y0329815D01*
X0136461Y0329947D01*
X0136402Y0330081D01*
X0136345Y0330216D01*
X0136293Y0330353D01*
X0136244Y0330492D01*
X0136199Y0330631D01*
X0136158Y0330772D01*
X0136121Y0330914D01*
X0136088Y0331056D01*
X0136058Y0331200D01*
X0136032Y0331344D01*
X0136011Y0331489D01*
X0135993Y0331635D01*
X0135979Y0331781D01*
X0135969Y0331927D01*
X0135963Y0332073D01*
X0135961Y0332220D01*
X0031450Y0363500D02*
X0031452Y0363673D01*
X0031458Y0363846D01*
X0031469Y0364019D01*
X0031484Y0364191D01*
X0031503Y0364363D01*
X0031526Y0364534D01*
X0031554Y0364705D01*
X0031585Y0364875D01*
X0031621Y0365045D01*
X0031661Y0365213D01*
X0031705Y0365380D01*
X0031754Y0365547D01*
X0031806Y0365711D01*
X0031862Y0365875D01*
X0031922Y0366037D01*
X0031987Y0366198D01*
X0032055Y0366357D01*
X0032127Y0366514D01*
X0032203Y0366670D01*
X0032282Y0366823D01*
X0032366Y0366975D01*
X0032453Y0367124D01*
X0032544Y0367272D01*
X0032638Y0367417D01*
X0032736Y0367559D01*
X0032837Y0367700D01*
X0032942Y0367837D01*
X0033050Y0367972D01*
X0033162Y0368105D01*
X0033276Y0368234D01*
X0033394Y0368361D01*
X0033515Y0368485D01*
X0033639Y0368606D01*
X0033766Y0368724D01*
X0033895Y0368838D01*
X0034028Y0368950D01*
X0034163Y0369058D01*
X0034300Y0369163D01*
X0034441Y0369264D01*
X0034583Y0369362D01*
X0034728Y0369456D01*
X0034876Y0369547D01*
X0035025Y0369634D01*
X0035177Y0369718D01*
X0035330Y0369797D01*
X0035486Y0369873D01*
X0035643Y0369945D01*
X0035802Y0370013D01*
X0035963Y0370078D01*
X0036125Y0370138D01*
X0036289Y0370194D01*
X0036453Y0370246D01*
X0036620Y0370295D01*
X0036787Y0370339D01*
X0036955Y0370379D01*
X0037125Y0370415D01*
X0037295Y0370446D01*
X0037466Y0370474D01*
X0037637Y0370497D01*
X0037809Y0370516D01*
X0037981Y0370531D01*
X0038154Y0370542D01*
X0038327Y0370548D01*
X0038500Y0370550D01*
X0038673Y0370548D01*
X0038846Y0370542D01*
X0039019Y0370531D01*
X0039191Y0370516D01*
X0039363Y0370497D01*
X0039534Y0370474D01*
X0039705Y0370446D01*
X0039875Y0370415D01*
X0040045Y0370379D01*
X0040213Y0370339D01*
X0040380Y0370295D01*
X0040547Y0370246D01*
X0040711Y0370194D01*
X0040875Y0370138D01*
X0041037Y0370078D01*
X0041198Y0370013D01*
X0041357Y0369945D01*
X0041514Y0369873D01*
X0041670Y0369797D01*
X0041823Y0369718D01*
X0041975Y0369634D01*
X0042124Y0369547D01*
X0042272Y0369456D01*
X0042417Y0369362D01*
X0042559Y0369264D01*
X0042700Y0369163D01*
X0042837Y0369058D01*
X0042972Y0368950D01*
X0043105Y0368838D01*
X0043234Y0368724D01*
X0043361Y0368606D01*
X0043485Y0368485D01*
X0043606Y0368361D01*
X0043724Y0368234D01*
X0043838Y0368105D01*
X0043950Y0367972D01*
X0044058Y0367837D01*
X0044163Y0367700D01*
X0044264Y0367559D01*
X0044362Y0367417D01*
X0044456Y0367272D01*
X0044547Y0367124D01*
X0044634Y0366975D01*
X0044718Y0366823D01*
X0044797Y0366670D01*
X0044873Y0366514D01*
X0044945Y0366357D01*
X0045013Y0366198D01*
X0045078Y0366037D01*
X0045138Y0365875D01*
X0045194Y0365711D01*
X0045246Y0365547D01*
X0045295Y0365380D01*
X0045339Y0365213D01*
X0045379Y0365045D01*
X0045415Y0364875D01*
X0045446Y0364705D01*
X0045474Y0364534D01*
X0045497Y0364363D01*
X0045516Y0364191D01*
X0045531Y0364019D01*
X0045542Y0363846D01*
X0045548Y0363673D01*
X0045550Y0363500D01*
X0045548Y0363327D01*
X0045542Y0363154D01*
X0045531Y0362981D01*
X0045516Y0362809D01*
X0045497Y0362637D01*
X0045474Y0362466D01*
X0045446Y0362295D01*
X0045415Y0362125D01*
X0045379Y0361955D01*
X0045339Y0361787D01*
X0045295Y0361620D01*
X0045246Y0361453D01*
X0045194Y0361289D01*
X0045138Y0361125D01*
X0045078Y0360963D01*
X0045013Y0360802D01*
X0044945Y0360643D01*
X0044873Y0360486D01*
X0044797Y0360330D01*
X0044718Y0360177D01*
X0044634Y0360025D01*
X0044547Y0359876D01*
X0044456Y0359728D01*
X0044362Y0359583D01*
X0044264Y0359441D01*
X0044163Y0359300D01*
X0044058Y0359163D01*
X0043950Y0359028D01*
X0043838Y0358895D01*
X0043724Y0358766D01*
X0043606Y0358639D01*
X0043485Y0358515D01*
X0043361Y0358394D01*
X0043234Y0358276D01*
X0043105Y0358162D01*
X0042972Y0358050D01*
X0042837Y0357942D01*
X0042700Y0357837D01*
X0042559Y0357736D01*
X0042417Y0357638D01*
X0042272Y0357544D01*
X0042124Y0357453D01*
X0041975Y0357366D01*
X0041823Y0357282D01*
X0041670Y0357203D01*
X0041514Y0357127D01*
X0041357Y0357055D01*
X0041198Y0356987D01*
X0041037Y0356922D01*
X0040875Y0356862D01*
X0040711Y0356806D01*
X0040547Y0356754D01*
X0040380Y0356705D01*
X0040213Y0356661D01*
X0040045Y0356621D01*
X0039875Y0356585D01*
X0039705Y0356554D01*
X0039534Y0356526D01*
X0039363Y0356503D01*
X0039191Y0356484D01*
X0039019Y0356469D01*
X0038846Y0356458D01*
X0038673Y0356452D01*
X0038500Y0356450D01*
X0038327Y0356452D01*
X0038154Y0356458D01*
X0037981Y0356469D01*
X0037809Y0356484D01*
X0037637Y0356503D01*
X0037466Y0356526D01*
X0037295Y0356554D01*
X0037125Y0356585D01*
X0036955Y0356621D01*
X0036787Y0356661D01*
X0036620Y0356705D01*
X0036453Y0356754D01*
X0036289Y0356806D01*
X0036125Y0356862D01*
X0035963Y0356922D01*
X0035802Y0356987D01*
X0035643Y0357055D01*
X0035486Y0357127D01*
X0035330Y0357203D01*
X0035177Y0357282D01*
X0035025Y0357366D01*
X0034876Y0357453D01*
X0034728Y0357544D01*
X0034583Y0357638D01*
X0034441Y0357736D01*
X0034300Y0357837D01*
X0034163Y0357942D01*
X0034028Y0358050D01*
X0033895Y0358162D01*
X0033766Y0358276D01*
X0033639Y0358394D01*
X0033515Y0358515D01*
X0033394Y0358639D01*
X0033276Y0358766D01*
X0033162Y0358895D01*
X0033050Y0359028D01*
X0032942Y0359163D01*
X0032837Y0359300D01*
X0032736Y0359441D01*
X0032638Y0359583D01*
X0032544Y0359728D01*
X0032453Y0359876D01*
X0032366Y0360025D01*
X0032282Y0360177D01*
X0032203Y0360330D01*
X0032127Y0360486D01*
X0032055Y0360643D01*
X0031987Y0360802D01*
X0031922Y0360963D01*
X0031862Y0361125D01*
X0031806Y0361289D01*
X0031754Y0361453D01*
X0031705Y0361620D01*
X0031661Y0361787D01*
X0031621Y0361955D01*
X0031585Y0362125D01*
X0031554Y0362295D01*
X0031526Y0362466D01*
X0031503Y0362637D01*
X0031484Y0362809D01*
X0031469Y0362981D01*
X0031458Y0363154D01*
X0031452Y0363327D01*
X0031450Y0363500D01*
D11*
X0086000Y0286500D03*
X0086000Y0275500D03*
X0116000Y0261500D03*
X0116000Y0250500D03*
D12*
X0130500Y0293500D03*
X0141500Y0293500D03*
X0188000Y0306000D03*
X0199000Y0306000D03*
X0196500Y0253500D03*
X0185500Y0253500D03*
D13*
X0072358Y0161000D03*
X0054642Y0161000D03*
D14*
X0078500Y0187142D03*
X0078500Y0204858D03*
D15*
X0088500Y0249799D03*
X0088500Y0262201D03*
D16*
X0046000Y0282122D03*
X0046000Y0234878D03*
D17*
X0115200Y0311000D03*
X0126800Y0311000D03*
X0130200Y0276000D03*
X0141800Y0276000D03*
X0144300Y0118500D03*
X0132700Y0118500D03*
X0117300Y0118500D03*
X0105700Y0118500D03*
X0094300Y0118500D03*
X0082700Y0118500D03*
D18*
X0350547Y0144307D03*
D19*
X0350600Y0134300D03*
X0340600Y0134300D03*
X0340600Y0144300D03*
X0330600Y0144300D03*
X0330600Y0134300D03*
X0320600Y0134300D03*
X0320600Y0144300D03*
X0310600Y0144300D03*
X0310600Y0134300D03*
X0300600Y0134300D03*
X0300600Y0144300D03*
X0290600Y0144300D03*
X0290600Y0134300D03*
X0280600Y0134300D03*
X0280600Y0144300D03*
X0270600Y0144300D03*
X0270600Y0134300D03*
X0260600Y0134300D03*
X0260600Y0144300D03*
X0250600Y0144300D03*
X0250600Y0134300D03*
X0240600Y0134300D03*
X0240600Y0144300D03*
X0230600Y0144300D03*
X0230600Y0134300D03*
X0220600Y0134300D03*
X0220600Y0144300D03*
X0210600Y0144300D03*
X0210600Y0134300D03*
X0200600Y0134300D03*
X0200600Y0144300D03*
X0190600Y0144300D03*
X0190600Y0134300D03*
X0180600Y0134300D03*
X0180600Y0144300D03*
X0170600Y0144300D03*
X0170600Y0134300D03*
X0160600Y0134300D03*
X0160600Y0144300D03*
D20*
X0333500Y0253500D03*
X0042437Y0317437D03*
D21*
X0042437Y0309563D03*
X0034563Y0309563D03*
X0034563Y0317437D03*
X0273500Y0253500D03*
X0283500Y0253500D03*
X0293500Y0253500D03*
X0303500Y0253500D03*
X0313500Y0253500D03*
X0323500Y0253500D03*
D22*
X0303500Y0081000D03*
X0293500Y0081000D03*
X0283500Y0081000D03*
X0273500Y0081000D03*
X0263500Y0081000D03*
X0253500Y0081000D03*
X0243500Y0081000D03*
X0028500Y0103500D03*
X0028500Y0113500D03*
X0028500Y0123500D03*
X0028500Y0133500D03*
X0018500Y0133500D03*
X0018500Y0123500D03*
X0018500Y0113500D03*
X0018500Y0103500D03*
X0018500Y0093500D03*
D23*
X0028500Y0093500D03*
X0313500Y0081000D03*
D24*
X0112200Y0275900D03*
X0108500Y0275900D03*
X0104800Y0275900D03*
X0104800Y0286100D03*
X0112200Y0286100D03*
D25*
X0177711Y0290159D03*
X0177711Y0281059D03*
X0177711Y0271959D03*
D26*
X0202911Y0281059D03*
D27*
X0053500Y0203736D03*
X0048500Y0203736D03*
X0043500Y0203736D03*
X0038500Y0203736D03*
X0038500Y0183264D03*
X0043500Y0183264D03*
X0048500Y0183264D03*
X0053500Y0183264D03*
D28*
X0053500Y0179858D01*
X0072358Y0161000D01*
X0054642Y0161000D02*
X0043500Y0172142D01*
X0043500Y0183264D01*
X0048500Y0183264D02*
X0048500Y0176000D01*
X0051000Y0173500D01*
X0078500Y0178500D02*
X0078500Y0187142D01*
X0077378Y0203736D02*
X0078500Y0204858D01*
X0078500Y0213500D01*
X0077378Y0203736D02*
X0053500Y0203736D01*
X0063500Y0213500D02*
X0041000Y0213500D01*
X0038500Y0211000D01*
X0038500Y0203736D01*
X0038264Y0203500D01*
X0026000Y0203500D01*
X0008500Y0186000D01*
X0008500Y0101000D01*
X0016000Y0093500D01*
X0018500Y0093500D01*
X0023500Y0098500D02*
X0023500Y0038500D01*
X0043500Y0018500D01*
X0328500Y0018500D01*
X0341000Y0031000D01*
X0341000Y0133900D01*
X0340600Y0134300D01*
X0340800Y0133676D02*
X0361178Y0133676D01*
X0361548Y0133036D02*
X0363449Y0131134D01*
X0365778Y0129790D01*
X0368376Y0129094D01*
X0371065Y0129094D01*
X0373663Y0129790D01*
X0375992Y0131134D01*
X0377893Y0133036D01*
X0379238Y0135365D01*
X0379934Y0137962D01*
X0379934Y0140652D01*
X0379238Y0143249D01*
X0377893Y0145578D01*
X0375992Y0147480D01*
X0373663Y0148824D01*
X0371065Y0149520D01*
X0368376Y0149520D01*
X0365778Y0148824D01*
X0363449Y0147480D01*
X0361548Y0145578D01*
X0360203Y0143249D01*
X0359507Y0140652D01*
X0359507Y0137962D01*
X0360203Y0135365D01*
X0361548Y0133036D01*
X0362506Y0132078D02*
X0340800Y0132078D01*
X0340800Y0130479D02*
X0364584Y0130479D01*
X0360255Y0135275D02*
X0340800Y0135275D01*
X0340800Y0136512D02*
X0341588Y0137300D01*
X0341992Y0137300D01*
X0344565Y0138366D01*
X0344698Y0138499D01*
X0345281Y0137916D01*
X0346752Y0137307D01*
X0354343Y0137307D01*
X0355813Y0137916D01*
X0356938Y0139041D01*
X0357547Y0140511D01*
X0357547Y0145047D01*
X0361000Y0148500D01*
X0361000Y0251000D01*
X0341000Y0271000D01*
X0198500Y0271000D01*
X0196000Y0273500D01*
X0196000Y0288500D01*
X0198500Y0291000D01*
X0351000Y0291000D01*
X0386000Y0256000D01*
X0386000Y0131000D01*
X0376000Y0121000D01*
X0336000Y0121000D01*
X0335406Y0121594D01*
X0336219Y0121931D01*
X0338719Y0124431D01*
X0340069Y0125781D01*
X0340800Y0127545D01*
X0340800Y0136512D01*
X0341162Y0136873D02*
X0359799Y0136873D01*
X0359507Y0138472D02*
X0356369Y0138472D01*
X0357365Y0140070D02*
X0359507Y0140070D01*
X0359780Y0141669D02*
X0357547Y0141669D01*
X0357547Y0143268D02*
X0360214Y0143268D01*
X0361137Y0144866D02*
X0357547Y0144866D01*
X0358965Y0146465D02*
X0362434Y0146465D01*
X0360563Y0148063D02*
X0364459Y0148063D01*
X0361000Y0149662D02*
X0386000Y0149662D01*
X0386000Y0151260D02*
X0361000Y0151260D01*
X0361000Y0152859D02*
X0386000Y0152859D01*
X0386000Y0154457D02*
X0361000Y0154457D01*
X0361000Y0156056D02*
X0386000Y0156056D01*
X0386000Y0157654D02*
X0361000Y0157654D01*
X0361000Y0159253D02*
X0386000Y0159253D01*
X0386000Y0160851D02*
X0361000Y0160851D01*
X0361000Y0162450D02*
X0386000Y0162450D01*
X0386000Y0164048D02*
X0361000Y0164048D01*
X0361000Y0165647D02*
X0386000Y0165647D01*
X0386000Y0167245D02*
X0361000Y0167245D01*
X0361000Y0168844D02*
X0386000Y0168844D01*
X0386000Y0170442D02*
X0361000Y0170442D01*
X0361000Y0172041D02*
X0386000Y0172041D01*
X0386000Y0173639D02*
X0361000Y0173639D01*
X0361000Y0175238D02*
X0386000Y0175238D01*
X0386000Y0176836D02*
X0361000Y0176836D01*
X0361000Y0178435D02*
X0386000Y0178435D01*
X0386000Y0180033D02*
X0361000Y0180033D01*
X0361000Y0181632D02*
X0386000Y0181632D01*
X0386000Y0183230D02*
X0361000Y0183230D01*
X0361000Y0184829D02*
X0386000Y0184829D01*
X0386000Y0186427D02*
X0361000Y0186427D01*
X0361000Y0188026D02*
X0386000Y0188026D01*
X0386000Y0189624D02*
X0361000Y0189624D01*
X0361000Y0191223D02*
X0386000Y0191223D01*
X0386000Y0192821D02*
X0361000Y0192821D01*
X0361000Y0194420D02*
X0386000Y0194420D01*
X0386000Y0196018D02*
X0361000Y0196018D01*
X0361000Y0197617D02*
X0386000Y0197617D01*
X0386000Y0199215D02*
X0361000Y0199215D01*
X0361000Y0200814D02*
X0386000Y0200814D01*
X0386000Y0202412D02*
X0361000Y0202412D01*
X0361000Y0204011D02*
X0386000Y0204011D01*
X0386000Y0205609D02*
X0361000Y0205609D01*
X0361000Y0207208D02*
X0386000Y0207208D01*
X0386000Y0208806D02*
X0361000Y0208806D01*
X0361000Y0210405D02*
X0386000Y0210405D01*
X0386000Y0212003D02*
X0361000Y0212003D01*
X0361000Y0213602D02*
X0386000Y0213602D01*
X0386000Y0215201D02*
X0361000Y0215201D01*
X0361000Y0216799D02*
X0386000Y0216799D01*
X0386000Y0218398D02*
X0361000Y0218398D01*
X0361000Y0219996D02*
X0386000Y0219996D01*
X0386000Y0221595D02*
X0361000Y0221595D01*
X0361000Y0223193D02*
X0386000Y0223193D01*
X0386000Y0224792D02*
X0361000Y0224792D01*
X0361000Y0226390D02*
X0386000Y0226390D01*
X0386000Y0227989D02*
X0361000Y0227989D01*
X0361000Y0229587D02*
X0386000Y0229587D01*
X0386000Y0231186D02*
X0361000Y0231186D01*
X0361000Y0232784D02*
X0386000Y0232784D01*
X0386000Y0234383D02*
X0361000Y0234383D01*
X0361000Y0235981D02*
X0386000Y0235981D01*
X0386000Y0237580D02*
X0361000Y0237580D01*
X0361000Y0239178D02*
X0386000Y0239178D01*
X0386000Y0240777D02*
X0361000Y0240777D01*
X0361000Y0242375D02*
X0386000Y0242375D01*
X0386000Y0243974D02*
X0361000Y0243974D01*
X0361000Y0245572D02*
X0386000Y0245572D01*
X0386000Y0247171D02*
X0361000Y0247171D01*
X0361000Y0248769D02*
X0386000Y0248769D01*
X0386000Y0250368D02*
X0361000Y0250368D01*
X0360034Y0251966D02*
X0386000Y0251966D01*
X0386000Y0253565D02*
X0358435Y0253565D01*
X0356837Y0255163D02*
X0386000Y0255163D01*
X0385238Y0256762D02*
X0355238Y0256762D01*
X0353640Y0258360D02*
X0383640Y0258360D01*
X0382041Y0259959D02*
X0352041Y0259959D01*
X0350443Y0261557D02*
X0380443Y0261557D01*
X0378844Y0263156D02*
X0348844Y0263156D01*
X0347246Y0264754D02*
X0377246Y0264754D01*
X0375647Y0266353D02*
X0345647Y0266353D01*
X0344049Y0267951D02*
X0374049Y0267951D01*
X0372450Y0269550D02*
X0342450Y0269550D01*
X0358063Y0283937D02*
X0196000Y0283937D01*
X0196000Y0285535D02*
X0356465Y0285535D01*
X0354866Y0287134D02*
X0196000Y0287134D01*
X0196232Y0288732D02*
X0353268Y0288732D01*
X0351669Y0290331D02*
X0197831Y0290331D01*
X0199000Y0284970D02*
X0202911Y0281059D01*
X0177711Y0281059D01*
X0176000Y0276000D02*
X0181000Y0276000D01*
X0183500Y0273500D01*
X0183500Y0263500D01*
X0188500Y0258500D01*
X0188500Y0251000D01*
X0186000Y0248500D01*
X0181000Y0248500D01*
X0176000Y0253500D01*
X0176000Y0266000D01*
X0173500Y0268500D01*
X0173500Y0273500D01*
X0176000Y0276000D01*
X0175944Y0275944D02*
X0181056Y0275944D01*
X0142100Y0275944D01*
X0142100Y0275700D02*
X0142100Y0276300D01*
X0145800Y0276300D01*
X0145800Y0279687D01*
X0145677Y0280145D01*
X0145440Y0280555D01*
X0145105Y0280890D01*
X0144915Y0281000D01*
X0156000Y0281000D01*
X0161000Y0276000D01*
X0181000Y0276000D01*
X0181624Y0275376D01*
X0181606Y0275386D01*
X0181148Y0275509D01*
X0177786Y0275509D01*
X0177786Y0272034D01*
X0182711Y0272034D01*
X0182711Y0273946D01*
X0182588Y0274404D01*
X0182578Y0274422D01*
X0183500Y0273500D01*
X0183500Y0271000D01*
X0182711Y0270211D01*
X0182711Y0271884D01*
X0177786Y0271884D01*
X0177786Y0272034D01*
X0177636Y0272034D01*
X0177636Y0271884D01*
X0172711Y0271884D01*
X0172711Y0269972D01*
X0172834Y0269514D01*
X0173071Y0269104D01*
X0173406Y0268769D01*
X0173816Y0268532D01*
X0173935Y0268500D01*
X0141000Y0268500D01*
X0138500Y0271000D01*
X0138500Y0271107D01*
X0138905Y0270873D01*
X0139363Y0270750D01*
X0141500Y0270750D01*
X0141500Y0275700D01*
X0142100Y0275700D01*
X0145800Y0275700D01*
X0145800Y0272313D01*
X0145677Y0271855D01*
X0145440Y0271445D01*
X0145105Y0271110D01*
X0144695Y0270873D01*
X0144237Y0270750D01*
X0142100Y0270750D01*
X0142100Y0275700D01*
X0142100Y0274345D02*
X0141500Y0274345D01*
X0141500Y0272747D02*
X0142100Y0272747D01*
X0142100Y0271148D02*
X0141500Y0271148D01*
X0142050Y0269550D02*
X0134550Y0269550D01*
X0136148Y0271148D02*
X0143648Y0271148D01*
X0145144Y0271148D02*
X0172711Y0271148D01*
X0173500Y0271148D02*
X0183500Y0271148D01*
X0182711Y0271148D01*
X0182711Y0272747D02*
X0183500Y0272747D01*
X0173500Y0272747D01*
X0172711Y0272747D02*
X0145800Y0272747D01*
X0145247Y0272747D02*
X0137747Y0272747D01*
X0138500Y0273500D02*
X0138500Y0296000D01*
X0141000Y0298500D01*
X0143500Y0298500D01*
X0146000Y0296000D01*
X0146000Y0273500D01*
X0116000Y0243500D01*
X0081000Y0243500D01*
X0078500Y0246000D01*
X0078500Y0248500D01*
X0083500Y0253500D01*
X0118500Y0253500D01*
X0138500Y0273500D01*
X0138500Y0274345D02*
X0146000Y0274345D01*
X0145800Y0274345D02*
X0172818Y0274345D01*
X0172834Y0274404D02*
X0172711Y0273946D01*
X0172711Y0272034D01*
X0177636Y0272034D01*
X0177636Y0275509D01*
X0174274Y0275509D01*
X0173816Y0275386D01*
X0173406Y0275149D01*
X0173071Y0274814D01*
X0172834Y0274404D01*
X0174345Y0274345D02*
X0182655Y0274345D01*
X0182604Y0274345D01*
X0177786Y0274345D02*
X0177636Y0274345D01*
X0177636Y0272747D02*
X0177786Y0272747D01*
X0173500Y0269550D02*
X0183500Y0269550D01*
X0183500Y0267951D02*
X0174049Y0267951D01*
X0172824Y0269550D02*
X0139950Y0269550D01*
X0140451Y0267951D02*
X0132951Y0267951D01*
X0131353Y0266353D02*
X0138853Y0266353D01*
X0137254Y0264754D02*
X0129754Y0264754D01*
X0128156Y0263156D02*
X0135656Y0263156D01*
X0134057Y0261557D02*
X0126557Y0261557D01*
X0124959Y0259959D02*
X0132459Y0259959D01*
X0130860Y0258360D02*
X0123360Y0258360D01*
X0121762Y0256762D02*
X0129262Y0256762D01*
X0127663Y0255163D02*
X0120163Y0255163D01*
X0118565Y0253565D02*
X0126065Y0253565D01*
X0124466Y0251966D02*
X0081966Y0251966D01*
X0080368Y0250368D02*
X0122868Y0250368D01*
X0121269Y0248769D02*
X0078769Y0248769D01*
X0078500Y0247171D02*
X0119671Y0247171D01*
X0118072Y0245572D02*
X0078928Y0245572D01*
X0080526Y0243974D02*
X0116474Y0243974D01*
X0116000Y0261500D02*
X0113000Y0261500D01*
X0108500Y0266000D01*
X0108500Y0275900D01*
X0103400Y0275944D02*
X0098444Y0275944D01*
X0098500Y0276000D02*
X0101000Y0276000D01*
X0103400Y0278400D01*
X0103400Y0272604D01*
X0103700Y0271880D01*
X0103700Y0271213D01*
X0102931Y0270444D01*
X0102922Y0270422D01*
X0091000Y0258500D01*
X0083500Y0258500D01*
X0071000Y0246000D01*
X0063500Y0246000D01*
X0061000Y0243500D01*
X0061000Y0226000D01*
X0058500Y0223500D01*
X0033500Y0223500D01*
X0031000Y0226000D01*
X0031000Y0243500D01*
X0038500Y0251000D01*
X0063500Y0251000D01*
X0076000Y0263500D01*
X0086000Y0263500D01*
X0098500Y0276000D01*
X0096845Y0274345D02*
X0103400Y0274345D01*
X0103400Y0272747D02*
X0095247Y0272747D01*
X0093648Y0271148D02*
X0103636Y0271148D01*
X0102050Y0269550D02*
X0092050Y0269550D01*
X0090451Y0267951D02*
X0100451Y0267951D01*
X0098853Y0266353D02*
X0088853Y0266353D01*
X0087254Y0264754D02*
X0097254Y0264754D01*
X0095656Y0263156D02*
X0075656Y0263156D01*
X0074057Y0261557D02*
X0094057Y0261557D01*
X0092459Y0259959D02*
X0072459Y0259959D01*
X0070860Y0258360D02*
X0083360Y0258360D01*
X0081762Y0256762D02*
X0069262Y0256762D01*
X0067663Y0255163D02*
X0080163Y0255163D01*
X0078565Y0253565D02*
X0066065Y0253565D01*
X0064466Y0251966D02*
X0076966Y0251966D01*
X0075368Y0250368D02*
X0037868Y0250368D01*
X0036269Y0248769D02*
X0073769Y0248769D01*
X0072171Y0247171D02*
X0034671Y0247171D01*
X0033072Y0245572D02*
X0063072Y0245572D01*
X0061474Y0243974D02*
X0031474Y0243974D01*
X0031000Y0242375D02*
X0061000Y0242375D01*
X0061000Y0240777D02*
X0031000Y0240777D01*
X0031000Y0239178D02*
X0061000Y0239178D01*
X0061000Y0237580D02*
X0031000Y0237580D01*
X0031000Y0235981D02*
X0061000Y0235981D01*
X0061000Y0234383D02*
X0031000Y0234383D01*
X0031000Y0232784D02*
X0061000Y0232784D01*
X0061000Y0231186D02*
X0031000Y0231186D01*
X0031000Y0229587D02*
X0061000Y0229587D01*
X0061000Y0227989D02*
X0031000Y0227989D01*
X0031000Y0226390D02*
X0061000Y0226390D01*
X0059792Y0224792D02*
X0032208Y0224792D01*
X0063500Y0213500D02*
X0096000Y0246000D01*
X0092299Y0246000D01*
X0088500Y0249799D01*
X0086000Y0275500D02*
X0076500Y0275500D01*
X0076000Y0276000D01*
X0069838Y0282338D02*
X0031000Y0282338D01*
X0031000Y0283937D02*
X0113937Y0283937D01*
X0113500Y0283500D02*
X0071000Y0283500D01*
X0061000Y0273500D01*
X0061000Y0271000D01*
X0058500Y0268500D01*
X0033500Y0268500D01*
X0031000Y0271000D01*
X0031000Y0291000D01*
X0033500Y0293500D01*
X0038500Y0293500D01*
X0041000Y0296000D01*
X0041000Y0328500D01*
X0048500Y0328500D01*
X0058500Y0318500D01*
X0058500Y0296000D01*
X0063500Y0291000D01*
X0113500Y0291000D01*
X0116000Y0288500D01*
X0116000Y0286000D01*
X0113500Y0283500D01*
X0115535Y0285535D02*
X0031000Y0285535D01*
X0031000Y0287134D02*
X0116000Y0287134D01*
X0115768Y0288732D02*
X0031000Y0288732D01*
X0031000Y0290331D02*
X0114169Y0290331D01*
X0123500Y0290331D02*
X0133500Y0290331D01*
X0133500Y0291929D02*
X0123500Y0291929D01*
X0123500Y0293528D02*
X0133500Y0293528D01*
X0133500Y0295126D02*
X0123500Y0295126D01*
X0123500Y0296725D02*
X0133500Y0296725D01*
X0133500Y0298323D02*
X0123500Y0298323D01*
X0123500Y0299922D02*
X0133500Y0299922D01*
X0133500Y0301520D02*
X0123500Y0301520D01*
X0123500Y0303119D02*
X0133500Y0303119D01*
X0133500Y0304717D02*
X0123500Y0304717D01*
X0123500Y0306316D02*
X0133500Y0306316D01*
X0133500Y0307914D02*
X0123500Y0307914D01*
X0123500Y0309513D02*
X0133500Y0309513D01*
X0133500Y0311000D02*
X0133500Y0273500D01*
X0131000Y0271000D01*
X0113513Y0271000D01*
X0113300Y0271213D01*
X0113300Y0271880D01*
X0113600Y0272604D01*
X0113600Y0278500D01*
X0121000Y0278500D01*
X0123500Y0281000D01*
X0123500Y0313500D01*
X0126000Y0316000D01*
X0128500Y0316000D01*
X0133500Y0311000D01*
X0133389Y0311111D02*
X0123500Y0311111D01*
X0123500Y0312710D02*
X0131790Y0312710D01*
X0130192Y0314308D02*
X0124308Y0314308D01*
X0125907Y0315907D02*
X0128593Y0315907D01*
X0115200Y0311000D02*
X0108500Y0311000D01*
X0123500Y0288732D02*
X0133500Y0288732D01*
X0133500Y0287134D02*
X0123500Y0287134D01*
X0123500Y0285535D02*
X0133500Y0285535D01*
X0133500Y0283937D02*
X0123500Y0283937D01*
X0123500Y0282338D02*
X0133500Y0282338D01*
X0133500Y0280739D02*
X0123239Y0280739D01*
X0121641Y0279141D02*
X0133500Y0279141D01*
X0133500Y0277542D02*
X0113600Y0277542D01*
X0113600Y0275944D02*
X0133500Y0275944D01*
X0133500Y0274345D02*
X0113600Y0274345D01*
X0113600Y0272747D02*
X0132747Y0272747D01*
X0131148Y0271148D02*
X0113364Y0271148D01*
X0103400Y0277542D02*
X0102542Y0277542D01*
X0068239Y0280739D02*
X0031000Y0280739D01*
X0031000Y0279141D02*
X0066641Y0279141D01*
X0065042Y0277542D02*
X0031000Y0277542D01*
X0031000Y0275944D02*
X0063444Y0275944D01*
X0061845Y0274345D02*
X0031000Y0274345D01*
X0031000Y0272747D02*
X0061000Y0272747D01*
X0061000Y0271148D02*
X0031000Y0271148D01*
X0032450Y0269550D02*
X0059550Y0269550D01*
X0062571Y0291929D02*
X0031929Y0291929D01*
X0038528Y0293528D02*
X0060972Y0293528D01*
X0059374Y0295126D02*
X0040126Y0295126D01*
X0041000Y0296725D02*
X0058500Y0296725D01*
X0058500Y0298323D02*
X0041000Y0298323D01*
X0041000Y0299922D02*
X0058500Y0299922D01*
X0058500Y0301520D02*
X0041000Y0301520D01*
X0041000Y0303119D02*
X0058500Y0303119D01*
X0058500Y0304717D02*
X0041000Y0304717D01*
X0041000Y0306316D02*
X0058500Y0306316D01*
X0058500Y0307914D02*
X0041000Y0307914D01*
X0041000Y0309513D02*
X0058500Y0309513D01*
X0058500Y0311111D02*
X0041000Y0311111D01*
X0041000Y0312710D02*
X0058500Y0312710D01*
X0058500Y0314308D02*
X0041000Y0314308D01*
X0041000Y0315907D02*
X0058500Y0315907D01*
X0058500Y0317505D02*
X0041000Y0317505D01*
X0041000Y0319104D02*
X0057896Y0319104D01*
X0056298Y0320702D02*
X0041000Y0320702D01*
X0041000Y0322301D02*
X0054699Y0322301D01*
X0053101Y0323899D02*
X0041000Y0323899D01*
X0041000Y0325498D02*
X0051502Y0325498D01*
X0049904Y0327096D02*
X0041000Y0327096D01*
X0138500Y0295126D02*
X0146000Y0295126D01*
X0146000Y0293528D02*
X0138500Y0293528D01*
X0138500Y0291929D02*
X0146000Y0291929D01*
X0146000Y0290331D02*
X0138500Y0290331D01*
X0138500Y0288732D02*
X0146000Y0288732D01*
X0146000Y0287134D02*
X0138500Y0287134D01*
X0138500Y0285535D02*
X0146000Y0285535D01*
X0146000Y0283937D02*
X0138500Y0283937D01*
X0138500Y0282338D02*
X0146000Y0282338D01*
X0146000Y0280739D02*
X0138500Y0280739D01*
X0138500Y0279141D02*
X0146000Y0279141D01*
X0145800Y0279141D02*
X0157859Y0279141D01*
X0156261Y0280739D02*
X0145256Y0280739D01*
X0145800Y0277542D02*
X0159458Y0277542D01*
X0146000Y0277542D02*
X0138500Y0277542D01*
X0138500Y0275944D02*
X0146000Y0275944D01*
X0145275Y0296725D02*
X0139225Y0296725D01*
X0140823Y0298323D02*
X0143677Y0298323D01*
X0175647Y0266353D02*
X0183500Y0266353D01*
X0183500Y0264754D02*
X0176000Y0264754D01*
X0176000Y0263156D02*
X0183844Y0263156D01*
X0185443Y0261557D02*
X0176000Y0261557D01*
X0176000Y0259959D02*
X0187041Y0259959D01*
X0188500Y0258360D02*
X0176000Y0258360D01*
X0176000Y0256762D02*
X0188500Y0256762D01*
X0188500Y0255163D02*
X0176000Y0255163D01*
X0176000Y0253565D02*
X0188500Y0253565D01*
X0188500Y0251966D02*
X0177534Y0251966D01*
X0179132Y0250368D02*
X0187868Y0250368D01*
X0186269Y0248769D02*
X0180731Y0248769D01*
X0196500Y0253500D02*
X0206000Y0253500D01*
X0198352Y0271148D02*
X0370852Y0271148D01*
X0369253Y0272747D02*
X0196753Y0272747D01*
X0196000Y0274345D02*
X0367655Y0274345D01*
X0366056Y0275944D02*
X0196000Y0275944D01*
X0196000Y0277542D02*
X0364458Y0277542D01*
X0362859Y0279141D02*
X0196000Y0279141D01*
X0196000Y0280739D02*
X0361261Y0280739D01*
X0359662Y0282338D02*
X0196000Y0282338D01*
X0199000Y0284970D02*
X0199000Y0306000D01*
X0188000Y0306000D02*
X0183500Y0306000D01*
X0178500Y0301000D01*
X0177711Y0300211D01*
X0177711Y0290159D01*
X0137000Y0161000D02*
X0243900Y0161000D01*
X0260600Y0144300D01*
X0250600Y0144300D02*
X0246000Y0139700D01*
X0246000Y0129000D01*
X0243000Y0126000D01*
X0110000Y0126000D01*
X0105700Y0121700D01*
X0105700Y0118500D01*
X0094300Y0118500D01*
X0082700Y0118500D02*
X0082200Y0119000D01*
X0074000Y0119000D01*
X0053000Y0138000D02*
X0028500Y0113500D01*
X0018500Y0103500D02*
X0023500Y0098500D01*
X0018500Y0123500D02*
X0016500Y0123500D01*
X0012000Y0128000D01*
X0012000Y0140000D01*
X0017000Y0145000D01*
X0121000Y0145000D01*
X0137000Y0161000D01*
X0134000Y0153000D02*
X0119000Y0138000D01*
X0053000Y0138000D01*
X0117300Y0118500D02*
X0132700Y0118500D01*
X0144300Y0118500D02*
X0150500Y0118500D01*
X0153000Y0116000D01*
X0134000Y0153000D02*
X0236000Y0153000D01*
X0240600Y0148400D01*
X0240600Y0144300D01*
X0229000Y0095000D02*
X0229000Y0078000D01*
X0236000Y0071000D01*
X0311000Y0071000D01*
X0313500Y0073500D01*
X0313500Y0081000D01*
X0283500Y0081000D02*
X0328500Y0126000D01*
X0333500Y0126000D01*
X0336000Y0128500D01*
X0336000Y0138500D01*
X0340600Y0143100D01*
X0340600Y0144300D01*
X0344671Y0138472D02*
X0344725Y0138472D01*
X0340800Y0128881D02*
X0383881Y0128881D01*
X0385479Y0130479D02*
X0374857Y0130479D01*
X0376935Y0132078D02*
X0386000Y0132078D01*
X0386000Y0133676D02*
X0378263Y0133676D01*
X0379186Y0135275D02*
X0386000Y0135275D01*
X0386000Y0136873D02*
X0379642Y0136873D01*
X0379934Y0138472D02*
X0386000Y0138472D01*
X0386000Y0140070D02*
X0379934Y0140070D01*
X0379661Y0141669D02*
X0386000Y0141669D01*
X0386000Y0143268D02*
X0379227Y0143268D01*
X0378304Y0144866D02*
X0386000Y0144866D01*
X0386000Y0146465D02*
X0377007Y0146465D01*
X0374981Y0148063D02*
X0386000Y0148063D01*
X0382282Y0127282D02*
X0340691Y0127282D01*
X0339972Y0125684D02*
X0380684Y0125684D01*
X0379085Y0124085D02*
X0338374Y0124085D01*
X0336775Y0122487D02*
X0377487Y0122487D01*
X0330600Y0134300D02*
X0330600Y0136400D01*
X0328000Y0139000D01*
X0315900Y0139000D01*
X0310600Y0144300D01*
D29*
X0229000Y0095000D03*
X0153000Y0116000D03*
X0078500Y0178500D03*
X0051000Y0173500D03*
X0078500Y0213500D03*
X0108500Y0266000D03*
X0076000Y0276000D03*
X0108500Y0311000D03*
X0178500Y0301000D03*
X0206000Y0253500D03*
X0074000Y0119000D03*
M02*
