G75*
%MOIN*%
%OFA0B0*%
%FSLAX25Y25*%
%IPPOS*%
%LPD*%
%AMOC8*
5,1,8,0,0,1.08239X$1,22.5*
%
%ADD10R,0.07100X0.03600*%
%ADD11R,0.03600X0.07100*%
%ADD12R,0.07087X0.05906*%
%ADD13R,0.05906X0.07087*%
%ADD14R,0.05000X0.05000*%
%ADD15R,0.23622X0.19685*%
%ADD16R,0.04400X0.06900*%
%ADD17R,0.02200X0.05000*%
%ADD18R,0.06400X0.03500*%
%ADD19R,0.06400X0.12500*%
%ADD20R,0.02362X0.08661*%
D10*
X0116000Y0250500D03*
X0116000Y0261500D03*
X0086000Y0275500D03*
X0086000Y0286500D03*
D11*
X0130500Y0293500D03*
X0141500Y0293500D03*
X0188000Y0306000D03*
X0199000Y0306000D03*
X0196500Y0253500D03*
X0185500Y0253500D03*
D12*
X0072358Y0161000D03*
X0054642Y0161000D03*
D13*
X0078500Y0187142D03*
X0078500Y0204858D03*
D14*
X0088500Y0249799D03*
X0088500Y0262201D03*
D15*
X0046000Y0282122D03*
X0046000Y0234878D03*
D16*
X0082700Y0118500D03*
X0094300Y0118500D03*
X0105700Y0118500D03*
X0117300Y0118500D03*
X0132700Y0118500D03*
X0144300Y0118500D03*
X0141800Y0276000D03*
X0130200Y0276000D03*
X0126800Y0311000D03*
X0115200Y0311000D03*
D17*
X0112200Y0286100D03*
X0104800Y0286100D03*
X0104800Y0275900D03*
X0108500Y0275900D03*
X0112200Y0275900D03*
D18*
X0177711Y0271959D03*
X0177711Y0281059D03*
X0177711Y0290159D03*
D19*
X0202911Y0281059D03*
D20*
X0053500Y0203736D03*
X0048500Y0203736D03*
X0043500Y0203736D03*
X0038500Y0203736D03*
X0038500Y0183264D03*
X0043500Y0183264D03*
X0048500Y0183264D03*
X0053500Y0183264D03*
M02*
