G75*
%MOIN*%
%OFA0B0*%
%FSLAX25Y25*%
%IPPOS*%
%LPD*%
%AMOC8*
5,1,8,0,0,1.08239X$1,22.5*
%
%ADD10R,0.06000X0.06000*%
%ADD11C,0.06000*%
%ADD12R,0.05543X0.05543*%
%ADD13C,0.05543*%
%ADD14C,0.05150*%
%ADD15R,0.05150X0.05150*%
%ADD16C,0.01600*%
%ADD17R,0.04356X0.04356*%
D10*
X0350547Y0144307D03*
D11*
X0350600Y0134300D03*
X0340600Y0134300D03*
X0340600Y0144300D03*
X0330600Y0144300D03*
X0330600Y0134300D03*
X0320600Y0134300D03*
X0320600Y0144300D03*
X0310600Y0144300D03*
X0310600Y0134300D03*
X0300600Y0134300D03*
X0300600Y0144300D03*
X0290600Y0144300D03*
X0290600Y0134300D03*
X0280600Y0134300D03*
X0280600Y0144300D03*
X0270600Y0144300D03*
X0270600Y0134300D03*
X0260600Y0134300D03*
X0260600Y0144300D03*
X0250600Y0144300D03*
X0250600Y0134300D03*
X0240600Y0134300D03*
X0240600Y0144300D03*
X0230600Y0144300D03*
X0230600Y0134300D03*
X0220600Y0134300D03*
X0220600Y0144300D03*
X0210600Y0144300D03*
X0210600Y0134300D03*
X0200600Y0134300D03*
X0200600Y0144300D03*
X0190600Y0144300D03*
X0190600Y0134300D03*
X0180600Y0134300D03*
X0180600Y0144300D03*
X0170600Y0144300D03*
X0170600Y0134300D03*
X0160600Y0134300D03*
X0160600Y0144300D03*
D12*
X0333500Y0253500D03*
X0042437Y0317437D03*
D13*
X0042437Y0309563D03*
X0034563Y0309563D03*
X0034563Y0317437D03*
X0273500Y0253500D03*
X0283500Y0253500D03*
X0293500Y0253500D03*
X0303500Y0253500D03*
X0313500Y0253500D03*
X0323500Y0253500D03*
D14*
X0303500Y0081000D03*
X0293500Y0081000D03*
X0283500Y0081000D03*
X0273500Y0081000D03*
X0263500Y0081000D03*
X0253500Y0081000D03*
X0243500Y0081000D03*
X0028500Y0103500D03*
X0028500Y0113500D03*
X0028500Y0123500D03*
X0028500Y0133500D03*
X0018500Y0133500D03*
X0018500Y0123500D03*
X0018500Y0113500D03*
X0018500Y0103500D03*
X0018500Y0093500D03*
D15*
X0028500Y0093500D03*
X0313500Y0081000D03*
D16*
X0064820Y0042561D02*
X0041939Y0042561D01*
X0043537Y0040963D02*
X0064392Y0040963D01*
X0064150Y0040060D02*
X0064958Y0043074D01*
X0066518Y0045776D01*
X0068724Y0047982D01*
X0071426Y0049542D01*
X0074440Y0050350D01*
X0077560Y0050350D01*
X0080574Y0049542D01*
X0083276Y0047982D01*
X0085482Y0045776D01*
X0087042Y0043074D01*
X0087850Y0040060D01*
X0087850Y0036940D01*
X0087042Y0033926D01*
X0085482Y0031224D01*
X0083276Y0029018D01*
X0080574Y0027458D01*
X0077560Y0026650D01*
X0074440Y0026650D01*
X0071426Y0027458D01*
X0068724Y0029018D01*
X0066518Y0031224D01*
X0064958Y0033926D01*
X0064150Y0036940D01*
X0064150Y0040060D01*
X0064150Y0039364D02*
X0045136Y0039364D01*
X0046734Y0037766D02*
X0064150Y0037766D01*
X0064357Y0036167D02*
X0048333Y0036167D01*
X0049931Y0034569D02*
X0064785Y0034569D01*
X0065509Y0032970D02*
X0051530Y0032970D01*
X0053128Y0031372D02*
X0066432Y0031372D01*
X0067968Y0029773D02*
X0054727Y0029773D01*
X0056325Y0028175D02*
X0070184Y0028175D01*
X0062719Y0021781D02*
X0237270Y0021781D01*
X0236685Y0022118D02*
X0239216Y0020657D01*
X0242039Y0019901D01*
X0244961Y0019901D01*
X0247784Y0020657D01*
X0250315Y0022118D01*
X0252382Y0024185D01*
X0253843Y0026716D01*
X0254599Y0029539D01*
X0254599Y0032461D01*
X0253843Y0035284D01*
X0252382Y0037815D01*
X0250315Y0039882D01*
X0247784Y0041343D01*
X0244961Y0042099D01*
X0242039Y0042099D01*
X0239216Y0041343D01*
X0236685Y0039882D01*
X0234618Y0037815D01*
X0233157Y0035284D01*
X0232401Y0032461D01*
X0232401Y0029539D01*
X0233157Y0026716D01*
X0234618Y0024185D01*
X0236685Y0022118D01*
X0235424Y0023379D02*
X0061121Y0023379D01*
X0059522Y0024978D02*
X0234161Y0024978D01*
X0233238Y0026576D02*
X0057924Y0026576D01*
X0064318Y0020182D02*
X0240989Y0020182D01*
X0246011Y0020182D02*
X0310989Y0020182D01*
X0312039Y0019901D02*
X0314961Y0019901D01*
X0317784Y0020657D01*
X0320315Y0022118D01*
X0322382Y0024185D01*
X0323843Y0026716D01*
X0324599Y0029539D01*
X0324599Y0032461D01*
X0323843Y0035284D01*
X0322382Y0037815D01*
X0320315Y0039882D01*
X0317784Y0041343D01*
X0314961Y0042099D01*
X0312039Y0042099D01*
X0309216Y0041343D01*
X0306685Y0039882D01*
X0304618Y0037815D01*
X0303157Y0035284D01*
X0302401Y0032461D01*
X0302401Y0029539D01*
X0303157Y0026716D01*
X0304618Y0024185D01*
X0306685Y0022118D01*
X0309216Y0020657D01*
X0312039Y0019901D01*
X0316011Y0020182D02*
X0380182Y0020182D01*
X0378584Y0018584D02*
X0065916Y0018584D01*
X0066000Y0018500D02*
X0016000Y0068500D01*
X0016000Y0076000D01*
X0009855Y0082145D01*
X0010204Y0082000D01*
X0021796Y0082000D01*
X0023266Y0082609D01*
X0024391Y0083734D01*
X0028382Y0087725D01*
X0031711Y0087725D01*
X0032887Y0088212D01*
X0033788Y0089113D01*
X0034275Y0090289D01*
X0034275Y0096711D01*
X0033788Y0097887D01*
X0032887Y0098788D01*
X0032228Y0099061D01*
X0032667Y0099500D01*
X0224619Y0099500D01*
X0224109Y0098991D01*
X0223622Y0097814D01*
X0223622Y0092186D01*
X0224109Y0091009D01*
X0225009Y0090109D01*
X0226186Y0089622D01*
X0231814Y0089622D01*
X0232991Y0090109D01*
X0233891Y0091009D01*
X0234378Y0092186D01*
X0234378Y0097814D01*
X0233891Y0098991D01*
X0233381Y0099500D01*
X0244296Y0099500D01*
X0245766Y0100109D01*
X0268266Y0122609D01*
X0269391Y0123734D01*
X0270000Y0125204D01*
X0270000Y0128100D01*
X0271833Y0128100D01*
X0274112Y0129044D01*
X0275600Y0130532D01*
X0277088Y0129044D01*
X0279367Y0128100D01*
X0281833Y0128100D01*
X0284112Y0129044D01*
X0285856Y0130788D01*
X0286370Y0132029D01*
X0286495Y0131784D01*
X0286939Y0131173D01*
X0287473Y0130639D01*
X0288084Y0130195D01*
X0288757Y0129852D01*
X0289476Y0129618D01*
X0290222Y0129500D01*
X0290400Y0129500D01*
X0290400Y0134100D01*
X0290800Y0134100D01*
X0290800Y0129500D01*
X0290978Y0129500D01*
X0291724Y0129618D01*
X0292443Y0129852D01*
X0293116Y0130195D01*
X0293727Y0130639D01*
X0294261Y0131173D01*
X0294705Y0131784D01*
X0294830Y0132029D01*
X0295344Y0130788D01*
X0297088Y0129044D01*
X0299367Y0128100D01*
X0301833Y0128100D01*
X0304112Y0129044D01*
X0305600Y0130532D01*
X0307088Y0129044D01*
X0309367Y0128100D01*
X0311833Y0128100D01*
X0314112Y0129044D01*
X0315600Y0130532D01*
X0317088Y0129044D01*
X0319367Y0128100D01*
X0321833Y0128100D01*
X0322000Y0128169D01*
X0322000Y0115157D01*
X0293618Y0086775D01*
X0292351Y0086775D01*
X0290229Y0085896D01*
X0288604Y0084271D01*
X0288500Y0084019D01*
X0288396Y0084271D01*
X0286771Y0085896D01*
X0284649Y0086775D01*
X0282351Y0086775D01*
X0280229Y0085896D01*
X0278604Y0084271D01*
X0278500Y0084019D01*
X0278396Y0084271D01*
X0276771Y0085896D01*
X0274649Y0086775D01*
X0272351Y0086775D01*
X0270229Y0085896D01*
X0268604Y0084271D01*
X0268500Y0084019D01*
X0268396Y0084271D01*
X0266771Y0085896D01*
X0264649Y0086775D01*
X0262351Y0086775D01*
X0260229Y0085896D01*
X0258604Y0084271D01*
X0258500Y0084019D01*
X0258396Y0084271D01*
X0256771Y0085896D01*
X0254649Y0086775D01*
X0252351Y0086775D01*
X0250229Y0085896D01*
X0248604Y0084271D01*
X0248500Y0084019D01*
X0248396Y0084271D01*
X0246771Y0085896D01*
X0244649Y0086775D01*
X0242351Y0086775D01*
X0240229Y0085896D01*
X0238604Y0084271D01*
X0237725Y0082149D01*
X0237725Y0079851D01*
X0238604Y0077729D01*
X0240229Y0076104D01*
X0242351Y0075225D01*
X0244649Y0075225D01*
X0246771Y0076104D01*
X0248396Y0077729D01*
X0248500Y0077981D01*
X0248604Y0077729D01*
X0250229Y0076104D01*
X0252351Y0075225D01*
X0254649Y0075225D01*
X0256771Y0076104D01*
X0258396Y0077729D01*
X0258500Y0077981D01*
X0258604Y0077729D01*
X0260229Y0076104D01*
X0262351Y0075225D01*
X0264649Y0075225D01*
X0266771Y0076104D01*
X0268396Y0077729D01*
X0268500Y0077981D01*
X0268604Y0077729D01*
X0270229Y0076104D01*
X0272351Y0075225D01*
X0274649Y0075225D01*
X0276771Y0076104D01*
X0278396Y0077729D01*
X0278500Y0077981D01*
X0278604Y0077729D01*
X0280229Y0076104D01*
X0282351Y0075225D01*
X0284649Y0075225D01*
X0286771Y0076104D01*
X0288396Y0077729D01*
X0288500Y0077981D01*
X0288604Y0077729D01*
X0290229Y0076104D01*
X0292351Y0075225D01*
X0294649Y0075225D01*
X0296771Y0076104D01*
X0298396Y0077729D01*
X0299274Y0079849D01*
X0299446Y0079321D01*
X0299758Y0078707D01*
X0300163Y0078150D01*
X0300650Y0077663D01*
X0301207Y0077258D01*
X0301821Y0076946D01*
X0302476Y0076733D01*
X0303156Y0076625D01*
X0303500Y0076625D01*
X0303844Y0076625D01*
X0304524Y0076733D01*
X0305179Y0076946D01*
X0305793Y0077258D01*
X0306350Y0077663D01*
X0306837Y0078150D01*
X0307242Y0078707D01*
X0307554Y0079321D01*
X0307725Y0079847D01*
X0307725Y0077789D01*
X0308212Y0076613D01*
X0309113Y0075712D01*
X0310289Y0075225D01*
X0316711Y0075225D01*
X0317887Y0075712D01*
X0318788Y0076613D01*
X0319275Y0077789D01*
X0319275Y0083618D01*
X0349391Y0113734D01*
X0350000Y0115204D01*
X0350000Y0128100D01*
X0351833Y0128100D01*
X0354112Y0129044D01*
X0355856Y0130788D01*
X0356800Y0133067D01*
X0356800Y0135533D01*
X0355856Y0137812D01*
X0355158Y0138510D01*
X0355360Y0138594D01*
X0356260Y0139494D01*
X0356747Y0140671D01*
X0356747Y0147944D01*
X0356260Y0149120D01*
X0355360Y0150020D01*
X0354184Y0150507D01*
X0350004Y0150507D01*
X0337500Y0163011D01*
X0337500Y0247773D01*
X0338084Y0248016D01*
X0338984Y0248916D01*
X0339472Y0250092D01*
X0339472Y0256908D01*
X0338984Y0258084D01*
X0338084Y0258984D01*
X0336908Y0259472D01*
X0330092Y0259472D01*
X0328916Y0258984D01*
X0328016Y0258084D01*
X0327824Y0257621D01*
X0326883Y0258563D01*
X0324688Y0259472D01*
X0322312Y0259472D01*
X0320117Y0258563D01*
X0318437Y0256883D01*
X0317748Y0255219D01*
X0317737Y0255255D01*
X0317410Y0255896D01*
X0316987Y0256478D01*
X0316478Y0256987D01*
X0315896Y0257410D01*
X0315255Y0257737D01*
X0314571Y0257959D01*
X0313860Y0258072D01*
X0313586Y0258072D01*
X0313586Y0253586D01*
X0313414Y0253586D01*
X0313414Y0258072D01*
X0313140Y0258072D01*
X0312429Y0257959D01*
X0311745Y0257737D01*
X0311104Y0257410D01*
X0310522Y0256987D01*
X0310013Y0256478D01*
X0309590Y0255896D01*
X0309263Y0255255D01*
X0309252Y0255219D01*
X0308563Y0256883D01*
X0306883Y0258563D01*
X0304688Y0259472D01*
X0302312Y0259472D01*
X0300117Y0258563D01*
X0298500Y0256945D01*
X0296883Y0258563D01*
X0294688Y0259472D01*
X0292312Y0259472D01*
X0290117Y0258563D01*
X0288500Y0256945D01*
X0286883Y0258563D01*
X0284688Y0259472D01*
X0282312Y0259472D01*
X0280117Y0258563D01*
X0278500Y0256945D01*
X0276883Y0258563D01*
X0274688Y0259472D01*
X0272312Y0259472D01*
X0270117Y0258563D01*
X0268437Y0256883D01*
X0267528Y0254688D01*
X0267528Y0252312D01*
X0268437Y0250117D01*
X0269500Y0249055D01*
X0269500Y0200604D01*
X0270109Y0199134D01*
X0318926Y0150317D01*
X0317088Y0149556D01*
X0315344Y0147812D01*
X0314830Y0146571D01*
X0314705Y0146816D01*
X0314261Y0147427D01*
X0313727Y0147961D01*
X0313116Y0148405D01*
X0312443Y0148748D01*
X0311724Y0148982D01*
X0310978Y0149100D01*
X0310800Y0149100D01*
X0310800Y0144500D01*
X0310400Y0144500D01*
X0310400Y0149100D01*
X0310222Y0149100D01*
X0309476Y0148982D01*
X0308757Y0148748D01*
X0308084Y0148405D01*
X0307473Y0147961D01*
X0306939Y0147427D01*
X0306495Y0146816D01*
X0306370Y0146571D01*
X0305856Y0147812D01*
X0304112Y0149556D01*
X0301833Y0150500D01*
X0299367Y0150500D01*
X0297088Y0149556D01*
X0295600Y0148068D01*
X0294112Y0149556D01*
X0291833Y0150500D01*
X0289367Y0150500D01*
X0287088Y0149556D01*
X0285600Y0148068D01*
X0284112Y0149556D01*
X0281833Y0150500D01*
X0279367Y0150500D01*
X0277088Y0149556D01*
X0275600Y0148068D01*
X0274112Y0149556D01*
X0271833Y0150500D01*
X0269367Y0150500D01*
X0267088Y0149556D01*
X0265600Y0148068D01*
X0264112Y0149556D01*
X0261833Y0150500D01*
X0259367Y0150500D01*
X0257088Y0149556D01*
X0255600Y0148068D01*
X0254112Y0149556D01*
X0251833Y0150500D01*
X0249367Y0150500D01*
X0247088Y0149556D01*
X0245600Y0148068D01*
X0244112Y0149556D01*
X0241833Y0150500D01*
X0239367Y0150500D01*
X0237088Y0149556D01*
X0235344Y0147812D01*
X0234830Y0146571D01*
X0234705Y0146816D01*
X0234261Y0147427D01*
X0233727Y0147961D01*
X0233116Y0148405D01*
X0232443Y0148748D01*
X0231724Y0148982D01*
X0230978Y0149100D01*
X0230800Y0149100D01*
X0230800Y0144500D01*
X0230400Y0144500D01*
X0230400Y0149100D01*
X0230222Y0149100D01*
X0229476Y0148982D01*
X0228757Y0148748D01*
X0228084Y0148405D01*
X0227473Y0147961D01*
X0226939Y0147427D01*
X0226495Y0146816D01*
X0226370Y0146571D01*
X0225856Y0147812D01*
X0224112Y0149556D01*
X0221833Y0150500D01*
X0219367Y0150500D01*
X0217088Y0149556D01*
X0215600Y0148068D01*
X0214112Y0149556D01*
X0211833Y0150500D01*
X0209367Y0150500D01*
X0207088Y0149556D01*
X0205600Y0148068D01*
X0204112Y0149556D01*
X0201833Y0150500D01*
X0199367Y0150500D01*
X0197088Y0149556D01*
X0195600Y0148068D01*
X0194112Y0149556D01*
X0191833Y0150500D01*
X0189367Y0150500D01*
X0187088Y0149556D01*
X0185600Y0148068D01*
X0184112Y0149556D01*
X0181833Y0150500D01*
X0179367Y0150500D01*
X0177088Y0149556D01*
X0175600Y0148068D01*
X0174112Y0149556D01*
X0171833Y0150500D01*
X0169367Y0150500D01*
X0167088Y0149556D01*
X0165344Y0147812D01*
X0164830Y0146571D01*
X0164705Y0146816D01*
X0164261Y0147427D01*
X0163727Y0147961D01*
X0163116Y0148405D01*
X0162443Y0148748D01*
X0161724Y0148982D01*
X0160978Y0149100D01*
X0160800Y0149100D01*
X0160800Y0144500D01*
X0160400Y0144500D01*
X0160400Y0149100D01*
X0160222Y0149100D01*
X0159476Y0148982D01*
X0158757Y0148748D01*
X0158084Y0148405D01*
X0157473Y0147961D01*
X0156939Y0147427D01*
X0156495Y0146816D01*
X0156152Y0146143D01*
X0155918Y0145424D01*
X0155800Y0144678D01*
X0155800Y0144500D01*
X0160400Y0144500D01*
X0160400Y0144100D01*
X0155800Y0144100D01*
X0155800Y0143922D01*
X0155918Y0143176D01*
X0156152Y0142457D01*
X0156495Y0141784D01*
X0156939Y0141173D01*
X0157473Y0140639D01*
X0158084Y0140195D01*
X0158329Y0140070D01*
X0157088Y0139556D01*
X0155344Y0137812D01*
X0154400Y0135533D01*
X0154400Y0133067D01*
X0155344Y0130788D01*
X0157088Y0129044D01*
X0159367Y0128100D01*
X0161833Y0128100D01*
X0164112Y0129044D01*
X0165600Y0130532D01*
X0167088Y0129044D01*
X0169367Y0128100D01*
X0171833Y0128100D01*
X0174112Y0129044D01*
X0175600Y0130532D01*
X0177088Y0129044D01*
X0179367Y0128100D01*
X0181833Y0128100D01*
X0184112Y0129044D01*
X0185856Y0130788D01*
X0186370Y0132029D01*
X0186495Y0131784D01*
X0186939Y0131173D01*
X0187473Y0130639D01*
X0188084Y0130195D01*
X0188757Y0129852D01*
X0189476Y0129618D01*
X0190222Y0129500D01*
X0190400Y0129500D01*
X0190400Y0134100D01*
X0190800Y0134100D01*
X0190800Y0129500D01*
X0190978Y0129500D01*
X0191724Y0129618D01*
X0192443Y0129852D01*
X0193116Y0130195D01*
X0193727Y0130639D01*
X0194261Y0131173D01*
X0194705Y0131784D01*
X0194830Y0132029D01*
X0195344Y0130788D01*
X0197088Y0129044D01*
X0199367Y0128100D01*
X0201833Y0128100D01*
X0204112Y0129044D01*
X0205856Y0130788D01*
X0206370Y0132029D01*
X0206495Y0131784D01*
X0206939Y0131173D01*
X0207473Y0130639D01*
X0208084Y0130195D01*
X0208757Y0129852D01*
X0209476Y0129618D01*
X0210222Y0129500D01*
X0210400Y0129500D01*
X0210400Y0134100D01*
X0210800Y0134100D01*
X0210800Y0129500D01*
X0210978Y0129500D01*
X0211724Y0129618D01*
X0212443Y0129852D01*
X0213116Y0130195D01*
X0213727Y0130639D01*
X0214261Y0131173D01*
X0214705Y0131784D01*
X0214830Y0132029D01*
X0215344Y0130788D01*
X0217088Y0129044D01*
X0219367Y0128100D01*
X0221833Y0128100D01*
X0224112Y0129044D01*
X0225600Y0130532D01*
X0227088Y0129044D01*
X0228926Y0128283D01*
X0227643Y0127000D01*
X0128657Y0127000D01*
X0118766Y0136891D01*
X0117296Y0137500D01*
X0032667Y0137500D01*
X0031771Y0138396D01*
X0029649Y0139275D01*
X0027351Y0139275D01*
X0025229Y0138396D01*
X0023604Y0136771D01*
X0022726Y0134651D01*
X0022554Y0135179D01*
X0022242Y0135793D01*
X0021837Y0136350D01*
X0021350Y0136837D01*
X0020793Y0137242D01*
X0020179Y0137554D01*
X0019524Y0137767D01*
X0018844Y0137875D01*
X0018500Y0137875D01*
X0018156Y0137875D01*
X0017476Y0137767D01*
X0016821Y0137554D01*
X0016207Y0137242D01*
X0015650Y0136837D01*
X0015163Y0136350D01*
X0014758Y0135793D01*
X0014446Y0135179D01*
X0014233Y0134524D01*
X0014125Y0133844D01*
X0014125Y0133500D01*
X0018500Y0133500D01*
X0018500Y0133500D01*
X0018500Y0137875D01*
X0018500Y0133500D01*
X0018500Y0133500D01*
X0014125Y0133500D01*
X0014125Y0133156D01*
X0014233Y0132476D01*
X0014446Y0131821D01*
X0014758Y0131207D01*
X0015163Y0130650D01*
X0015650Y0130163D01*
X0016207Y0129758D01*
X0016821Y0129446D01*
X0017349Y0129274D01*
X0015229Y0128396D01*
X0013604Y0126771D01*
X0012725Y0124649D01*
X0012725Y0122351D01*
X0013604Y0120229D01*
X0015229Y0118604D01*
X0017349Y0117726D01*
X0016821Y0117554D01*
X0016207Y0117242D01*
X0015650Y0116837D01*
X0015163Y0116350D01*
X0014758Y0115793D01*
X0014446Y0115179D01*
X0014233Y0114524D01*
X0014125Y0113844D01*
X0014125Y0113500D01*
X0018500Y0113500D01*
X0018500Y0113500D01*
X0018500Y0117875D01*
X0018156Y0117875D01*
X0017476Y0117767D01*
X0016821Y0117554D01*
X0016207Y0117242D01*
X0015650Y0116837D01*
X0015163Y0116350D01*
X0014758Y0115793D01*
X0014446Y0115179D01*
X0014233Y0114524D01*
X0014125Y0113844D01*
X0014125Y0113500D01*
X0018500Y0113500D01*
X0022875Y0113500D01*
X0022875Y0113844D01*
X0022767Y0114524D01*
X0022554Y0115179D01*
X0022242Y0115793D01*
X0021837Y0116350D01*
X0021350Y0116837D01*
X0020793Y0117242D01*
X0020179Y0117554D01*
X0019524Y0117767D01*
X0018844Y0117875D01*
X0018500Y0117875D01*
X0018500Y0113500D01*
X0018500Y0113500D01*
X0018500Y0113500D01*
X0022875Y0113500D01*
X0022875Y0113156D01*
X0022767Y0112476D01*
X0022554Y0111821D01*
X0022242Y0111207D01*
X0021837Y0110650D01*
X0021350Y0110163D01*
X0020793Y0109758D01*
X0020179Y0109446D01*
X0019524Y0109233D01*
X0018844Y0109125D01*
X0018500Y0109125D01*
X0018500Y0113500D01*
X0018500Y0113500D01*
X0018500Y0113500D01*
X0014125Y0113500D01*
X0014125Y0113156D01*
X0014233Y0112476D01*
X0014446Y0111821D01*
X0014758Y0111207D01*
X0015163Y0110650D01*
X0015650Y0110163D01*
X0016207Y0109758D01*
X0016821Y0109446D01*
X0017476Y0109233D01*
X0018156Y0109125D01*
X0018500Y0109125D01*
X0018500Y0113500D01*
X0014125Y0113500D01*
X0014125Y0113156D01*
X0014233Y0112476D01*
X0014446Y0111821D01*
X0014758Y0111207D01*
X0015163Y0110650D01*
X0015650Y0110163D01*
X0016207Y0109758D01*
X0016821Y0109446D01*
X0017349Y0109274D01*
X0015229Y0108396D01*
X0013604Y0106771D01*
X0012725Y0104649D01*
X0012725Y0102351D01*
X0013604Y0100229D01*
X0015229Y0098604D01*
X0015481Y0098500D01*
X0015229Y0098396D01*
X0013604Y0096771D01*
X0012725Y0094649D01*
X0012725Y0092351D01*
X0013604Y0090229D01*
X0013833Y0090000D01*
X0012657Y0090000D01*
X0010000Y0092657D01*
X0010000Y0191843D01*
X0027657Y0209500D01*
X0073619Y0209500D01*
X0074509Y0208609D01*
X0075686Y0208122D01*
X0081314Y0208122D01*
X0082491Y0208609D01*
X0083391Y0209509D01*
X0083878Y0210686D01*
X0083878Y0216314D01*
X0083391Y0217491D01*
X0082491Y0218391D01*
X0081314Y0218878D01*
X0075686Y0218878D01*
X0074509Y0218391D01*
X0073619Y0217500D01*
X0025204Y0217500D01*
X0023734Y0216891D01*
X0022609Y0215766D01*
X0005800Y0198957D01*
X0005800Y0328300D01*
X0011200Y0333700D01*
X0014455Y0333700D01*
X0016219Y0334431D01*
X0017569Y0335781D01*
X0018300Y0337545D01*
X0018300Y0340800D01*
X0021000Y0343500D01*
X0021000Y0351000D01*
X0376000Y0351000D01*
X0383700Y0343300D01*
X0383700Y0337545D01*
X0384431Y0335781D01*
X0385781Y0334431D01*
X0386000Y0334340D01*
X0386000Y0067660D01*
X0385781Y0067569D01*
X0384431Y0066219D01*
X0383700Y0064455D01*
X0383700Y0023700D01*
X0378500Y0018500D01*
X0066000Y0018500D01*
X0081816Y0028175D02*
X0232766Y0028175D01*
X0232401Y0029773D02*
X0084032Y0029773D01*
X0085568Y0031372D02*
X0232401Y0031372D01*
X0232537Y0032970D02*
X0086491Y0032970D01*
X0087215Y0034569D02*
X0232966Y0034569D01*
X0233667Y0036167D02*
X0087643Y0036167D01*
X0087850Y0037766D02*
X0234590Y0037766D01*
X0236168Y0039364D02*
X0087850Y0039364D01*
X0087608Y0040963D02*
X0238558Y0040963D01*
X0248442Y0040963D02*
X0308558Y0040963D01*
X0306168Y0039364D02*
X0250832Y0039364D01*
X0252410Y0037766D02*
X0304590Y0037766D01*
X0303667Y0036167D02*
X0253333Y0036167D01*
X0254034Y0034569D02*
X0302966Y0034569D01*
X0302537Y0032970D02*
X0254463Y0032970D01*
X0254599Y0031372D02*
X0302401Y0031372D01*
X0302401Y0029773D02*
X0254599Y0029773D01*
X0254234Y0028175D02*
X0302766Y0028175D01*
X0303238Y0026576D02*
X0253762Y0026576D01*
X0252839Y0024978D02*
X0304161Y0024978D01*
X0305424Y0023379D02*
X0251576Y0023379D01*
X0249730Y0021781D02*
X0307270Y0021781D01*
X0319730Y0021781D02*
X0381781Y0021781D01*
X0383379Y0023379D02*
X0321576Y0023379D01*
X0322839Y0024978D02*
X0383700Y0024978D01*
X0383700Y0026576D02*
X0323762Y0026576D01*
X0324234Y0028175D02*
X0357684Y0028175D01*
X0358926Y0027458D02*
X0356224Y0029018D01*
X0354018Y0031224D01*
X0352458Y0033926D01*
X0351650Y0036940D01*
X0351650Y0040060D01*
X0352458Y0043074D01*
X0354018Y0045776D01*
X0356224Y0047982D01*
X0358926Y0049542D01*
X0361940Y0050350D01*
X0365060Y0050350D01*
X0368074Y0049542D01*
X0370776Y0047982D01*
X0372982Y0045776D01*
X0374542Y0043074D01*
X0375350Y0040060D01*
X0375350Y0036940D01*
X0374542Y0033926D01*
X0372982Y0031224D01*
X0370776Y0029018D01*
X0368074Y0027458D01*
X0365060Y0026650D01*
X0361940Y0026650D01*
X0358926Y0027458D01*
X0355468Y0029773D02*
X0324599Y0029773D01*
X0324599Y0031372D02*
X0353932Y0031372D01*
X0353009Y0032970D02*
X0324463Y0032970D01*
X0324034Y0034569D02*
X0352285Y0034569D01*
X0351857Y0036167D02*
X0323333Y0036167D01*
X0322410Y0037766D02*
X0351650Y0037766D01*
X0351650Y0039364D02*
X0320832Y0039364D01*
X0318442Y0040963D02*
X0351892Y0040963D01*
X0352320Y0042561D02*
X0087180Y0042561D01*
X0086416Y0044160D02*
X0353084Y0044160D01*
X0354007Y0045758D02*
X0085493Y0045758D01*
X0083902Y0047357D02*
X0355598Y0047357D01*
X0357909Y0048955D02*
X0081591Y0048955D01*
X0070409Y0048955D02*
X0035545Y0048955D01*
X0037143Y0047357D02*
X0068098Y0047357D01*
X0066507Y0045758D02*
X0038742Y0045758D01*
X0040340Y0044160D02*
X0065584Y0044160D01*
X0033946Y0050554D02*
X0383700Y0050554D01*
X0383700Y0052152D02*
X0032348Y0052152D01*
X0030749Y0053751D02*
X0383700Y0053751D01*
X0383700Y0055349D02*
X0029151Y0055349D01*
X0027552Y0056948D02*
X0383700Y0056948D01*
X0383700Y0058546D02*
X0025954Y0058546D01*
X0024355Y0060145D02*
X0383700Y0060145D01*
X0383700Y0061743D02*
X0022757Y0061743D01*
X0021158Y0063342D02*
X0383700Y0063342D01*
X0383901Y0064940D02*
X0019560Y0064940D01*
X0017961Y0066539D02*
X0384751Y0066539D01*
X0386000Y0068137D02*
X0016363Y0068137D01*
X0016000Y0069736D02*
X0386000Y0069736D01*
X0386000Y0071334D02*
X0016000Y0071334D01*
X0016000Y0072933D02*
X0386000Y0072933D01*
X0386000Y0074532D02*
X0016000Y0074532D01*
X0015870Y0076130D02*
X0240203Y0076130D01*
X0238605Y0077729D02*
X0014271Y0077729D01*
X0012673Y0079327D02*
X0237942Y0079327D01*
X0237725Y0080926D02*
X0011074Y0080926D01*
X0011000Y0086000D02*
X0006000Y0091000D01*
X0006000Y0193500D01*
X0026000Y0213500D01*
X0078500Y0213500D01*
X0083878Y0213602D02*
X0269500Y0213602D01*
X0269500Y0215201D02*
X0083878Y0215201D01*
X0083677Y0216799D02*
X0269500Y0216799D01*
X0269500Y0218398D02*
X0082474Y0218398D01*
X0083878Y0212003D02*
X0269500Y0212003D01*
X0269500Y0210405D02*
X0083762Y0210405D01*
X0082688Y0208806D02*
X0269500Y0208806D01*
X0269500Y0207208D02*
X0025365Y0207208D01*
X0026963Y0208806D02*
X0074312Y0208806D01*
X0074526Y0218398D02*
X0005800Y0218398D01*
X0005800Y0219996D02*
X0269500Y0219996D01*
X0269500Y0221595D02*
X0005800Y0221595D01*
X0005800Y0223193D02*
X0269500Y0223193D01*
X0269500Y0224792D02*
X0005800Y0224792D01*
X0005800Y0226390D02*
X0269500Y0226390D01*
X0269500Y0227989D02*
X0005800Y0227989D01*
X0005800Y0229587D02*
X0269500Y0229587D01*
X0269500Y0231186D02*
X0005800Y0231186D01*
X0005800Y0232784D02*
X0269500Y0232784D01*
X0269500Y0234383D02*
X0005800Y0234383D01*
X0005800Y0235981D02*
X0269500Y0235981D01*
X0269500Y0237580D02*
X0005800Y0237580D01*
X0005800Y0239178D02*
X0269500Y0239178D01*
X0269500Y0240777D02*
X0005800Y0240777D01*
X0005800Y0242375D02*
X0269500Y0242375D01*
X0269500Y0243974D02*
X0005800Y0243974D01*
X0005800Y0245572D02*
X0269500Y0245572D01*
X0269500Y0247171D02*
X0005800Y0247171D01*
X0005800Y0248769D02*
X0269500Y0248769D01*
X0268334Y0250368D02*
X0005800Y0250368D01*
X0005800Y0251966D02*
X0267672Y0251966D01*
X0267528Y0253565D02*
X0005800Y0253565D01*
X0005800Y0255163D02*
X0267725Y0255163D01*
X0268387Y0256762D02*
X0005800Y0256762D01*
X0005800Y0258360D02*
X0269915Y0258360D01*
X0273500Y0253500D02*
X0273500Y0201400D01*
X0330600Y0144300D01*
X0330600Y0143100D01*
X0326000Y0138500D01*
X0326000Y0113500D01*
X0293500Y0081000D01*
X0299058Y0079327D02*
X0299444Y0079327D01*
X0298395Y0077729D02*
X0300585Y0077729D01*
X0303500Y0077729D02*
X0303500Y0077729D01*
X0303500Y0076625D02*
X0303500Y0081000D01*
X0303500Y0081000D01*
X0303500Y0076625D01*
X0303500Y0079327D02*
X0303500Y0079327D01*
X0303500Y0080926D02*
X0303500Y0080926D01*
X0306415Y0077729D02*
X0307750Y0077729D01*
X0307725Y0079327D02*
X0307556Y0079327D01*
X0307725Y0082153D02*
X0307554Y0082679D01*
X0307242Y0083293D01*
X0306837Y0083850D01*
X0306350Y0084337D01*
X0305793Y0084742D01*
X0305179Y0085054D01*
X0304524Y0085267D01*
X0303844Y0085375D01*
X0303532Y0085375D01*
X0329391Y0111234D01*
X0330000Y0112704D01*
X0330000Y0114296D01*
X0330000Y0129535D01*
X0330222Y0129500D01*
X0330400Y0129500D01*
X0330400Y0134100D01*
X0330800Y0134100D01*
X0330800Y0129500D01*
X0330978Y0129500D01*
X0331724Y0129618D01*
X0332443Y0129852D01*
X0333116Y0130195D01*
X0333727Y0130639D01*
X0334261Y0131173D01*
X0334705Y0131784D01*
X0334830Y0132029D01*
X0335344Y0130788D01*
X0337088Y0129044D01*
X0339367Y0128100D01*
X0341833Y0128100D01*
X0342000Y0128169D01*
X0342000Y0117657D01*
X0311234Y0086891D01*
X0311118Y0086775D01*
X0310289Y0086775D01*
X0309113Y0086288D01*
X0308212Y0085387D01*
X0307725Y0084211D01*
X0307725Y0082153D01*
X0307725Y0082524D02*
X0307605Y0082524D01*
X0307725Y0084123D02*
X0306564Y0084123D01*
X0308546Y0085721D02*
X0303878Y0085721D01*
X0305476Y0087320D02*
X0311663Y0087320D01*
X0313261Y0088918D02*
X0307075Y0088918D01*
X0308673Y0090517D02*
X0314860Y0090517D01*
X0316458Y0092115D02*
X0310272Y0092115D01*
X0311870Y0093714D02*
X0318057Y0093714D01*
X0319655Y0095312D02*
X0313469Y0095312D01*
X0315068Y0096911D02*
X0321254Y0096911D01*
X0322852Y0098509D02*
X0316666Y0098509D01*
X0318265Y0100108D02*
X0324451Y0100108D01*
X0326049Y0101706D02*
X0319863Y0101706D01*
X0321462Y0103305D02*
X0327648Y0103305D01*
X0329246Y0104903D02*
X0323060Y0104903D01*
X0324659Y0106502D02*
X0330845Y0106502D01*
X0332443Y0108100D02*
X0326257Y0108100D01*
X0327856Y0109699D02*
X0334042Y0109699D01*
X0335640Y0111297D02*
X0329417Y0111297D01*
X0330000Y0112896D02*
X0337239Y0112896D01*
X0338837Y0114494D02*
X0330000Y0114494D01*
X0330000Y0116093D02*
X0340436Y0116093D01*
X0342000Y0117691D02*
X0330000Y0117691D01*
X0330000Y0119290D02*
X0342000Y0119290D01*
X0342000Y0120888D02*
X0330000Y0120888D01*
X0330000Y0122487D02*
X0342000Y0122487D01*
X0342000Y0124085D02*
X0330000Y0124085D01*
X0330000Y0125684D02*
X0342000Y0125684D01*
X0342000Y0127282D02*
X0330000Y0127282D01*
X0330000Y0128881D02*
X0337481Y0128881D01*
X0335652Y0130479D02*
X0333508Y0130479D01*
X0330800Y0130479D02*
X0330400Y0130479D01*
X0330400Y0132078D02*
X0330800Y0132078D01*
X0330800Y0133676D02*
X0330400Y0133676D01*
X0322000Y0127282D02*
X0270000Y0127282D01*
X0270000Y0125684D02*
X0322000Y0125684D01*
X0322000Y0124085D02*
X0269536Y0124085D01*
X0268144Y0122487D02*
X0322000Y0122487D01*
X0322000Y0120888D02*
X0266545Y0120888D01*
X0264947Y0119290D02*
X0322000Y0119290D01*
X0322000Y0117691D02*
X0263348Y0117691D01*
X0261750Y0116093D02*
X0322000Y0116093D01*
X0321337Y0114494D02*
X0260151Y0114494D01*
X0258553Y0112896D02*
X0319739Y0112896D01*
X0318140Y0111297D02*
X0256954Y0111297D01*
X0255356Y0109699D02*
X0316542Y0109699D01*
X0314943Y0108100D02*
X0253757Y0108100D01*
X0252159Y0106502D02*
X0313345Y0106502D01*
X0311746Y0104903D02*
X0250560Y0104903D01*
X0248962Y0103305D02*
X0310148Y0103305D01*
X0308549Y0101706D02*
X0247363Y0101706D01*
X0245763Y0100108D02*
X0306951Y0100108D01*
X0305352Y0098509D02*
X0234090Y0098509D01*
X0234378Y0096911D02*
X0303754Y0096911D01*
X0302155Y0095312D02*
X0234378Y0095312D01*
X0234378Y0093714D02*
X0300557Y0093714D01*
X0298958Y0092115D02*
X0234349Y0092115D01*
X0233398Y0090517D02*
X0297360Y0090517D01*
X0295761Y0088918D02*
X0033593Y0088918D01*
X0034275Y0090517D02*
X0224602Y0090517D01*
X0223651Y0092115D02*
X0034275Y0092115D01*
X0034275Y0093714D02*
X0223622Y0093714D01*
X0223622Y0095312D02*
X0034275Y0095312D01*
X0034192Y0096911D02*
X0223622Y0096911D01*
X0223910Y0098509D02*
X0033166Y0098509D01*
X0028500Y0103500D02*
X0231000Y0103500D01*
X0229000Y0101500D01*
X0229000Y0095000D01*
X0231000Y0103500D02*
X0243500Y0103500D01*
X0266000Y0126000D01*
X0266000Y0139700D01*
X0270600Y0144300D01*
X0267343Y0149662D02*
X0263857Y0149662D01*
X0257343Y0149662D02*
X0253857Y0149662D01*
X0247343Y0149662D02*
X0243857Y0149662D01*
X0237343Y0149662D02*
X0223857Y0149662D01*
X0225605Y0148063D02*
X0227613Y0148063D01*
X0230400Y0148063D02*
X0230800Y0148063D01*
X0230800Y0146465D02*
X0230400Y0146465D01*
X0230400Y0144866D02*
X0230800Y0144866D01*
X0233587Y0148063D02*
X0235595Y0148063D01*
X0240600Y0134300D02*
X0229300Y0123000D01*
X0127000Y0123000D01*
X0116500Y0133500D01*
X0028500Y0133500D01*
X0032667Y0129500D02*
X0114843Y0129500D01*
X0123609Y0120734D01*
X0124734Y0119609D01*
X0126204Y0119000D01*
X0230096Y0119000D01*
X0231566Y0119609D01*
X0240057Y0128100D01*
X0241833Y0128100D01*
X0244112Y0129044D01*
X0245600Y0130532D01*
X0247088Y0129044D01*
X0249367Y0128100D01*
X0251833Y0128100D01*
X0254112Y0129044D01*
X0255856Y0130788D01*
X0256370Y0132029D01*
X0256495Y0131784D01*
X0256939Y0131173D01*
X0257473Y0130639D01*
X0258084Y0130195D01*
X0258757Y0129852D01*
X0259476Y0129618D01*
X0260222Y0129500D01*
X0260400Y0129500D01*
X0260400Y0134100D01*
X0260800Y0134100D01*
X0260800Y0129500D01*
X0260978Y0129500D01*
X0261724Y0129618D01*
X0262000Y0129708D01*
X0262000Y0127657D01*
X0241843Y0107500D01*
X0032667Y0107500D01*
X0031771Y0108396D01*
X0031519Y0108500D01*
X0031771Y0108604D01*
X0033396Y0110229D01*
X0034275Y0112351D01*
X0034275Y0114649D01*
X0033396Y0116771D01*
X0031771Y0118396D01*
X0031519Y0118500D01*
X0031771Y0118604D01*
X0032667Y0119500D01*
X0067843Y0119500D01*
X0068622Y0118721D01*
X0068622Y0116186D01*
X0069109Y0115009D01*
X0070009Y0114109D01*
X0071186Y0113622D01*
X0076814Y0113622D01*
X0077991Y0114109D01*
X0078891Y0115009D01*
X0079378Y0116186D01*
X0079378Y0121814D01*
X0078891Y0122991D01*
X0077991Y0123891D01*
X0076814Y0124378D01*
X0074279Y0124378D01*
X0071766Y0126891D01*
X0070296Y0127500D01*
X0032667Y0127500D01*
X0031771Y0128396D01*
X0031519Y0128500D01*
X0031771Y0128604D01*
X0032667Y0129500D01*
X0032048Y0128881D02*
X0115462Y0128881D01*
X0117061Y0127282D02*
X0070821Y0127282D01*
X0072973Y0125684D02*
X0118659Y0125684D01*
X0120258Y0124085D02*
X0077521Y0124085D01*
X0079099Y0122487D02*
X0121856Y0122487D01*
X0123455Y0120888D02*
X0079378Y0120888D01*
X0079378Y0119290D02*
X0125505Y0119290D01*
X0128374Y0127282D02*
X0227926Y0127282D01*
X0227481Y0128881D02*
X0223719Y0128881D01*
X0225548Y0130479D02*
X0225652Y0130479D01*
X0217481Y0128881D02*
X0203719Y0128881D01*
X0205548Y0130479D02*
X0207692Y0130479D01*
X0210400Y0130479D02*
X0210800Y0130479D01*
X0210800Y0132078D02*
X0210400Y0132078D01*
X0210400Y0133676D02*
X0210800Y0133676D01*
X0213508Y0130479D02*
X0215652Y0130479D01*
X0197481Y0128881D02*
X0183719Y0128881D01*
X0185548Y0130479D02*
X0187692Y0130479D01*
X0190400Y0130479D02*
X0190800Y0130479D01*
X0190800Y0132078D02*
X0190400Y0132078D01*
X0190400Y0133676D02*
X0190800Y0133676D01*
X0193508Y0130479D02*
X0195652Y0130479D01*
X0177481Y0128881D02*
X0173719Y0128881D01*
X0175548Y0130479D02*
X0175652Y0130479D01*
X0167481Y0128881D02*
X0163719Y0128881D01*
X0165548Y0130479D02*
X0165652Y0130479D01*
X0157481Y0128881D02*
X0126776Y0128881D01*
X0125177Y0130479D02*
X0136237Y0130479D01*
X0135103Y0131134D02*
X0137432Y0129790D01*
X0140029Y0129094D01*
X0142719Y0129094D01*
X0145316Y0129790D01*
X0147645Y0131134D01*
X0149547Y0133036D01*
X0150891Y0135365D01*
X0151587Y0137962D01*
X0151587Y0140652D01*
X0150891Y0143249D01*
X0149547Y0145578D01*
X0147645Y0147480D01*
X0145316Y0148824D01*
X0142719Y0149520D01*
X0140029Y0149520D01*
X0137432Y0148824D01*
X0135103Y0147480D01*
X0133201Y0145578D01*
X0131857Y0143249D01*
X0131161Y0140652D01*
X0131161Y0137962D01*
X0131857Y0135365D01*
X0133201Y0133036D01*
X0135103Y0131134D01*
X0134159Y0132078D02*
X0123579Y0132078D01*
X0121980Y0133676D02*
X0132831Y0133676D01*
X0131909Y0135275D02*
X0120382Y0135275D01*
X0118783Y0136873D02*
X0131452Y0136873D01*
X0131161Y0138472D02*
X0031587Y0138472D01*
X0025413Y0138472D02*
X0010000Y0138472D01*
X0010000Y0140070D02*
X0131161Y0140070D01*
X0131433Y0141669D02*
X0010000Y0141669D01*
X0010000Y0143268D02*
X0131867Y0143268D01*
X0132790Y0144866D02*
X0010000Y0144866D01*
X0010000Y0146465D02*
X0134088Y0146465D01*
X0136113Y0148063D02*
X0010000Y0148063D01*
X0010000Y0149662D02*
X0167343Y0149662D01*
X0165595Y0148063D02*
X0163587Y0148063D01*
X0160800Y0148063D02*
X0160400Y0148063D01*
X0160400Y0146465D02*
X0160800Y0146465D01*
X0160800Y0144866D02*
X0160400Y0144866D01*
X0157613Y0148063D02*
X0146635Y0148063D01*
X0148660Y0146465D02*
X0156316Y0146465D01*
X0155830Y0144866D02*
X0149958Y0144866D01*
X0150881Y0143268D02*
X0155904Y0143268D01*
X0156578Y0141669D02*
X0151315Y0141669D01*
X0151587Y0140070D02*
X0158328Y0140070D01*
X0156004Y0138472D02*
X0151587Y0138472D01*
X0151296Y0136873D02*
X0154955Y0136873D01*
X0154400Y0135275D02*
X0150839Y0135275D01*
X0149917Y0133676D02*
X0154400Y0133676D01*
X0154810Y0132078D02*
X0148589Y0132078D01*
X0146511Y0130479D02*
X0155652Y0130479D01*
X0173857Y0149662D02*
X0177343Y0149662D01*
X0183857Y0149662D02*
X0187343Y0149662D01*
X0193857Y0149662D02*
X0197343Y0149662D01*
X0203857Y0149662D02*
X0207343Y0149662D01*
X0213857Y0149662D02*
X0217343Y0149662D01*
X0239239Y0127282D02*
X0261626Y0127282D01*
X0262000Y0128881D02*
X0253719Y0128881D01*
X0255548Y0130479D02*
X0257692Y0130479D01*
X0260400Y0130479D02*
X0260800Y0130479D01*
X0260800Y0132078D02*
X0260400Y0132078D01*
X0260400Y0133676D02*
X0260800Y0133676D01*
X0260027Y0125684D02*
X0237641Y0125684D01*
X0236042Y0124085D02*
X0258429Y0124085D01*
X0256830Y0122487D02*
X0234444Y0122487D01*
X0232845Y0120888D02*
X0255231Y0120888D01*
X0253633Y0119290D02*
X0230795Y0119290D01*
X0243719Y0128881D02*
X0247481Y0128881D01*
X0245652Y0130479D02*
X0245548Y0130479D01*
X0252034Y0117691D02*
X0079378Y0117691D01*
X0079340Y0116093D02*
X0250436Y0116093D01*
X0248837Y0114494D02*
X0078376Y0114494D01*
X0074000Y0119000D02*
X0069500Y0123500D01*
X0028500Y0123500D01*
X0027409Y0119000D02*
X0027590Y0118925D01*
X0029410Y0118925D01*
X0029591Y0119000D01*
X0033000Y0119000D01*
X0035000Y0117000D01*
X0035000Y0110000D01*
X0033000Y0108000D01*
X0029591Y0108000D01*
X0029410Y0108075D01*
X0027590Y0108075D01*
X0027409Y0108000D01*
X0019591Y0108000D01*
X0019410Y0108075D01*
X0017590Y0108075D01*
X0017409Y0108000D01*
X0015000Y0108000D01*
X0014000Y0109000D01*
X0014000Y0117000D01*
X0016000Y0119000D01*
X0017409Y0119000D01*
X0017590Y0118925D01*
X0019410Y0118925D01*
X0019591Y0119000D01*
X0027409Y0119000D01*
X0027590Y0118075D02*
X0025909Y0117378D01*
X0024622Y0116091D01*
X0023925Y0114410D01*
X0023925Y0112590D01*
X0024622Y0110909D01*
X0025909Y0109622D01*
X0027590Y0108925D01*
X0029410Y0108925D01*
X0031091Y0109622D01*
X0032378Y0110909D01*
X0033075Y0112590D01*
X0033075Y0114410D01*
X0032378Y0116091D01*
X0031091Y0117378D01*
X0029410Y0118075D01*
X0027590Y0118075D01*
X0026664Y0117691D02*
X0019758Y0117691D01*
X0018500Y0117691D02*
X0018500Y0117691D01*
X0017242Y0117691D02*
X0010000Y0117691D01*
X0010000Y0116093D02*
X0014976Y0116093D01*
X0014000Y0116093D01*
X0014000Y0114494D02*
X0014228Y0114494D01*
X0010000Y0114494D01*
X0010000Y0112896D02*
X0014166Y0112896D01*
X0014000Y0112896D01*
X0014000Y0111297D02*
X0014712Y0111297D01*
X0010000Y0111297D01*
X0010000Y0109699D02*
X0016324Y0109699D01*
X0014000Y0109699D01*
X0014900Y0108100D02*
X0033100Y0108100D01*
X0032067Y0108100D02*
X0242443Y0108100D01*
X0244042Y0109699D02*
X0032866Y0109699D01*
X0032539Y0111297D02*
X0035000Y0111297D01*
X0033838Y0111297D02*
X0245640Y0111297D01*
X0247239Y0112896D02*
X0034275Y0112896D01*
X0035000Y0112896D02*
X0033075Y0112896D01*
X0033040Y0114494D02*
X0035000Y0114494D01*
X0034275Y0114494D02*
X0069624Y0114494D01*
X0068660Y0116093D02*
X0033677Y0116093D01*
X0032377Y0116093D02*
X0035000Y0116093D01*
X0034309Y0117691D02*
X0030336Y0117691D01*
X0032475Y0117691D02*
X0068622Y0117691D01*
X0068053Y0119290D02*
X0032457Y0119290D01*
X0024623Y0116093D02*
X0022024Y0116093D01*
X0022772Y0114494D02*
X0023960Y0114494D01*
X0023925Y0112896D02*
X0022834Y0112896D01*
X0022288Y0111297D02*
X0024461Y0111297D01*
X0025831Y0109699D02*
X0020676Y0109699D01*
X0018500Y0109699D02*
X0018500Y0109699D01*
X0018500Y0111297D02*
X0018500Y0111297D01*
X0018500Y0112896D02*
X0018500Y0112896D01*
X0018500Y0114494D02*
X0018500Y0114494D01*
X0018500Y0116093D02*
X0018500Y0116093D01*
X0017242Y0117691D02*
X0014691Y0117691D01*
X0014543Y0119290D02*
X0010000Y0119290D01*
X0010000Y0120888D02*
X0013331Y0120888D01*
X0012725Y0122487D02*
X0010000Y0122487D01*
X0010000Y0124085D02*
X0012725Y0124085D01*
X0013154Y0125684D02*
X0010000Y0125684D01*
X0010000Y0127282D02*
X0014116Y0127282D01*
X0016400Y0128881D02*
X0010000Y0128881D01*
X0010000Y0130479D02*
X0015334Y0130479D01*
X0014362Y0132078D02*
X0010000Y0132078D01*
X0010000Y0133676D02*
X0014125Y0133676D01*
X0014494Y0135275D02*
X0010000Y0135275D01*
X0010000Y0136873D02*
X0015700Y0136873D01*
X0018500Y0136873D02*
X0018500Y0136873D01*
X0018500Y0135275D02*
X0018500Y0135275D01*
X0018500Y0133676D02*
X0018500Y0133676D01*
X0021300Y0136873D02*
X0023707Y0136873D01*
X0022985Y0135275D02*
X0022506Y0135275D01*
X0010000Y0151260D02*
X0317983Y0151260D01*
X0317343Y0149662D02*
X0303857Y0149662D01*
X0305605Y0148063D02*
X0307613Y0148063D01*
X0310400Y0148063D02*
X0310800Y0148063D01*
X0310800Y0146465D02*
X0310400Y0146465D01*
X0310400Y0144866D02*
X0310800Y0144866D01*
X0313587Y0148063D02*
X0315595Y0148063D01*
X0316385Y0152859D02*
X0010000Y0152859D01*
X0010000Y0154457D02*
X0314786Y0154457D01*
X0313188Y0156056D02*
X0010000Y0156056D01*
X0010000Y0157654D02*
X0311589Y0157654D01*
X0309991Y0159253D02*
X0010000Y0159253D01*
X0010000Y0160851D02*
X0308392Y0160851D01*
X0306793Y0162450D02*
X0010000Y0162450D01*
X0010000Y0164048D02*
X0305195Y0164048D01*
X0303596Y0165647D02*
X0010000Y0165647D01*
X0010000Y0167245D02*
X0301998Y0167245D01*
X0300399Y0168844D02*
X0010000Y0168844D01*
X0010000Y0170442D02*
X0298801Y0170442D01*
X0297202Y0172041D02*
X0010000Y0172041D01*
X0010000Y0173639D02*
X0295604Y0173639D01*
X0294005Y0175238D02*
X0010000Y0175238D01*
X0010000Y0176836D02*
X0292407Y0176836D01*
X0290808Y0178435D02*
X0010000Y0178435D01*
X0010000Y0180033D02*
X0289210Y0180033D01*
X0287611Y0181632D02*
X0010000Y0181632D01*
X0010000Y0183230D02*
X0286013Y0183230D01*
X0284414Y0184829D02*
X0010000Y0184829D01*
X0010000Y0186427D02*
X0282816Y0186427D01*
X0281217Y0188026D02*
X0010000Y0188026D01*
X0010000Y0189624D02*
X0279619Y0189624D01*
X0278020Y0191223D02*
X0010000Y0191223D01*
X0010978Y0192821D02*
X0276422Y0192821D01*
X0274823Y0194420D02*
X0012577Y0194420D01*
X0014175Y0196018D02*
X0273225Y0196018D01*
X0271626Y0197617D02*
X0015774Y0197617D01*
X0017372Y0199215D02*
X0270075Y0199215D01*
X0269500Y0200814D02*
X0018971Y0200814D01*
X0020569Y0202412D02*
X0269500Y0202412D01*
X0269500Y0204011D02*
X0022168Y0204011D01*
X0023766Y0205609D02*
X0269500Y0205609D01*
X0283500Y0201400D02*
X0340600Y0144300D01*
X0346000Y0140000D02*
X0350000Y0144000D01*
X0350547Y0144307D02*
X0346000Y0139760D01*
X0346000Y0140000D01*
X0346000Y0139760D02*
X0346000Y0116000D01*
X0313500Y0083500D01*
X0313500Y0081000D01*
X0319275Y0080926D02*
X0386000Y0080926D01*
X0386000Y0082524D02*
X0319275Y0082524D01*
X0319779Y0084123D02*
X0386000Y0084123D01*
X0386000Y0085721D02*
X0321378Y0085721D01*
X0322976Y0087320D02*
X0386000Y0087320D01*
X0386000Y0088918D02*
X0324575Y0088918D01*
X0326173Y0090517D02*
X0386000Y0090517D01*
X0386000Y0092115D02*
X0327772Y0092115D01*
X0329371Y0093714D02*
X0386000Y0093714D01*
X0386000Y0095312D02*
X0330969Y0095312D01*
X0332568Y0096911D02*
X0386000Y0096911D01*
X0386000Y0098509D02*
X0334166Y0098509D01*
X0335765Y0100108D02*
X0386000Y0100108D01*
X0386000Y0101706D02*
X0337363Y0101706D01*
X0338962Y0103305D02*
X0386000Y0103305D01*
X0386000Y0104903D02*
X0340560Y0104903D01*
X0342159Y0106502D02*
X0386000Y0106502D01*
X0386000Y0108100D02*
X0343757Y0108100D01*
X0345356Y0109699D02*
X0386000Y0109699D01*
X0386000Y0111297D02*
X0346954Y0111297D01*
X0348553Y0112896D02*
X0386000Y0112896D01*
X0386000Y0114494D02*
X0349706Y0114494D01*
X0350000Y0116093D02*
X0386000Y0116093D01*
X0386000Y0117691D02*
X0350000Y0117691D01*
X0350000Y0119290D02*
X0386000Y0119290D01*
X0386000Y0120888D02*
X0350000Y0120888D01*
X0350000Y0122487D02*
X0386000Y0122487D01*
X0386000Y0124085D02*
X0350000Y0124085D01*
X0350000Y0125684D02*
X0386000Y0125684D01*
X0386000Y0127282D02*
X0350000Y0127282D01*
X0353719Y0128881D02*
X0386000Y0128881D01*
X0386000Y0130479D02*
X0374857Y0130479D01*
X0375992Y0131134D02*
X0377893Y0133036D01*
X0379238Y0135365D01*
X0379934Y0137962D01*
X0379934Y0140652D01*
X0379238Y0143249D01*
X0377893Y0145578D01*
X0375992Y0147480D01*
X0373663Y0148824D01*
X0371065Y0149520D01*
X0368376Y0149520D01*
X0365778Y0148824D01*
X0363449Y0147480D01*
X0361548Y0145578D01*
X0360203Y0143249D01*
X0359507Y0140652D01*
X0359507Y0137962D01*
X0360203Y0135365D01*
X0361548Y0133036D01*
X0363449Y0131134D01*
X0365778Y0129790D01*
X0368376Y0129094D01*
X0371065Y0129094D01*
X0373663Y0129790D01*
X0375992Y0131134D01*
X0376935Y0132078D02*
X0386000Y0132078D01*
X0386000Y0133676D02*
X0378263Y0133676D01*
X0379186Y0135275D02*
X0386000Y0135275D01*
X0386000Y0136873D02*
X0379642Y0136873D01*
X0379934Y0138472D02*
X0386000Y0138472D01*
X0386000Y0140070D02*
X0379934Y0140070D01*
X0379661Y0141669D02*
X0386000Y0141669D01*
X0386000Y0143268D02*
X0379227Y0143268D01*
X0378304Y0144866D02*
X0386000Y0144866D01*
X0386000Y0146465D02*
X0377007Y0146465D01*
X0374981Y0148063D02*
X0386000Y0148063D01*
X0386000Y0149662D02*
X0355718Y0149662D01*
X0356698Y0148063D02*
X0364459Y0148063D01*
X0362434Y0146465D02*
X0356747Y0146465D01*
X0356747Y0144866D02*
X0361137Y0144866D01*
X0360214Y0143268D02*
X0356747Y0143268D01*
X0356747Y0141669D02*
X0359780Y0141669D01*
X0359507Y0140070D02*
X0356499Y0140070D01*
X0355196Y0138472D02*
X0359507Y0138472D01*
X0359799Y0136873D02*
X0356245Y0136873D01*
X0356800Y0135275D02*
X0360255Y0135275D01*
X0361178Y0133676D02*
X0356800Y0133676D01*
X0356390Y0132078D02*
X0362506Y0132078D01*
X0364584Y0130479D02*
X0355548Y0130479D01*
X0350547Y0144307D02*
X0333500Y0161354D01*
X0333500Y0253500D01*
X0323500Y0253500D01*
X0327824Y0249379D02*
X0328016Y0248916D01*
X0328916Y0248016D01*
X0329500Y0247773D01*
X0329500Y0161057D01*
X0287500Y0203057D01*
X0287500Y0249055D01*
X0288500Y0250055D01*
X0290117Y0248437D01*
X0292312Y0247528D01*
X0294688Y0247528D01*
X0296883Y0248437D01*
X0298500Y0250055D01*
X0300117Y0248437D01*
X0302312Y0247528D01*
X0304688Y0247528D01*
X0306883Y0248437D01*
X0308563Y0250117D01*
X0309252Y0251781D01*
X0309263Y0251745D01*
X0309590Y0251104D01*
X0310013Y0250522D01*
X0310522Y0250013D01*
X0311104Y0249590D01*
X0311745Y0249263D01*
X0312429Y0249041D01*
X0313140Y0248928D01*
X0313414Y0248928D01*
X0313414Y0253414D01*
X0313586Y0253414D01*
X0313586Y0248928D01*
X0313860Y0248928D01*
X0314571Y0249041D01*
X0315255Y0249263D01*
X0315896Y0249590D01*
X0316478Y0250013D01*
X0316987Y0250522D01*
X0317410Y0251104D01*
X0317737Y0251745D01*
X0317748Y0251781D01*
X0318437Y0250117D01*
X0320117Y0248437D01*
X0322312Y0247528D01*
X0324688Y0247528D01*
X0326883Y0248437D01*
X0327824Y0249379D01*
X0328162Y0248769D02*
X0327214Y0248769D01*
X0329500Y0247171D02*
X0287500Y0247171D01*
X0287500Y0248769D02*
X0289786Y0248769D01*
X0287500Y0245572D02*
X0329500Y0245572D01*
X0329500Y0243974D02*
X0287500Y0243974D01*
X0287500Y0242375D02*
X0329500Y0242375D01*
X0329500Y0240777D02*
X0287500Y0240777D01*
X0287500Y0239178D02*
X0329500Y0239178D01*
X0329500Y0237580D02*
X0287500Y0237580D01*
X0287500Y0235981D02*
X0329500Y0235981D01*
X0329500Y0234383D02*
X0287500Y0234383D01*
X0287500Y0232784D02*
X0329500Y0232784D01*
X0329500Y0231186D02*
X0287500Y0231186D01*
X0287500Y0229587D02*
X0329500Y0229587D01*
X0329500Y0227989D02*
X0287500Y0227989D01*
X0287500Y0226390D02*
X0329500Y0226390D01*
X0329500Y0224792D02*
X0287500Y0224792D01*
X0287500Y0223193D02*
X0329500Y0223193D01*
X0329500Y0221595D02*
X0287500Y0221595D01*
X0287500Y0219996D02*
X0329500Y0219996D01*
X0329500Y0218398D02*
X0287500Y0218398D01*
X0287500Y0216799D02*
X0329500Y0216799D01*
X0329500Y0215201D02*
X0287500Y0215201D01*
X0287500Y0213602D02*
X0329500Y0213602D01*
X0329500Y0212003D02*
X0287500Y0212003D01*
X0287500Y0210405D02*
X0329500Y0210405D01*
X0329500Y0208806D02*
X0287500Y0208806D01*
X0287500Y0207208D02*
X0329500Y0207208D01*
X0329500Y0205609D02*
X0287500Y0205609D01*
X0287500Y0204011D02*
X0329500Y0204011D01*
X0329500Y0202412D02*
X0288144Y0202412D01*
X0289743Y0200814D02*
X0329500Y0200814D01*
X0329500Y0199215D02*
X0291341Y0199215D01*
X0292940Y0197617D02*
X0329500Y0197617D01*
X0329500Y0196018D02*
X0294538Y0196018D01*
X0296137Y0194420D02*
X0329500Y0194420D01*
X0329500Y0192821D02*
X0297735Y0192821D01*
X0299334Y0191223D02*
X0329500Y0191223D01*
X0329500Y0189624D02*
X0300933Y0189624D01*
X0302531Y0188026D02*
X0329500Y0188026D01*
X0329500Y0186427D02*
X0304130Y0186427D01*
X0305728Y0184829D02*
X0329500Y0184829D01*
X0329500Y0183230D02*
X0307327Y0183230D01*
X0308925Y0181632D02*
X0329500Y0181632D01*
X0329500Y0180033D02*
X0310524Y0180033D01*
X0312122Y0178435D02*
X0329500Y0178435D01*
X0329500Y0176836D02*
X0313721Y0176836D01*
X0315319Y0175238D02*
X0329500Y0175238D01*
X0329500Y0173639D02*
X0316918Y0173639D01*
X0318516Y0172041D02*
X0329500Y0172041D01*
X0329500Y0170442D02*
X0320115Y0170442D01*
X0321713Y0168844D02*
X0329500Y0168844D01*
X0329500Y0167245D02*
X0323312Y0167245D01*
X0324910Y0165647D02*
X0329500Y0165647D01*
X0329500Y0164048D02*
X0326509Y0164048D01*
X0328107Y0162450D02*
X0329500Y0162450D01*
X0337500Y0164048D02*
X0386000Y0164048D01*
X0386000Y0162450D02*
X0338062Y0162450D01*
X0339660Y0160851D02*
X0386000Y0160851D01*
X0386000Y0159253D02*
X0341259Y0159253D01*
X0342857Y0157654D02*
X0386000Y0157654D01*
X0386000Y0156056D02*
X0344456Y0156056D01*
X0346054Y0154457D02*
X0386000Y0154457D01*
X0386000Y0152859D02*
X0347653Y0152859D01*
X0349251Y0151260D02*
X0386000Y0151260D01*
X0386000Y0165647D02*
X0337500Y0165647D01*
X0337500Y0167245D02*
X0386000Y0167245D01*
X0386000Y0168844D02*
X0337500Y0168844D01*
X0337500Y0170442D02*
X0386000Y0170442D01*
X0386000Y0172041D02*
X0337500Y0172041D01*
X0337500Y0173639D02*
X0386000Y0173639D01*
X0386000Y0175238D02*
X0337500Y0175238D01*
X0337500Y0176836D02*
X0386000Y0176836D01*
X0386000Y0178435D02*
X0337500Y0178435D01*
X0337500Y0180033D02*
X0386000Y0180033D01*
X0386000Y0181632D02*
X0337500Y0181632D01*
X0337500Y0183230D02*
X0386000Y0183230D01*
X0386000Y0184829D02*
X0337500Y0184829D01*
X0337500Y0186427D02*
X0386000Y0186427D01*
X0386000Y0188026D02*
X0337500Y0188026D01*
X0337500Y0189624D02*
X0386000Y0189624D01*
X0386000Y0191223D02*
X0337500Y0191223D01*
X0337500Y0192821D02*
X0386000Y0192821D01*
X0386000Y0194420D02*
X0337500Y0194420D01*
X0337500Y0196018D02*
X0386000Y0196018D01*
X0386000Y0197617D02*
X0337500Y0197617D01*
X0337500Y0199215D02*
X0386000Y0199215D01*
X0386000Y0200814D02*
X0337500Y0200814D01*
X0337500Y0202412D02*
X0386000Y0202412D01*
X0386000Y0204011D02*
X0337500Y0204011D01*
X0337500Y0205609D02*
X0386000Y0205609D01*
X0386000Y0207208D02*
X0337500Y0207208D01*
X0337500Y0208806D02*
X0386000Y0208806D01*
X0386000Y0210405D02*
X0337500Y0210405D01*
X0337500Y0212003D02*
X0386000Y0212003D01*
X0386000Y0213602D02*
X0337500Y0213602D01*
X0337500Y0215201D02*
X0386000Y0215201D01*
X0386000Y0216799D02*
X0337500Y0216799D01*
X0337500Y0218398D02*
X0386000Y0218398D01*
X0386000Y0219996D02*
X0337500Y0219996D01*
X0337500Y0221595D02*
X0386000Y0221595D01*
X0386000Y0223193D02*
X0337500Y0223193D01*
X0337500Y0224792D02*
X0386000Y0224792D01*
X0386000Y0226390D02*
X0337500Y0226390D01*
X0337500Y0227989D02*
X0386000Y0227989D01*
X0386000Y0229587D02*
X0337500Y0229587D01*
X0337500Y0231186D02*
X0386000Y0231186D01*
X0386000Y0232784D02*
X0337500Y0232784D01*
X0337500Y0234383D02*
X0386000Y0234383D01*
X0386000Y0235981D02*
X0337500Y0235981D01*
X0337500Y0237580D02*
X0386000Y0237580D01*
X0386000Y0239178D02*
X0337500Y0239178D01*
X0337500Y0240777D02*
X0386000Y0240777D01*
X0386000Y0242375D02*
X0337500Y0242375D01*
X0337500Y0243974D02*
X0386000Y0243974D01*
X0386000Y0245572D02*
X0337500Y0245572D01*
X0337500Y0247171D02*
X0386000Y0247171D01*
X0386000Y0248769D02*
X0338838Y0248769D01*
X0339472Y0250368D02*
X0386000Y0250368D01*
X0386000Y0251966D02*
X0339472Y0251966D01*
X0339472Y0253565D02*
X0386000Y0253565D01*
X0386000Y0255163D02*
X0339472Y0255163D01*
X0339472Y0256762D02*
X0386000Y0256762D01*
X0386000Y0258360D02*
X0338708Y0258360D01*
X0328292Y0258360D02*
X0327085Y0258360D01*
X0319915Y0258360D02*
X0307085Y0258360D01*
X0308613Y0256762D02*
X0310297Y0256762D01*
X0313414Y0256762D02*
X0313586Y0256762D01*
X0313586Y0255163D02*
X0313414Y0255163D01*
X0313414Y0251966D02*
X0313586Y0251966D01*
X0313586Y0250368D02*
X0313414Y0250368D01*
X0310167Y0250368D02*
X0308666Y0250368D01*
X0307214Y0248769D02*
X0319786Y0248769D01*
X0318334Y0250368D02*
X0316833Y0250368D01*
X0316703Y0256762D02*
X0318387Y0256762D01*
X0299915Y0258360D02*
X0297085Y0258360D01*
X0289915Y0258360D02*
X0287085Y0258360D01*
X0283500Y0253500D02*
X0283500Y0201400D01*
X0297214Y0248769D02*
X0299786Y0248769D01*
X0279915Y0258360D02*
X0277085Y0258360D01*
X0277039Y0312401D02*
X0279961Y0312401D01*
X0282784Y0313157D01*
X0285315Y0314618D01*
X0287382Y0316685D01*
X0288843Y0319216D01*
X0289599Y0322039D01*
X0289599Y0324961D01*
X0288843Y0327784D01*
X0287382Y0330315D01*
X0285315Y0332382D01*
X0282784Y0333843D01*
X0279961Y0334599D01*
X0277039Y0334599D01*
X0274216Y0333843D01*
X0271685Y0332382D01*
X0269618Y0330315D01*
X0268157Y0327784D01*
X0267401Y0324961D01*
X0267401Y0322039D01*
X0268157Y0319216D01*
X0269618Y0316685D01*
X0271685Y0314618D01*
X0274216Y0313157D01*
X0277039Y0312401D01*
X0275886Y0312710D02*
X0047778Y0312710D01*
X0047650Y0312582D02*
X0047921Y0312853D01*
X0048409Y0314029D01*
X0048409Y0320845D01*
X0047921Y0322021D01*
X0047021Y0322921D01*
X0045845Y0323409D01*
X0039029Y0323409D01*
X0037853Y0322921D01*
X0036953Y0322021D01*
X0036723Y0321467D01*
X0036318Y0321674D01*
X0035634Y0321896D01*
X0034923Y0322009D01*
X0034649Y0322009D01*
X0034649Y0317523D01*
X0034477Y0317523D01*
X0034477Y0322009D01*
X0034203Y0322009D01*
X0033492Y0321896D01*
X0032808Y0321674D01*
X0032167Y0321347D01*
X0031585Y0320924D01*
X0031076Y0320415D01*
X0030653Y0319833D01*
X0030326Y0319192D01*
X0030104Y0318508D01*
X0029991Y0317797D01*
X0029991Y0317523D01*
X0034477Y0317523D01*
X0034477Y0317351D01*
X0034649Y0317351D01*
X0034649Y0309649D01*
X0034477Y0309649D01*
X0034477Y0314135D01*
X0034477Y0317351D01*
X0029991Y0317351D01*
X0029991Y0317077D01*
X0030104Y0316366D01*
X0030326Y0315682D01*
X0030653Y0315041D01*
X0031076Y0314459D01*
X0031585Y0313950D01*
X0032167Y0313527D01*
X0032220Y0313500D01*
X0032167Y0313473D01*
X0031585Y0313050D01*
X0031076Y0312541D01*
X0030653Y0311959D01*
X0030326Y0311318D01*
X0030104Y0310634D01*
X0029991Y0309923D01*
X0029991Y0309649D01*
X0034477Y0309649D01*
X0034477Y0309477D01*
X0029991Y0309477D01*
X0029991Y0309203D01*
X0030104Y0308492D01*
X0030326Y0307808D01*
X0030653Y0307167D01*
X0031076Y0306585D01*
X0031585Y0306076D01*
X0032167Y0305653D01*
X0032808Y0305326D01*
X0033492Y0305104D01*
X0034203Y0304991D01*
X0034477Y0304991D01*
X0034477Y0309477D01*
X0034649Y0309477D01*
X0034649Y0304991D01*
X0034923Y0304991D01*
X0035634Y0305104D01*
X0036318Y0305326D01*
X0036959Y0305653D01*
X0037505Y0306050D01*
X0039054Y0304500D01*
X0041249Y0303591D01*
X0043625Y0303591D01*
X0045820Y0304500D01*
X0047500Y0306180D01*
X0048409Y0308375D01*
X0048409Y0310751D01*
X0047650Y0312582D01*
X0048259Y0311111D02*
X0386000Y0311111D01*
X0386000Y0309513D02*
X0048409Y0309513D01*
X0048218Y0307914D02*
X0386000Y0307914D01*
X0386000Y0306316D02*
X0047556Y0306316D01*
X0046036Y0304717D02*
X0386000Y0304717D01*
X0386000Y0303119D02*
X0005800Y0303119D01*
X0005800Y0304717D02*
X0038838Y0304717D01*
X0034649Y0306316D02*
X0034477Y0306316D01*
X0034477Y0307914D02*
X0034649Y0307914D01*
X0034477Y0309513D02*
X0005800Y0309513D01*
X0005800Y0311111D02*
X0030259Y0311111D01*
X0031244Y0312710D02*
X0005800Y0312710D01*
X0005800Y0314308D02*
X0031226Y0314308D01*
X0030253Y0315907D02*
X0005800Y0315907D01*
X0005800Y0317505D02*
X0034477Y0317505D01*
X0034477Y0315907D02*
X0034649Y0315907D01*
X0034649Y0314308D02*
X0034477Y0314308D01*
X0034477Y0312710D02*
X0034649Y0312710D01*
X0034649Y0311111D02*
X0034477Y0311111D01*
X0030292Y0307914D02*
X0005800Y0307914D01*
X0005800Y0306316D02*
X0031345Y0306316D01*
X0030298Y0319104D02*
X0005800Y0319104D01*
X0005800Y0320702D02*
X0031363Y0320702D01*
X0034477Y0320702D02*
X0034649Y0320702D01*
X0034649Y0319104D02*
X0034477Y0319104D01*
X0037232Y0322301D02*
X0005800Y0322301D01*
X0005800Y0323899D02*
X0135360Y0323899D01*
X0135103Y0324048D02*
X0137432Y0322703D01*
X0140029Y0322007D01*
X0142719Y0322007D01*
X0145316Y0322703D01*
X0147645Y0324048D01*
X0149547Y0325949D01*
X0150891Y0328278D01*
X0151587Y0330876D01*
X0151587Y0333565D01*
X0150891Y0336163D01*
X0149547Y0338492D01*
X0147645Y0340393D01*
X0145316Y0341738D01*
X0142719Y0342434D01*
X0140029Y0342434D01*
X0137432Y0341738D01*
X0135103Y0340393D01*
X0133201Y0338492D01*
X0131857Y0336163D01*
X0131161Y0333565D01*
X0131161Y0330876D01*
X0131857Y0328278D01*
X0133201Y0325949D01*
X0135103Y0324048D01*
X0133653Y0325498D02*
X0005800Y0325498D01*
X0005800Y0327096D02*
X0132539Y0327096D01*
X0131745Y0328695D02*
X0006195Y0328695D01*
X0007793Y0330293D02*
X0131317Y0330293D01*
X0131161Y0331892D02*
X0009392Y0331892D01*
X0010990Y0333490D02*
X0131161Y0333490D01*
X0131569Y0335089D02*
X0016877Y0335089D01*
X0017945Y0336687D02*
X0132160Y0336687D01*
X0133082Y0338286D02*
X0018300Y0338286D01*
X0018300Y0339884D02*
X0134594Y0339884D01*
X0136990Y0341483D02*
X0018983Y0341483D01*
X0020581Y0343081D02*
X0383700Y0343081D01*
X0383700Y0341483D02*
X0374104Y0341483D01*
X0373663Y0341738D02*
X0375992Y0340393D01*
X0377893Y0338492D01*
X0379238Y0336163D01*
X0379934Y0333565D01*
X0379934Y0330876D01*
X0379238Y0328278D01*
X0377893Y0325949D01*
X0375992Y0324048D01*
X0373663Y0322703D01*
X0371065Y0322007D01*
X0368376Y0322007D01*
X0365778Y0322703D01*
X0363449Y0324048D01*
X0361548Y0325949D01*
X0360203Y0328278D01*
X0359507Y0330876D01*
X0359507Y0333565D01*
X0360203Y0336163D01*
X0361548Y0338492D01*
X0363449Y0340393D01*
X0365778Y0341738D01*
X0368376Y0342434D01*
X0371065Y0342434D01*
X0373663Y0341738D01*
X0376500Y0339884D02*
X0383700Y0339884D01*
X0383700Y0338286D02*
X0378012Y0338286D01*
X0378935Y0336687D02*
X0384055Y0336687D01*
X0385123Y0335089D02*
X0379526Y0335089D01*
X0379934Y0333490D02*
X0386000Y0333490D01*
X0386000Y0331892D02*
X0379934Y0331892D01*
X0379778Y0330293D02*
X0386000Y0330293D01*
X0386000Y0328695D02*
X0379349Y0328695D01*
X0378555Y0327096D02*
X0386000Y0327096D01*
X0386000Y0325498D02*
X0377442Y0325498D01*
X0375735Y0323899D02*
X0386000Y0323899D01*
X0386000Y0322301D02*
X0372161Y0322301D01*
X0367280Y0322301D02*
X0339599Y0322301D01*
X0339599Y0322039D02*
X0338843Y0319216D01*
X0337382Y0316685D01*
X0335315Y0314618D01*
X0332784Y0313157D01*
X0329961Y0312401D01*
X0327039Y0312401D01*
X0324216Y0313157D01*
X0321685Y0314618D01*
X0319618Y0316685D01*
X0318157Y0319216D01*
X0317401Y0322039D01*
X0317401Y0324961D01*
X0318157Y0327784D01*
X0319618Y0330315D01*
X0321685Y0332382D01*
X0324216Y0333843D01*
X0327039Y0334599D01*
X0329961Y0334599D01*
X0332784Y0333843D01*
X0335315Y0332382D01*
X0337382Y0330315D01*
X0338843Y0327784D01*
X0339599Y0324961D01*
X0339599Y0322039D01*
X0339241Y0320702D02*
X0386000Y0320702D01*
X0386000Y0319104D02*
X0338778Y0319104D01*
X0337855Y0317505D02*
X0386000Y0317505D01*
X0386000Y0315907D02*
X0336603Y0315907D01*
X0334778Y0314308D02*
X0386000Y0314308D01*
X0386000Y0312710D02*
X0331114Y0312710D01*
X0325886Y0312710D02*
X0281114Y0312710D01*
X0284778Y0314308D02*
X0322222Y0314308D01*
X0320397Y0315907D02*
X0286603Y0315907D01*
X0287855Y0317505D02*
X0319145Y0317505D01*
X0318222Y0319104D02*
X0288778Y0319104D01*
X0289241Y0320702D02*
X0317759Y0320702D01*
X0317401Y0322301D02*
X0289599Y0322301D01*
X0289599Y0323899D02*
X0317401Y0323899D01*
X0317545Y0325498D02*
X0289455Y0325498D01*
X0289027Y0327096D02*
X0317973Y0327096D01*
X0318683Y0328695D02*
X0288317Y0328695D01*
X0287394Y0330293D02*
X0319606Y0330293D01*
X0321195Y0331892D02*
X0285805Y0331892D01*
X0283395Y0333490D02*
X0323605Y0333490D01*
X0333395Y0333490D02*
X0359507Y0333490D01*
X0359507Y0331892D02*
X0335805Y0331892D01*
X0337394Y0330293D02*
X0359663Y0330293D01*
X0360091Y0328695D02*
X0338317Y0328695D01*
X0339027Y0327096D02*
X0360885Y0327096D01*
X0361999Y0325498D02*
X0339455Y0325498D01*
X0339599Y0323899D02*
X0363706Y0323899D01*
X0359915Y0335089D02*
X0151179Y0335089D01*
X0151587Y0333490D02*
X0273605Y0333490D01*
X0271195Y0331892D02*
X0151587Y0331892D01*
X0151431Y0330293D02*
X0269606Y0330293D01*
X0268683Y0328695D02*
X0151003Y0328695D01*
X0150209Y0327096D02*
X0267973Y0327096D01*
X0267545Y0325498D02*
X0149095Y0325498D01*
X0147388Y0323899D02*
X0267401Y0323899D01*
X0267401Y0322301D02*
X0143815Y0322301D01*
X0138933Y0322301D02*
X0047642Y0322301D01*
X0048409Y0320702D02*
X0267759Y0320702D01*
X0268222Y0319104D02*
X0048409Y0319104D01*
X0048409Y0317505D02*
X0269145Y0317505D01*
X0270397Y0315907D02*
X0048409Y0315907D01*
X0048409Y0314308D02*
X0272222Y0314308D01*
X0360506Y0336687D02*
X0150588Y0336687D01*
X0149666Y0338286D02*
X0361429Y0338286D01*
X0362940Y0339884D02*
X0148154Y0339884D01*
X0145758Y0341483D02*
X0365337Y0341483D01*
X0377525Y0349475D02*
X0021000Y0349475D01*
X0021000Y0347877D02*
X0379123Y0347877D01*
X0380722Y0346278D02*
X0021000Y0346278D01*
X0021000Y0344680D02*
X0382320Y0344680D01*
X0386000Y0301520D02*
X0005800Y0301520D01*
X0005800Y0299922D02*
X0386000Y0299922D01*
X0386000Y0298323D02*
X0005800Y0298323D01*
X0005800Y0296725D02*
X0386000Y0296725D01*
X0386000Y0295126D02*
X0005800Y0295126D01*
X0005800Y0293528D02*
X0386000Y0293528D01*
X0386000Y0291929D02*
X0005800Y0291929D01*
X0005800Y0290331D02*
X0386000Y0290331D01*
X0386000Y0288732D02*
X0005800Y0288732D01*
X0005800Y0287134D02*
X0386000Y0287134D01*
X0386000Y0285535D02*
X0005800Y0285535D01*
X0005800Y0283937D02*
X0386000Y0283937D01*
X0386000Y0282338D02*
X0005800Y0282338D01*
X0005800Y0280739D02*
X0386000Y0280739D01*
X0386000Y0279141D02*
X0005800Y0279141D01*
X0005800Y0277542D02*
X0386000Y0277542D01*
X0386000Y0275944D02*
X0005800Y0275944D01*
X0005800Y0274345D02*
X0386000Y0274345D01*
X0386000Y0272747D02*
X0005800Y0272747D01*
X0005800Y0271148D02*
X0386000Y0271148D01*
X0386000Y0269550D02*
X0005800Y0269550D01*
X0005800Y0267951D02*
X0386000Y0267951D01*
X0386000Y0266353D02*
X0005800Y0266353D01*
X0005800Y0264754D02*
X0386000Y0264754D01*
X0386000Y0263156D02*
X0005800Y0263156D01*
X0005800Y0261557D02*
X0386000Y0261557D01*
X0386000Y0259959D02*
X0005800Y0259959D01*
X0005800Y0216799D02*
X0023642Y0216799D01*
X0022044Y0215201D02*
X0005800Y0215201D01*
X0005800Y0213602D02*
X0020445Y0213602D01*
X0018847Y0212003D02*
X0005800Y0212003D01*
X0005800Y0210405D02*
X0017248Y0210405D01*
X0015650Y0208806D02*
X0005800Y0208806D01*
X0005800Y0207208D02*
X0014051Y0207208D01*
X0012453Y0205609D02*
X0005800Y0205609D01*
X0005800Y0204011D02*
X0010854Y0204011D01*
X0009256Y0202412D02*
X0005800Y0202412D01*
X0005800Y0200814D02*
X0007657Y0200814D01*
X0006059Y0199215D02*
X0005800Y0199215D01*
X0031169Y0109699D02*
X0034699Y0109699D01*
X0028500Y0093500D02*
X0021000Y0086000D01*
X0011000Y0086000D01*
X0012140Y0090517D02*
X0013485Y0090517D01*
X0012823Y0092115D02*
X0010542Y0092115D01*
X0010000Y0093714D02*
X0012725Y0093714D01*
X0013000Y0095312D02*
X0010000Y0095312D01*
X0010000Y0096911D02*
X0013744Y0096911D01*
X0015459Y0098509D02*
X0010000Y0098509D01*
X0010000Y0100108D02*
X0013725Y0100108D01*
X0012992Y0101706D02*
X0010000Y0101706D01*
X0010000Y0103305D02*
X0012725Y0103305D01*
X0012831Y0104903D02*
X0010000Y0104903D01*
X0010000Y0106502D02*
X0013493Y0106502D01*
X0014933Y0108100D02*
X0010000Y0108100D01*
X0027976Y0087320D02*
X0294163Y0087320D01*
X0290054Y0085721D02*
X0286946Y0085721D01*
X0288457Y0084123D02*
X0288543Y0084123D01*
X0288605Y0077729D02*
X0288395Y0077729D01*
X0286797Y0076130D02*
X0290203Y0076130D01*
X0296797Y0076130D02*
X0308695Y0076130D01*
X0318305Y0076130D02*
X0386000Y0076130D01*
X0386000Y0077729D02*
X0319250Y0077729D01*
X0319275Y0079327D02*
X0386000Y0079327D01*
X0383700Y0048955D02*
X0369091Y0048955D01*
X0371402Y0047357D02*
X0383700Y0047357D01*
X0383700Y0045758D02*
X0372993Y0045758D01*
X0373916Y0044160D02*
X0383700Y0044160D01*
X0383700Y0042561D02*
X0374680Y0042561D01*
X0375108Y0040963D02*
X0383700Y0040963D01*
X0383700Y0039364D02*
X0375350Y0039364D01*
X0375350Y0037766D02*
X0383700Y0037766D01*
X0383700Y0036167D02*
X0375143Y0036167D01*
X0374715Y0034569D02*
X0383700Y0034569D01*
X0383700Y0032970D02*
X0373991Y0032970D01*
X0373068Y0031372D02*
X0383700Y0031372D01*
X0383700Y0029773D02*
X0371532Y0029773D01*
X0369316Y0028175D02*
X0383700Y0028175D01*
X0317481Y0128881D02*
X0313719Y0128881D01*
X0315548Y0130479D02*
X0315652Y0130479D01*
X0307481Y0128881D02*
X0303719Y0128881D01*
X0305548Y0130479D02*
X0305652Y0130479D01*
X0297481Y0128881D02*
X0283719Y0128881D01*
X0285548Y0130479D02*
X0287692Y0130479D01*
X0290400Y0130479D02*
X0290800Y0130479D01*
X0290800Y0132078D02*
X0290400Y0132078D01*
X0290400Y0133676D02*
X0290800Y0133676D01*
X0293508Y0130479D02*
X0295652Y0130479D01*
X0277481Y0128881D02*
X0273719Y0128881D01*
X0275548Y0130479D02*
X0275652Y0130479D01*
X0277343Y0149662D02*
X0273857Y0149662D01*
X0283857Y0149662D02*
X0287343Y0149662D01*
X0293857Y0149662D02*
X0297343Y0149662D01*
X0280054Y0085721D02*
X0276946Y0085721D01*
X0278457Y0084123D02*
X0278543Y0084123D01*
X0278605Y0077729D02*
X0278395Y0077729D01*
X0276797Y0076130D02*
X0280203Y0076130D01*
X0270203Y0076130D02*
X0266797Y0076130D01*
X0268395Y0077729D02*
X0268605Y0077729D01*
X0268543Y0084123D02*
X0268457Y0084123D01*
X0266946Y0085721D02*
X0270054Y0085721D01*
X0260054Y0085721D02*
X0256946Y0085721D01*
X0258457Y0084123D02*
X0258543Y0084123D01*
X0258605Y0077729D02*
X0258395Y0077729D01*
X0256797Y0076130D02*
X0260203Y0076130D01*
X0250203Y0076130D02*
X0246797Y0076130D01*
X0248395Y0077729D02*
X0248605Y0077729D01*
X0248543Y0084123D02*
X0248457Y0084123D01*
X0246946Y0085721D02*
X0250054Y0085721D01*
X0240054Y0085721D02*
X0026378Y0085721D01*
X0024779Y0084123D02*
X0238543Y0084123D01*
X0237881Y0082524D02*
X0023061Y0082524D01*
D17*
X0074000Y0119000D03*
X0051000Y0173500D03*
X0078500Y0178500D03*
X0078500Y0213500D03*
X0108500Y0266000D03*
X0076000Y0276000D03*
X0108500Y0311000D03*
X0178500Y0301000D03*
X0206000Y0253500D03*
X0153000Y0116000D03*
X0229000Y0095000D03*
M02*
