%
M48
M72
T01C0.02756
T02C0.03150
T03C0.03543
T04C0.04000
T05C0.10827
T06C0.12598
T07C0.14100
%
T01
X74000Y119000
X51000Y173500
X78500Y178500
X78500Y213500
X108500Y266000
X76000Y276000
X108500Y311000
X178500Y301000
X206000Y253500
X153000Y116000
X229000Y95000
T02
X243500Y81000
X253500Y81000
X263500Y81000
X273500Y81000
X283500Y81000
X293500Y81000
X303500Y81000
X313500Y81000
X28500Y93500
X28500Y103500
X28500Y113500
X28500Y123500
X28500Y133500
X18500Y133500
X18500Y123500
X18500Y113500
X18500Y103500
X18500Y93500
T03
X34563Y309563
X34563Y317437
X42437Y317437
X42437Y309563
X273500Y253500
X283500Y253500
X293500Y253500
X303500Y253500
X313500Y253500
X323500Y253500
X333500Y253500
T04
X330600Y144300
X330600Y134300
X340600Y134300
X340600Y144300
X350547Y144307
X350600Y134300
X320600Y134300
X320600Y144300
X310600Y144300
X310600Y134300
X300600Y134300
X300600Y144300
X290600Y144300
X290600Y134300
X280600Y134300
X280600Y144300
X270600Y144300
X270600Y134300
X260600Y134300
X260600Y144300
X250600Y144300
X250600Y134300
X240600Y134300
X240600Y144300
X230600Y144300
X230600Y134300
X220600Y134300
X220600Y144300
X210600Y144300
X210600Y134300
X200600Y134300
X200600Y144300
X190600Y144300
X190600Y134300
X180600Y134300
X180600Y144300
X170600Y144300
X170600Y134300
X160600Y134300
X160600Y144300
T05
X141374Y139307
X141374Y332220
X369720Y332220
X369720Y139307
T06
X313500Y31000
X243500Y31000
X278500Y323500
X328500Y323500
T07
X76000Y38500
X363500Y38500
X363500Y363500
X38500Y363500
M30
