G75*
%MOIN*%
%OFA0B0*%
%FSLAX25Y25*%
%IPPOS*%
%LPD*%
%AMOC8*
5,1,8,0,0,1.08239X$1,22.5*
%
%ADD10C,0.14900*%
%ADD11C,0.11627*%
%ADD12R,0.06800X0.06800*%
%ADD13C,0.06800*%
%ADD14R,0.06343X0.06343*%
%ADD15C,0.06343*%
%ADD16C,0.13398*%
%ADD17C,0.05950*%
%ADD18R,0.05950X0.05950*%
%ADD19R,0.05156X0.05156*%
D10*
X0076000Y0038500D03*
X0363500Y0038500D03*
X0363500Y0363500D03*
X0038500Y0363500D03*
D11*
X0141374Y0332220D03*
X0141374Y0139307D03*
X0369720Y0139307D03*
X0369720Y0332220D03*
D12*
X0350547Y0144307D03*
D13*
X0350600Y0134300D03*
X0340600Y0134300D03*
X0340600Y0144300D03*
X0330600Y0144300D03*
X0330600Y0134300D03*
X0320600Y0134300D03*
X0320600Y0144300D03*
X0310600Y0144300D03*
X0310600Y0134300D03*
X0300600Y0134300D03*
X0300600Y0144300D03*
X0290600Y0144300D03*
X0290600Y0134300D03*
X0280600Y0134300D03*
X0280600Y0144300D03*
X0270600Y0144300D03*
X0270600Y0134300D03*
X0260600Y0134300D03*
X0260600Y0144300D03*
X0250600Y0144300D03*
X0250600Y0134300D03*
X0240600Y0134300D03*
X0240600Y0144300D03*
X0230600Y0144300D03*
X0230600Y0134300D03*
X0220600Y0134300D03*
X0220600Y0144300D03*
X0210600Y0144300D03*
X0210600Y0134300D03*
X0200600Y0134300D03*
X0200600Y0144300D03*
X0190600Y0144300D03*
X0190600Y0134300D03*
X0180600Y0134300D03*
X0180600Y0144300D03*
X0170600Y0144300D03*
X0170600Y0134300D03*
X0160600Y0134300D03*
X0160600Y0144300D03*
D14*
X0333500Y0253500D03*
X0042437Y0317437D03*
D15*
X0042437Y0309563D03*
X0034563Y0309563D03*
X0034563Y0317437D03*
X0273500Y0253500D03*
X0283500Y0253500D03*
X0293500Y0253500D03*
X0303500Y0253500D03*
X0313500Y0253500D03*
X0323500Y0253500D03*
D16*
X0328500Y0323500D03*
X0278500Y0323500D03*
X0243500Y0031000D03*
X0313500Y0031000D03*
D17*
X0303500Y0081000D03*
X0293500Y0081000D03*
X0283500Y0081000D03*
X0273500Y0081000D03*
X0263500Y0081000D03*
X0253500Y0081000D03*
X0243500Y0081000D03*
X0028500Y0103500D03*
X0028500Y0113500D03*
X0028500Y0123500D03*
X0028500Y0133500D03*
X0018500Y0133500D03*
X0018500Y0123500D03*
X0018500Y0113500D03*
X0018500Y0103500D03*
X0018500Y0093500D03*
D18*
X0028500Y0093500D03*
X0313500Y0081000D03*
D19*
X0229000Y0095000D03*
X0153000Y0116000D03*
X0078500Y0178500D03*
X0051000Y0173500D03*
X0078500Y0213500D03*
X0108500Y0266000D03*
X0076000Y0276000D03*
X0108500Y0311000D03*
X0178500Y0301000D03*
X0206000Y0253500D03*
X0074000Y0119000D03*
M02*
