%
M48
M72
T01C0.03150
T02C0.03800
T03C0.04724
%
T01
X99000Y126000
X99000Y146000
X99000Y166000
X99000Y186000
X116000Y16000
X126000Y16000
X136000Y16000
T02
X73500Y63500
X73500Y73500
X73500Y83500
X73500Y93500
X73500Y103500
X73500Y113500
X73500Y123500
X73500Y133500
X73500Y143500
X73500Y153500
X73500Y163500
X73500Y173500
X73500Y183500
X73500Y193500
X13500Y193500
X13500Y183500
X13500Y173500
X13500Y163500
X13500Y153500
X13500Y143500
X13500Y133500
X13500Y123500
X13500Y113500
X13500Y103500
X13500Y93500
X13500Y83500
X13500Y73500
X13500Y63500
T03
X21000Y21000
X41000Y21000
X71000Y21000
X91000Y21000
X131000Y51000
X131000Y71000
X131000Y101000
X131000Y121000
X131000Y161000
X131000Y181000
X56000Y181000
X36000Y181000
M30
