%
M48
M72
T01C0.02756
T02C0.03150
T03C0.03200
T04C0.03543
T05C0.03937
T06C0.13600
%
T01
X51000Y198500
X51000Y178500
T02
X233500Y19000
X253500Y19000
X253500Y73000
X233500Y73000
X283500Y76000
X283500Y86000
X283500Y96000
X283500Y106000
X283500Y116000
X283500Y126000
X283500Y136000
X283500Y146000
X321000Y138500
X341000Y138500
X341000Y118500
X321000Y118500
X333500Y96000
X333500Y76000
T03
X81000Y201000
X91000Y201000
X101000Y201000
X111000Y201000
X121000Y201000
X131000Y201000
X141000Y201000
X151000Y201000
X161000Y201000
X171000Y201000
X181000Y201000
X191000Y201000
X201000Y201000
X211000Y201000
X211000Y171000
X201000Y171000
X191000Y171000
X181000Y171000
X171000Y171000
X161000Y171000
X151000Y171000
X141000Y171000
X131000Y171000
X121000Y171000
X111000Y171000
X101000Y171000
X91000Y171000
X81000Y171000
T04
X201900Y74750
T05
X201900Y124750
X231000Y104900
X261000Y104900
T06
X108500Y32250
X108500Y124750
M30
