G75*
%MOIN*%
%OFA0B0*%
%FSLAX25Y25*%
%IPPOS*%
%LPD*%
%AMOC8*
5,1,8,0,0,1.08239X$1,22.5*
%
%ADD10C,0.00000*%
%ADD11C,0.05200*%
%ADD12C,0.05937*%
%ADD13C,0.05543*%
%ADD14R,0.03600X0.07100*%
%ADD15R,0.06900X0.04400*%
%ADD16R,0.05150X0.05150*%
%ADD17C,0.05150*%
%ADD18R,0.05937X0.05937*%
%ADD19R,0.06400X0.03500*%
%ADD20R,0.06400X0.12500*%
%ADD21C,0.06500*%
%ADD22C,0.01600*%
D10*
X0001000Y0001000D02*
X0001000Y0217535D01*
X0394701Y0217535D01*
X0394701Y0001000D01*
X0001000Y0001000D01*
X0101700Y0032250D02*
X0101702Y0032417D01*
X0101708Y0032584D01*
X0101718Y0032750D01*
X0101733Y0032917D01*
X0101751Y0033082D01*
X0101774Y0033248D01*
X0101800Y0033413D01*
X0101831Y0033577D01*
X0101865Y0033740D01*
X0101904Y0033902D01*
X0101946Y0034064D01*
X0101993Y0034224D01*
X0102043Y0034383D01*
X0102098Y0034541D01*
X0102156Y0034697D01*
X0102218Y0034852D01*
X0102283Y0035006D01*
X0102353Y0035157D01*
X0102426Y0035307D01*
X0102503Y0035455D01*
X0102583Y0035602D01*
X0102667Y0035746D01*
X0102755Y0035888D01*
X0102846Y0036028D01*
X0102940Y0036165D01*
X0103038Y0036301D01*
X0103139Y0036434D01*
X0103244Y0036564D01*
X0103351Y0036692D01*
X0103462Y0036817D01*
X0103575Y0036939D01*
X0103692Y0037058D01*
X0103811Y0037175D01*
X0103933Y0037288D01*
X0104058Y0037399D01*
X0104186Y0037506D01*
X0104316Y0037611D01*
X0104449Y0037712D01*
X0104585Y0037810D01*
X0104722Y0037904D01*
X0104862Y0037995D01*
X0105004Y0038083D01*
X0105148Y0038167D01*
X0105295Y0038247D01*
X0105443Y0038324D01*
X0105593Y0038397D01*
X0105744Y0038467D01*
X0105898Y0038532D01*
X0106053Y0038594D01*
X0106209Y0038652D01*
X0106367Y0038707D01*
X0106526Y0038757D01*
X0106686Y0038804D01*
X0106848Y0038846D01*
X0107010Y0038885D01*
X0107173Y0038919D01*
X0107337Y0038950D01*
X0107502Y0038976D01*
X0107668Y0038999D01*
X0107833Y0039017D01*
X0108000Y0039032D01*
X0108166Y0039042D01*
X0108333Y0039048D01*
X0108500Y0039050D01*
X0108667Y0039048D01*
X0108834Y0039042D01*
X0109000Y0039032D01*
X0109167Y0039017D01*
X0109332Y0038999D01*
X0109498Y0038976D01*
X0109663Y0038950D01*
X0109827Y0038919D01*
X0109990Y0038885D01*
X0110152Y0038846D01*
X0110314Y0038804D01*
X0110474Y0038757D01*
X0110633Y0038707D01*
X0110791Y0038652D01*
X0110947Y0038594D01*
X0111102Y0038532D01*
X0111256Y0038467D01*
X0111407Y0038397D01*
X0111557Y0038324D01*
X0111705Y0038247D01*
X0111852Y0038167D01*
X0111996Y0038083D01*
X0112138Y0037995D01*
X0112278Y0037904D01*
X0112415Y0037810D01*
X0112551Y0037712D01*
X0112684Y0037611D01*
X0112814Y0037506D01*
X0112942Y0037399D01*
X0113067Y0037288D01*
X0113189Y0037175D01*
X0113308Y0037058D01*
X0113425Y0036939D01*
X0113538Y0036817D01*
X0113649Y0036692D01*
X0113756Y0036564D01*
X0113861Y0036434D01*
X0113962Y0036301D01*
X0114060Y0036165D01*
X0114154Y0036028D01*
X0114245Y0035888D01*
X0114333Y0035746D01*
X0114417Y0035602D01*
X0114497Y0035455D01*
X0114574Y0035307D01*
X0114647Y0035157D01*
X0114717Y0035006D01*
X0114782Y0034852D01*
X0114844Y0034697D01*
X0114902Y0034541D01*
X0114957Y0034383D01*
X0115007Y0034224D01*
X0115054Y0034064D01*
X0115096Y0033902D01*
X0115135Y0033740D01*
X0115169Y0033577D01*
X0115200Y0033413D01*
X0115226Y0033248D01*
X0115249Y0033082D01*
X0115267Y0032917D01*
X0115282Y0032750D01*
X0115292Y0032584D01*
X0115298Y0032417D01*
X0115300Y0032250D01*
X0115298Y0032083D01*
X0115292Y0031916D01*
X0115282Y0031750D01*
X0115267Y0031583D01*
X0115249Y0031418D01*
X0115226Y0031252D01*
X0115200Y0031087D01*
X0115169Y0030923D01*
X0115135Y0030760D01*
X0115096Y0030598D01*
X0115054Y0030436D01*
X0115007Y0030276D01*
X0114957Y0030117D01*
X0114902Y0029959D01*
X0114844Y0029803D01*
X0114782Y0029648D01*
X0114717Y0029494D01*
X0114647Y0029343D01*
X0114574Y0029193D01*
X0114497Y0029045D01*
X0114417Y0028898D01*
X0114333Y0028754D01*
X0114245Y0028612D01*
X0114154Y0028472D01*
X0114060Y0028335D01*
X0113962Y0028199D01*
X0113861Y0028066D01*
X0113756Y0027936D01*
X0113649Y0027808D01*
X0113538Y0027683D01*
X0113425Y0027561D01*
X0113308Y0027442D01*
X0113189Y0027325D01*
X0113067Y0027212D01*
X0112942Y0027101D01*
X0112814Y0026994D01*
X0112684Y0026889D01*
X0112551Y0026788D01*
X0112415Y0026690D01*
X0112278Y0026596D01*
X0112138Y0026505D01*
X0111996Y0026417D01*
X0111852Y0026333D01*
X0111705Y0026253D01*
X0111557Y0026176D01*
X0111407Y0026103D01*
X0111256Y0026033D01*
X0111102Y0025968D01*
X0110947Y0025906D01*
X0110791Y0025848D01*
X0110633Y0025793D01*
X0110474Y0025743D01*
X0110314Y0025696D01*
X0110152Y0025654D01*
X0109990Y0025615D01*
X0109827Y0025581D01*
X0109663Y0025550D01*
X0109498Y0025524D01*
X0109332Y0025501D01*
X0109167Y0025483D01*
X0109000Y0025468D01*
X0108834Y0025458D01*
X0108667Y0025452D01*
X0108500Y0025450D01*
X0108333Y0025452D01*
X0108166Y0025458D01*
X0108000Y0025468D01*
X0107833Y0025483D01*
X0107668Y0025501D01*
X0107502Y0025524D01*
X0107337Y0025550D01*
X0107173Y0025581D01*
X0107010Y0025615D01*
X0106848Y0025654D01*
X0106686Y0025696D01*
X0106526Y0025743D01*
X0106367Y0025793D01*
X0106209Y0025848D01*
X0106053Y0025906D01*
X0105898Y0025968D01*
X0105744Y0026033D01*
X0105593Y0026103D01*
X0105443Y0026176D01*
X0105295Y0026253D01*
X0105148Y0026333D01*
X0105004Y0026417D01*
X0104862Y0026505D01*
X0104722Y0026596D01*
X0104585Y0026690D01*
X0104449Y0026788D01*
X0104316Y0026889D01*
X0104186Y0026994D01*
X0104058Y0027101D01*
X0103933Y0027212D01*
X0103811Y0027325D01*
X0103692Y0027442D01*
X0103575Y0027561D01*
X0103462Y0027683D01*
X0103351Y0027808D01*
X0103244Y0027936D01*
X0103139Y0028066D01*
X0103038Y0028199D01*
X0102940Y0028335D01*
X0102846Y0028472D01*
X0102755Y0028612D01*
X0102667Y0028754D01*
X0102583Y0028898D01*
X0102503Y0029045D01*
X0102426Y0029193D01*
X0102353Y0029343D01*
X0102283Y0029494D01*
X0102218Y0029648D01*
X0102156Y0029803D01*
X0102098Y0029959D01*
X0102043Y0030117D01*
X0101993Y0030276D01*
X0101946Y0030436D01*
X0101904Y0030598D01*
X0101865Y0030760D01*
X0101831Y0030923D01*
X0101800Y0031087D01*
X0101774Y0031252D01*
X0101751Y0031418D01*
X0101733Y0031583D01*
X0101718Y0031750D01*
X0101708Y0031916D01*
X0101702Y0032083D01*
X0101700Y0032250D01*
X0101700Y0124750D02*
X0101702Y0124917D01*
X0101708Y0125084D01*
X0101718Y0125250D01*
X0101733Y0125417D01*
X0101751Y0125582D01*
X0101774Y0125748D01*
X0101800Y0125913D01*
X0101831Y0126077D01*
X0101865Y0126240D01*
X0101904Y0126402D01*
X0101946Y0126564D01*
X0101993Y0126724D01*
X0102043Y0126883D01*
X0102098Y0127041D01*
X0102156Y0127197D01*
X0102218Y0127352D01*
X0102283Y0127506D01*
X0102353Y0127657D01*
X0102426Y0127807D01*
X0102503Y0127955D01*
X0102583Y0128102D01*
X0102667Y0128246D01*
X0102755Y0128388D01*
X0102846Y0128528D01*
X0102940Y0128665D01*
X0103038Y0128801D01*
X0103139Y0128934D01*
X0103244Y0129064D01*
X0103351Y0129192D01*
X0103462Y0129317D01*
X0103575Y0129439D01*
X0103692Y0129558D01*
X0103811Y0129675D01*
X0103933Y0129788D01*
X0104058Y0129899D01*
X0104186Y0130006D01*
X0104316Y0130111D01*
X0104449Y0130212D01*
X0104585Y0130310D01*
X0104722Y0130404D01*
X0104862Y0130495D01*
X0105004Y0130583D01*
X0105148Y0130667D01*
X0105295Y0130747D01*
X0105443Y0130824D01*
X0105593Y0130897D01*
X0105744Y0130967D01*
X0105898Y0131032D01*
X0106053Y0131094D01*
X0106209Y0131152D01*
X0106367Y0131207D01*
X0106526Y0131257D01*
X0106686Y0131304D01*
X0106848Y0131346D01*
X0107010Y0131385D01*
X0107173Y0131419D01*
X0107337Y0131450D01*
X0107502Y0131476D01*
X0107668Y0131499D01*
X0107833Y0131517D01*
X0108000Y0131532D01*
X0108166Y0131542D01*
X0108333Y0131548D01*
X0108500Y0131550D01*
X0108667Y0131548D01*
X0108834Y0131542D01*
X0109000Y0131532D01*
X0109167Y0131517D01*
X0109332Y0131499D01*
X0109498Y0131476D01*
X0109663Y0131450D01*
X0109827Y0131419D01*
X0109990Y0131385D01*
X0110152Y0131346D01*
X0110314Y0131304D01*
X0110474Y0131257D01*
X0110633Y0131207D01*
X0110791Y0131152D01*
X0110947Y0131094D01*
X0111102Y0131032D01*
X0111256Y0130967D01*
X0111407Y0130897D01*
X0111557Y0130824D01*
X0111705Y0130747D01*
X0111852Y0130667D01*
X0111996Y0130583D01*
X0112138Y0130495D01*
X0112278Y0130404D01*
X0112415Y0130310D01*
X0112551Y0130212D01*
X0112684Y0130111D01*
X0112814Y0130006D01*
X0112942Y0129899D01*
X0113067Y0129788D01*
X0113189Y0129675D01*
X0113308Y0129558D01*
X0113425Y0129439D01*
X0113538Y0129317D01*
X0113649Y0129192D01*
X0113756Y0129064D01*
X0113861Y0128934D01*
X0113962Y0128801D01*
X0114060Y0128665D01*
X0114154Y0128528D01*
X0114245Y0128388D01*
X0114333Y0128246D01*
X0114417Y0128102D01*
X0114497Y0127955D01*
X0114574Y0127807D01*
X0114647Y0127657D01*
X0114717Y0127506D01*
X0114782Y0127352D01*
X0114844Y0127197D01*
X0114902Y0127041D01*
X0114957Y0126883D01*
X0115007Y0126724D01*
X0115054Y0126564D01*
X0115096Y0126402D01*
X0115135Y0126240D01*
X0115169Y0126077D01*
X0115200Y0125913D01*
X0115226Y0125748D01*
X0115249Y0125582D01*
X0115267Y0125417D01*
X0115282Y0125250D01*
X0115292Y0125084D01*
X0115298Y0124917D01*
X0115300Y0124750D01*
X0115298Y0124583D01*
X0115292Y0124416D01*
X0115282Y0124250D01*
X0115267Y0124083D01*
X0115249Y0123918D01*
X0115226Y0123752D01*
X0115200Y0123587D01*
X0115169Y0123423D01*
X0115135Y0123260D01*
X0115096Y0123098D01*
X0115054Y0122936D01*
X0115007Y0122776D01*
X0114957Y0122617D01*
X0114902Y0122459D01*
X0114844Y0122303D01*
X0114782Y0122148D01*
X0114717Y0121994D01*
X0114647Y0121843D01*
X0114574Y0121693D01*
X0114497Y0121545D01*
X0114417Y0121398D01*
X0114333Y0121254D01*
X0114245Y0121112D01*
X0114154Y0120972D01*
X0114060Y0120835D01*
X0113962Y0120699D01*
X0113861Y0120566D01*
X0113756Y0120436D01*
X0113649Y0120308D01*
X0113538Y0120183D01*
X0113425Y0120061D01*
X0113308Y0119942D01*
X0113189Y0119825D01*
X0113067Y0119712D01*
X0112942Y0119601D01*
X0112814Y0119494D01*
X0112684Y0119389D01*
X0112551Y0119288D01*
X0112415Y0119190D01*
X0112278Y0119096D01*
X0112138Y0119005D01*
X0111996Y0118917D01*
X0111852Y0118833D01*
X0111705Y0118753D01*
X0111557Y0118676D01*
X0111407Y0118603D01*
X0111256Y0118533D01*
X0111102Y0118468D01*
X0110947Y0118406D01*
X0110791Y0118348D01*
X0110633Y0118293D01*
X0110474Y0118243D01*
X0110314Y0118196D01*
X0110152Y0118154D01*
X0109990Y0118115D01*
X0109827Y0118081D01*
X0109663Y0118050D01*
X0109498Y0118024D01*
X0109332Y0118001D01*
X0109167Y0117983D01*
X0109000Y0117968D01*
X0108834Y0117958D01*
X0108667Y0117952D01*
X0108500Y0117950D01*
X0108333Y0117952D01*
X0108166Y0117958D01*
X0108000Y0117968D01*
X0107833Y0117983D01*
X0107668Y0118001D01*
X0107502Y0118024D01*
X0107337Y0118050D01*
X0107173Y0118081D01*
X0107010Y0118115D01*
X0106848Y0118154D01*
X0106686Y0118196D01*
X0106526Y0118243D01*
X0106367Y0118293D01*
X0106209Y0118348D01*
X0106053Y0118406D01*
X0105898Y0118468D01*
X0105744Y0118533D01*
X0105593Y0118603D01*
X0105443Y0118676D01*
X0105295Y0118753D01*
X0105148Y0118833D01*
X0105004Y0118917D01*
X0104862Y0119005D01*
X0104722Y0119096D01*
X0104585Y0119190D01*
X0104449Y0119288D01*
X0104316Y0119389D01*
X0104186Y0119494D01*
X0104058Y0119601D01*
X0103933Y0119712D01*
X0103811Y0119825D01*
X0103692Y0119942D01*
X0103575Y0120061D01*
X0103462Y0120183D01*
X0103351Y0120308D01*
X0103244Y0120436D01*
X0103139Y0120566D01*
X0103038Y0120699D01*
X0102940Y0120835D01*
X0102846Y0120972D01*
X0102755Y0121112D01*
X0102667Y0121254D01*
X0102583Y0121398D01*
X0102503Y0121545D01*
X0102426Y0121693D01*
X0102353Y0121843D01*
X0102283Y0121994D01*
X0102218Y0122148D01*
X0102156Y0122303D01*
X0102098Y0122459D01*
X0102043Y0122617D01*
X0101993Y0122776D01*
X0101946Y0122936D01*
X0101904Y0123098D01*
X0101865Y0123260D01*
X0101831Y0123423D01*
X0101800Y0123587D01*
X0101774Y0123752D01*
X0101751Y0123918D01*
X0101733Y0124083D01*
X0101718Y0124250D01*
X0101708Y0124416D01*
X0101702Y0124583D01*
X0101700Y0124750D01*
D11*
X0101000Y0168400D02*
X0101000Y0173600D01*
X0091000Y0173600D02*
X0091000Y0168400D01*
X0081000Y0168400D02*
X0081000Y0173600D01*
X0111000Y0173600D02*
X0111000Y0168400D01*
X0121000Y0168400D02*
X0121000Y0173600D01*
X0131000Y0173600D02*
X0131000Y0168400D01*
X0141000Y0168400D02*
X0141000Y0173600D01*
X0151000Y0173600D02*
X0151000Y0168400D01*
X0161000Y0168400D02*
X0161000Y0173600D01*
X0171000Y0173600D02*
X0171000Y0168400D01*
X0181000Y0168400D02*
X0181000Y0173600D01*
X0191000Y0173600D02*
X0191000Y0168400D01*
X0201000Y0168400D02*
X0201000Y0173600D01*
X0211000Y0173600D02*
X0211000Y0168400D01*
X0211000Y0198400D02*
X0211000Y0203600D01*
X0201000Y0203600D02*
X0201000Y0198400D01*
X0191000Y0198400D02*
X0191000Y0203600D01*
X0181000Y0203600D02*
X0181000Y0198400D01*
X0171000Y0198400D02*
X0171000Y0203600D01*
X0161000Y0203600D02*
X0161000Y0198400D01*
X0151000Y0198400D02*
X0151000Y0203600D01*
X0141000Y0203600D02*
X0141000Y0198400D01*
X0131000Y0198400D02*
X0131000Y0203600D01*
X0121000Y0203600D02*
X0121000Y0198400D01*
X0111000Y0198400D02*
X0111000Y0203600D01*
X0101000Y0203600D02*
X0101000Y0198400D01*
X0091000Y0198400D02*
X0091000Y0203600D01*
X0081000Y0203600D02*
X0081000Y0198400D01*
D12*
X0201900Y0124750D03*
D13*
X0201900Y0074750D03*
D14*
X0027701Y0128539D03*
X0016701Y0128539D03*
X0018000Y0143500D03*
X0029000Y0143500D03*
X0029000Y0181000D03*
X0018000Y0181000D03*
X0018000Y0203500D03*
X0029000Y0203500D03*
D15*
X0238500Y0201800D03*
X0238500Y0190200D03*
X0261000Y0190200D03*
X0261000Y0201800D03*
D16*
X0341000Y0138500D03*
X0333500Y0096000D03*
X0333500Y0076000D03*
X0283500Y0076000D03*
X0253500Y0073000D03*
X0233500Y0073000D03*
X0233500Y0019000D03*
X0253500Y0019000D03*
D17*
X0283500Y0086000D03*
X0283500Y0096000D03*
X0283500Y0106000D03*
X0283500Y0116000D03*
X0283500Y0126000D03*
X0283500Y0136000D03*
X0283500Y0146000D03*
X0321000Y0138500D03*
X0321000Y0118500D03*
X0341000Y0118500D03*
D18*
X0261000Y0104900D03*
X0231000Y0104900D03*
D19*
X0073600Y0126900D03*
X0073600Y0136000D03*
X0073600Y0145100D03*
D20*
X0048400Y0136000D03*
D21*
X0051000Y0178500D03*
X0051000Y0198500D03*
D22*
X0034000Y0198500D01*
X0029000Y0203500D01*
X0018000Y0203500D02*
X0006000Y0203500D01*
X0003500Y0201000D01*
X0003500Y0178500D01*
X0006000Y0181000D01*
X0018000Y0181000D01*
X0029000Y0181000D02*
X0031500Y0178500D01*
X0051000Y0178500D01*
X0066000Y0188500D02*
X0071000Y0193500D01*
X0131000Y0193500D01*
X0142250Y0182250D01*
X0141000Y0181000D01*
X0141000Y0171000D01*
X0131000Y0171000D01*
X0111000Y0171000D02*
X0111000Y0158500D01*
X0131000Y0138500D01*
X0228500Y0138500D01*
X0231000Y0136000D01*
X0283500Y0136000D01*
X0291000Y0138500D02*
X0283500Y0146000D01*
X0291000Y0138500D02*
X0291000Y0091000D01*
X0286000Y0086000D01*
X0283500Y0086000D01*
X0278500Y0081000D02*
X0283500Y0076000D01*
X0278500Y0081000D02*
X0208500Y0081000D01*
X0202250Y0074750D01*
X0201900Y0074750D01*
X0201900Y0014400D01*
X0193500Y0006000D01*
X0008500Y0006000D01*
X0003500Y0011000D01*
X0003500Y0151000D01*
X0003500Y0178500D01*
X0006000Y0203500D02*
X0016000Y0213500D01*
X0131000Y0213500D01*
X0141000Y0201000D01*
X0151000Y0201000D02*
X0151000Y0203500D01*
X0158500Y0211000D01*
X0229300Y0211000D01*
X0238500Y0201800D01*
X0261000Y0201800D01*
X0320200Y0201800D01*
X0341000Y0181000D01*
X0341000Y0138500D01*
X0321000Y0138500D02*
X0321000Y0143500D01*
X0276000Y0188500D01*
X0262700Y0188500D01*
X0261000Y0190200D01*
X0238500Y0190200D02*
X0219300Y0171000D01*
X0211000Y0171000D01*
X0201000Y0171000D02*
X0201000Y0168500D01*
X0208500Y0161000D01*
X0298500Y0161000D01*
X0321000Y0138500D01*
X0283500Y0126000D02*
X0233500Y0126000D01*
X0228500Y0131000D01*
X0128500Y0131000D01*
X0121000Y0138500D01*
X0096000Y0138500D01*
X0091000Y0143500D01*
X0091000Y0171000D01*
X0081000Y0171000D02*
X0081000Y0151000D01*
X0086000Y0146000D01*
X0086000Y0126000D01*
X0111000Y0101000D01*
X0211000Y0101000D01*
X0226000Y0116000D01*
X0283500Y0116000D01*
X0261000Y0104900D02*
X0252100Y0096000D01*
X0098500Y0096000D01*
X0073600Y0120900D01*
X0073600Y0126900D01*
X0070200Y0123500D01*
X0031000Y0123500D01*
X0027701Y0126799D01*
X0027701Y0128539D01*
X0023831Y0135669D02*
X0016701Y0128539D01*
X0023831Y0135669D02*
X0018000Y0141500D01*
X0018000Y0143500D01*
X0011000Y0143500D01*
X0003500Y0151000D01*
X0029000Y0144000D02*
X0029000Y0143500D01*
X0029000Y0144000D02*
X0033500Y0148500D01*
X0070200Y0148500D01*
X0073600Y0145100D01*
X0073600Y0145900D01*
X0066000Y0153500D01*
X0066000Y0188500D01*
X0142250Y0182250D02*
X0151000Y0191000D01*
X0151000Y0201000D01*
X0073600Y0136000D02*
X0048400Y0136000D01*
X0024161Y0136000D01*
X0023831Y0135669D01*
X0253500Y0073000D02*
X0269000Y0073000D01*
X0273500Y0068500D01*
X0326000Y0068500D01*
X0333500Y0076000D01*
M02*
