G75*
%MOIN*%
%OFA0B0*%
%FSLAX25Y25*%
%IPPOS*%
%LPD*%
%AMOC8*
5,1,8,0,0,1.08239X$1,22.5*
%
%ADD10C,0.00000*%
%ADD11C,0.00500*%
%ADD12C,0.00800*%
%ADD13C,0.00400*%
%ADD14C,0.00600*%
%ADD15C,0.00200*%
D10*
X0001000Y0001000D02*
X0001000Y0217535D01*
X0394701Y0217535D01*
X0394701Y0001000D01*
X0001000Y0001000D01*
X0101700Y0032250D02*
X0101702Y0032417D01*
X0101708Y0032584D01*
X0101718Y0032750D01*
X0101733Y0032917D01*
X0101751Y0033082D01*
X0101774Y0033248D01*
X0101800Y0033413D01*
X0101831Y0033577D01*
X0101865Y0033740D01*
X0101904Y0033902D01*
X0101946Y0034064D01*
X0101993Y0034224D01*
X0102043Y0034383D01*
X0102098Y0034541D01*
X0102156Y0034697D01*
X0102218Y0034852D01*
X0102283Y0035006D01*
X0102353Y0035157D01*
X0102426Y0035307D01*
X0102503Y0035455D01*
X0102583Y0035602D01*
X0102667Y0035746D01*
X0102755Y0035888D01*
X0102846Y0036028D01*
X0102940Y0036165D01*
X0103038Y0036301D01*
X0103139Y0036434D01*
X0103244Y0036564D01*
X0103351Y0036692D01*
X0103462Y0036817D01*
X0103575Y0036939D01*
X0103692Y0037058D01*
X0103811Y0037175D01*
X0103933Y0037288D01*
X0104058Y0037399D01*
X0104186Y0037506D01*
X0104316Y0037611D01*
X0104449Y0037712D01*
X0104585Y0037810D01*
X0104722Y0037904D01*
X0104862Y0037995D01*
X0105004Y0038083D01*
X0105148Y0038167D01*
X0105295Y0038247D01*
X0105443Y0038324D01*
X0105593Y0038397D01*
X0105744Y0038467D01*
X0105898Y0038532D01*
X0106053Y0038594D01*
X0106209Y0038652D01*
X0106367Y0038707D01*
X0106526Y0038757D01*
X0106686Y0038804D01*
X0106848Y0038846D01*
X0107010Y0038885D01*
X0107173Y0038919D01*
X0107337Y0038950D01*
X0107502Y0038976D01*
X0107668Y0038999D01*
X0107833Y0039017D01*
X0108000Y0039032D01*
X0108166Y0039042D01*
X0108333Y0039048D01*
X0108500Y0039050D01*
X0108667Y0039048D01*
X0108834Y0039042D01*
X0109000Y0039032D01*
X0109167Y0039017D01*
X0109332Y0038999D01*
X0109498Y0038976D01*
X0109663Y0038950D01*
X0109827Y0038919D01*
X0109990Y0038885D01*
X0110152Y0038846D01*
X0110314Y0038804D01*
X0110474Y0038757D01*
X0110633Y0038707D01*
X0110791Y0038652D01*
X0110947Y0038594D01*
X0111102Y0038532D01*
X0111256Y0038467D01*
X0111407Y0038397D01*
X0111557Y0038324D01*
X0111705Y0038247D01*
X0111852Y0038167D01*
X0111996Y0038083D01*
X0112138Y0037995D01*
X0112278Y0037904D01*
X0112415Y0037810D01*
X0112551Y0037712D01*
X0112684Y0037611D01*
X0112814Y0037506D01*
X0112942Y0037399D01*
X0113067Y0037288D01*
X0113189Y0037175D01*
X0113308Y0037058D01*
X0113425Y0036939D01*
X0113538Y0036817D01*
X0113649Y0036692D01*
X0113756Y0036564D01*
X0113861Y0036434D01*
X0113962Y0036301D01*
X0114060Y0036165D01*
X0114154Y0036028D01*
X0114245Y0035888D01*
X0114333Y0035746D01*
X0114417Y0035602D01*
X0114497Y0035455D01*
X0114574Y0035307D01*
X0114647Y0035157D01*
X0114717Y0035006D01*
X0114782Y0034852D01*
X0114844Y0034697D01*
X0114902Y0034541D01*
X0114957Y0034383D01*
X0115007Y0034224D01*
X0115054Y0034064D01*
X0115096Y0033902D01*
X0115135Y0033740D01*
X0115169Y0033577D01*
X0115200Y0033413D01*
X0115226Y0033248D01*
X0115249Y0033082D01*
X0115267Y0032917D01*
X0115282Y0032750D01*
X0115292Y0032584D01*
X0115298Y0032417D01*
X0115300Y0032250D01*
X0115298Y0032083D01*
X0115292Y0031916D01*
X0115282Y0031750D01*
X0115267Y0031583D01*
X0115249Y0031418D01*
X0115226Y0031252D01*
X0115200Y0031087D01*
X0115169Y0030923D01*
X0115135Y0030760D01*
X0115096Y0030598D01*
X0115054Y0030436D01*
X0115007Y0030276D01*
X0114957Y0030117D01*
X0114902Y0029959D01*
X0114844Y0029803D01*
X0114782Y0029648D01*
X0114717Y0029494D01*
X0114647Y0029343D01*
X0114574Y0029193D01*
X0114497Y0029045D01*
X0114417Y0028898D01*
X0114333Y0028754D01*
X0114245Y0028612D01*
X0114154Y0028472D01*
X0114060Y0028335D01*
X0113962Y0028199D01*
X0113861Y0028066D01*
X0113756Y0027936D01*
X0113649Y0027808D01*
X0113538Y0027683D01*
X0113425Y0027561D01*
X0113308Y0027442D01*
X0113189Y0027325D01*
X0113067Y0027212D01*
X0112942Y0027101D01*
X0112814Y0026994D01*
X0112684Y0026889D01*
X0112551Y0026788D01*
X0112415Y0026690D01*
X0112278Y0026596D01*
X0112138Y0026505D01*
X0111996Y0026417D01*
X0111852Y0026333D01*
X0111705Y0026253D01*
X0111557Y0026176D01*
X0111407Y0026103D01*
X0111256Y0026033D01*
X0111102Y0025968D01*
X0110947Y0025906D01*
X0110791Y0025848D01*
X0110633Y0025793D01*
X0110474Y0025743D01*
X0110314Y0025696D01*
X0110152Y0025654D01*
X0109990Y0025615D01*
X0109827Y0025581D01*
X0109663Y0025550D01*
X0109498Y0025524D01*
X0109332Y0025501D01*
X0109167Y0025483D01*
X0109000Y0025468D01*
X0108834Y0025458D01*
X0108667Y0025452D01*
X0108500Y0025450D01*
X0108333Y0025452D01*
X0108166Y0025458D01*
X0108000Y0025468D01*
X0107833Y0025483D01*
X0107668Y0025501D01*
X0107502Y0025524D01*
X0107337Y0025550D01*
X0107173Y0025581D01*
X0107010Y0025615D01*
X0106848Y0025654D01*
X0106686Y0025696D01*
X0106526Y0025743D01*
X0106367Y0025793D01*
X0106209Y0025848D01*
X0106053Y0025906D01*
X0105898Y0025968D01*
X0105744Y0026033D01*
X0105593Y0026103D01*
X0105443Y0026176D01*
X0105295Y0026253D01*
X0105148Y0026333D01*
X0105004Y0026417D01*
X0104862Y0026505D01*
X0104722Y0026596D01*
X0104585Y0026690D01*
X0104449Y0026788D01*
X0104316Y0026889D01*
X0104186Y0026994D01*
X0104058Y0027101D01*
X0103933Y0027212D01*
X0103811Y0027325D01*
X0103692Y0027442D01*
X0103575Y0027561D01*
X0103462Y0027683D01*
X0103351Y0027808D01*
X0103244Y0027936D01*
X0103139Y0028066D01*
X0103038Y0028199D01*
X0102940Y0028335D01*
X0102846Y0028472D01*
X0102755Y0028612D01*
X0102667Y0028754D01*
X0102583Y0028898D01*
X0102503Y0029045D01*
X0102426Y0029193D01*
X0102353Y0029343D01*
X0102283Y0029494D01*
X0102218Y0029648D01*
X0102156Y0029803D01*
X0102098Y0029959D01*
X0102043Y0030117D01*
X0101993Y0030276D01*
X0101946Y0030436D01*
X0101904Y0030598D01*
X0101865Y0030760D01*
X0101831Y0030923D01*
X0101800Y0031087D01*
X0101774Y0031252D01*
X0101751Y0031418D01*
X0101733Y0031583D01*
X0101718Y0031750D01*
X0101708Y0031916D01*
X0101702Y0032083D01*
X0101700Y0032250D01*
X0101700Y0124750D02*
X0101702Y0124917D01*
X0101708Y0125084D01*
X0101718Y0125250D01*
X0101733Y0125417D01*
X0101751Y0125582D01*
X0101774Y0125748D01*
X0101800Y0125913D01*
X0101831Y0126077D01*
X0101865Y0126240D01*
X0101904Y0126402D01*
X0101946Y0126564D01*
X0101993Y0126724D01*
X0102043Y0126883D01*
X0102098Y0127041D01*
X0102156Y0127197D01*
X0102218Y0127352D01*
X0102283Y0127506D01*
X0102353Y0127657D01*
X0102426Y0127807D01*
X0102503Y0127955D01*
X0102583Y0128102D01*
X0102667Y0128246D01*
X0102755Y0128388D01*
X0102846Y0128528D01*
X0102940Y0128665D01*
X0103038Y0128801D01*
X0103139Y0128934D01*
X0103244Y0129064D01*
X0103351Y0129192D01*
X0103462Y0129317D01*
X0103575Y0129439D01*
X0103692Y0129558D01*
X0103811Y0129675D01*
X0103933Y0129788D01*
X0104058Y0129899D01*
X0104186Y0130006D01*
X0104316Y0130111D01*
X0104449Y0130212D01*
X0104585Y0130310D01*
X0104722Y0130404D01*
X0104862Y0130495D01*
X0105004Y0130583D01*
X0105148Y0130667D01*
X0105295Y0130747D01*
X0105443Y0130824D01*
X0105593Y0130897D01*
X0105744Y0130967D01*
X0105898Y0131032D01*
X0106053Y0131094D01*
X0106209Y0131152D01*
X0106367Y0131207D01*
X0106526Y0131257D01*
X0106686Y0131304D01*
X0106848Y0131346D01*
X0107010Y0131385D01*
X0107173Y0131419D01*
X0107337Y0131450D01*
X0107502Y0131476D01*
X0107668Y0131499D01*
X0107833Y0131517D01*
X0108000Y0131532D01*
X0108166Y0131542D01*
X0108333Y0131548D01*
X0108500Y0131550D01*
X0108667Y0131548D01*
X0108834Y0131542D01*
X0109000Y0131532D01*
X0109167Y0131517D01*
X0109332Y0131499D01*
X0109498Y0131476D01*
X0109663Y0131450D01*
X0109827Y0131419D01*
X0109990Y0131385D01*
X0110152Y0131346D01*
X0110314Y0131304D01*
X0110474Y0131257D01*
X0110633Y0131207D01*
X0110791Y0131152D01*
X0110947Y0131094D01*
X0111102Y0131032D01*
X0111256Y0130967D01*
X0111407Y0130897D01*
X0111557Y0130824D01*
X0111705Y0130747D01*
X0111852Y0130667D01*
X0111996Y0130583D01*
X0112138Y0130495D01*
X0112278Y0130404D01*
X0112415Y0130310D01*
X0112551Y0130212D01*
X0112684Y0130111D01*
X0112814Y0130006D01*
X0112942Y0129899D01*
X0113067Y0129788D01*
X0113189Y0129675D01*
X0113308Y0129558D01*
X0113425Y0129439D01*
X0113538Y0129317D01*
X0113649Y0129192D01*
X0113756Y0129064D01*
X0113861Y0128934D01*
X0113962Y0128801D01*
X0114060Y0128665D01*
X0114154Y0128528D01*
X0114245Y0128388D01*
X0114333Y0128246D01*
X0114417Y0128102D01*
X0114497Y0127955D01*
X0114574Y0127807D01*
X0114647Y0127657D01*
X0114717Y0127506D01*
X0114782Y0127352D01*
X0114844Y0127197D01*
X0114902Y0127041D01*
X0114957Y0126883D01*
X0115007Y0126724D01*
X0115054Y0126564D01*
X0115096Y0126402D01*
X0115135Y0126240D01*
X0115169Y0126077D01*
X0115200Y0125913D01*
X0115226Y0125748D01*
X0115249Y0125582D01*
X0115267Y0125417D01*
X0115282Y0125250D01*
X0115292Y0125084D01*
X0115298Y0124917D01*
X0115300Y0124750D01*
X0115298Y0124583D01*
X0115292Y0124416D01*
X0115282Y0124250D01*
X0115267Y0124083D01*
X0115249Y0123918D01*
X0115226Y0123752D01*
X0115200Y0123587D01*
X0115169Y0123423D01*
X0115135Y0123260D01*
X0115096Y0123098D01*
X0115054Y0122936D01*
X0115007Y0122776D01*
X0114957Y0122617D01*
X0114902Y0122459D01*
X0114844Y0122303D01*
X0114782Y0122148D01*
X0114717Y0121994D01*
X0114647Y0121843D01*
X0114574Y0121693D01*
X0114497Y0121545D01*
X0114417Y0121398D01*
X0114333Y0121254D01*
X0114245Y0121112D01*
X0114154Y0120972D01*
X0114060Y0120835D01*
X0113962Y0120699D01*
X0113861Y0120566D01*
X0113756Y0120436D01*
X0113649Y0120308D01*
X0113538Y0120183D01*
X0113425Y0120061D01*
X0113308Y0119942D01*
X0113189Y0119825D01*
X0113067Y0119712D01*
X0112942Y0119601D01*
X0112814Y0119494D01*
X0112684Y0119389D01*
X0112551Y0119288D01*
X0112415Y0119190D01*
X0112278Y0119096D01*
X0112138Y0119005D01*
X0111996Y0118917D01*
X0111852Y0118833D01*
X0111705Y0118753D01*
X0111557Y0118676D01*
X0111407Y0118603D01*
X0111256Y0118533D01*
X0111102Y0118468D01*
X0110947Y0118406D01*
X0110791Y0118348D01*
X0110633Y0118293D01*
X0110474Y0118243D01*
X0110314Y0118196D01*
X0110152Y0118154D01*
X0109990Y0118115D01*
X0109827Y0118081D01*
X0109663Y0118050D01*
X0109498Y0118024D01*
X0109332Y0118001D01*
X0109167Y0117983D01*
X0109000Y0117968D01*
X0108834Y0117958D01*
X0108667Y0117952D01*
X0108500Y0117950D01*
X0108333Y0117952D01*
X0108166Y0117958D01*
X0108000Y0117968D01*
X0107833Y0117983D01*
X0107668Y0118001D01*
X0107502Y0118024D01*
X0107337Y0118050D01*
X0107173Y0118081D01*
X0107010Y0118115D01*
X0106848Y0118154D01*
X0106686Y0118196D01*
X0106526Y0118243D01*
X0106367Y0118293D01*
X0106209Y0118348D01*
X0106053Y0118406D01*
X0105898Y0118468D01*
X0105744Y0118533D01*
X0105593Y0118603D01*
X0105443Y0118676D01*
X0105295Y0118753D01*
X0105148Y0118833D01*
X0105004Y0118917D01*
X0104862Y0119005D01*
X0104722Y0119096D01*
X0104585Y0119190D01*
X0104449Y0119288D01*
X0104316Y0119389D01*
X0104186Y0119494D01*
X0104058Y0119601D01*
X0103933Y0119712D01*
X0103811Y0119825D01*
X0103692Y0119942D01*
X0103575Y0120061D01*
X0103462Y0120183D01*
X0103351Y0120308D01*
X0103244Y0120436D01*
X0103139Y0120566D01*
X0103038Y0120699D01*
X0102940Y0120835D01*
X0102846Y0120972D01*
X0102755Y0121112D01*
X0102667Y0121254D01*
X0102583Y0121398D01*
X0102503Y0121545D01*
X0102426Y0121693D01*
X0102353Y0121843D01*
X0102283Y0121994D01*
X0102218Y0122148D01*
X0102156Y0122303D01*
X0102098Y0122459D01*
X0102043Y0122617D01*
X0101993Y0122776D01*
X0101946Y0122936D01*
X0101904Y0123098D01*
X0101865Y0123260D01*
X0101831Y0123423D01*
X0101800Y0123587D01*
X0101774Y0123752D01*
X0101751Y0123918D01*
X0101733Y0124083D01*
X0101718Y0124250D01*
X0101708Y0124416D01*
X0101702Y0124583D01*
X0101700Y0124750D01*
D11*
X0005000Y0152500D02*
X0212000Y0152500D01*
X0212000Y0004500D01*
X0005000Y0004500D01*
X0005000Y0152500D01*
X0311000Y0128500D02*
X0311006Y0128991D01*
X0311024Y0129481D01*
X0311054Y0129971D01*
X0311096Y0130460D01*
X0311150Y0130948D01*
X0311216Y0131435D01*
X0311294Y0131919D01*
X0311384Y0132402D01*
X0311486Y0132882D01*
X0311599Y0133360D01*
X0311724Y0133834D01*
X0311861Y0134306D01*
X0312009Y0134774D01*
X0312169Y0135238D01*
X0312340Y0135698D01*
X0312522Y0136154D01*
X0312716Y0136605D01*
X0312920Y0137051D01*
X0313136Y0137492D01*
X0313362Y0137928D01*
X0313598Y0138358D01*
X0313845Y0138782D01*
X0314103Y0139200D01*
X0314371Y0139611D01*
X0314648Y0140016D01*
X0314936Y0140414D01*
X0315233Y0140805D01*
X0315540Y0141188D01*
X0315856Y0141563D01*
X0316181Y0141931D01*
X0316515Y0142291D01*
X0316858Y0142642D01*
X0317209Y0142985D01*
X0317569Y0143319D01*
X0317937Y0143644D01*
X0318312Y0143960D01*
X0318695Y0144267D01*
X0319086Y0144564D01*
X0319484Y0144852D01*
X0319889Y0145129D01*
X0320300Y0145397D01*
X0320718Y0145655D01*
X0321142Y0145902D01*
X0321572Y0146138D01*
X0322008Y0146364D01*
X0322449Y0146580D01*
X0322895Y0146784D01*
X0323346Y0146978D01*
X0323802Y0147160D01*
X0324262Y0147331D01*
X0324726Y0147491D01*
X0325194Y0147639D01*
X0325666Y0147776D01*
X0326140Y0147901D01*
X0326618Y0148014D01*
X0327098Y0148116D01*
X0327581Y0148206D01*
X0328065Y0148284D01*
X0328552Y0148350D01*
X0329040Y0148404D01*
X0329529Y0148446D01*
X0330019Y0148476D01*
X0330509Y0148494D01*
X0331000Y0148500D01*
X0331491Y0148494D01*
X0331981Y0148476D01*
X0332471Y0148446D01*
X0332960Y0148404D01*
X0333448Y0148350D01*
X0333935Y0148284D01*
X0334419Y0148206D01*
X0334902Y0148116D01*
X0335382Y0148014D01*
X0335860Y0147901D01*
X0336334Y0147776D01*
X0336806Y0147639D01*
X0337274Y0147491D01*
X0337738Y0147331D01*
X0338198Y0147160D01*
X0338654Y0146978D01*
X0339105Y0146784D01*
X0339551Y0146580D01*
X0339992Y0146364D01*
X0340428Y0146138D01*
X0340858Y0145902D01*
X0341282Y0145655D01*
X0341700Y0145397D01*
X0342111Y0145129D01*
X0342516Y0144852D01*
X0342914Y0144564D01*
X0343305Y0144267D01*
X0343688Y0143960D01*
X0344063Y0143644D01*
X0344431Y0143319D01*
X0344791Y0142985D01*
X0345142Y0142642D01*
X0345485Y0142291D01*
X0345819Y0141931D01*
X0346144Y0141563D01*
X0346460Y0141188D01*
X0346767Y0140805D01*
X0347064Y0140414D01*
X0347352Y0140016D01*
X0347629Y0139611D01*
X0347897Y0139200D01*
X0348155Y0138782D01*
X0348402Y0138358D01*
X0348638Y0137928D01*
X0348864Y0137492D01*
X0349080Y0137051D01*
X0349284Y0136605D01*
X0349478Y0136154D01*
X0349660Y0135698D01*
X0349831Y0135238D01*
X0349991Y0134774D01*
X0350139Y0134306D01*
X0350276Y0133834D01*
X0350401Y0133360D01*
X0350514Y0132882D01*
X0350616Y0132402D01*
X0350706Y0131919D01*
X0350784Y0131435D01*
X0350850Y0130948D01*
X0350904Y0130460D01*
X0350946Y0129971D01*
X0350976Y0129481D01*
X0350994Y0128991D01*
X0351000Y0128500D01*
X0350994Y0128009D01*
X0350976Y0127519D01*
X0350946Y0127029D01*
X0350904Y0126540D01*
X0350850Y0126052D01*
X0350784Y0125565D01*
X0350706Y0125081D01*
X0350616Y0124598D01*
X0350514Y0124118D01*
X0350401Y0123640D01*
X0350276Y0123166D01*
X0350139Y0122694D01*
X0349991Y0122226D01*
X0349831Y0121762D01*
X0349660Y0121302D01*
X0349478Y0120846D01*
X0349284Y0120395D01*
X0349080Y0119949D01*
X0348864Y0119508D01*
X0348638Y0119072D01*
X0348402Y0118642D01*
X0348155Y0118218D01*
X0347897Y0117800D01*
X0347629Y0117389D01*
X0347352Y0116984D01*
X0347064Y0116586D01*
X0346767Y0116195D01*
X0346460Y0115812D01*
X0346144Y0115437D01*
X0345819Y0115069D01*
X0345485Y0114709D01*
X0345142Y0114358D01*
X0344791Y0114015D01*
X0344431Y0113681D01*
X0344063Y0113356D01*
X0343688Y0113040D01*
X0343305Y0112733D01*
X0342914Y0112436D01*
X0342516Y0112148D01*
X0342111Y0111871D01*
X0341700Y0111603D01*
X0341282Y0111345D01*
X0340858Y0111098D01*
X0340428Y0110862D01*
X0339992Y0110636D01*
X0339551Y0110420D01*
X0339105Y0110216D01*
X0338654Y0110022D01*
X0338198Y0109840D01*
X0337738Y0109669D01*
X0337274Y0109509D01*
X0336806Y0109361D01*
X0336334Y0109224D01*
X0335860Y0109099D01*
X0335382Y0108986D01*
X0334902Y0108884D01*
X0334419Y0108794D01*
X0333935Y0108716D01*
X0333448Y0108650D01*
X0332960Y0108596D01*
X0332471Y0108554D01*
X0331981Y0108524D01*
X0331491Y0108506D01*
X0331000Y0108500D01*
X0330509Y0108506D01*
X0330019Y0108524D01*
X0329529Y0108554D01*
X0329040Y0108596D01*
X0328552Y0108650D01*
X0328065Y0108716D01*
X0327581Y0108794D01*
X0327098Y0108884D01*
X0326618Y0108986D01*
X0326140Y0109099D01*
X0325666Y0109224D01*
X0325194Y0109361D01*
X0324726Y0109509D01*
X0324262Y0109669D01*
X0323802Y0109840D01*
X0323346Y0110022D01*
X0322895Y0110216D01*
X0322449Y0110420D01*
X0322008Y0110636D01*
X0321572Y0110862D01*
X0321142Y0111098D01*
X0320718Y0111345D01*
X0320300Y0111603D01*
X0319889Y0111871D01*
X0319484Y0112148D01*
X0319086Y0112436D01*
X0318695Y0112733D01*
X0318312Y0113040D01*
X0317937Y0113356D01*
X0317569Y0113681D01*
X0317209Y0114015D01*
X0316858Y0114358D01*
X0316515Y0114709D01*
X0316181Y0115069D01*
X0315856Y0115437D01*
X0315540Y0115812D01*
X0315233Y0116195D01*
X0314936Y0116586D01*
X0314648Y0116984D01*
X0314371Y0117389D01*
X0314103Y0117800D01*
X0313845Y0118218D01*
X0313598Y0118642D01*
X0313362Y0119072D01*
X0313136Y0119508D01*
X0312920Y0119949D01*
X0312716Y0120395D01*
X0312522Y0120846D01*
X0312340Y0121302D01*
X0312169Y0121762D01*
X0312009Y0122226D01*
X0311861Y0122694D01*
X0311724Y0123166D01*
X0311599Y0123640D01*
X0311486Y0124118D01*
X0311384Y0124598D01*
X0311294Y0125081D01*
X0311216Y0125565D01*
X0311150Y0126052D01*
X0311096Y0126540D01*
X0311054Y0127029D01*
X0311024Y0127519D01*
X0311006Y0128009D01*
X0311000Y0128500D01*
X0331000Y0113500D02*
X0331000Y0103500D01*
D12*
X0202308Y0118504D02*
X0196169Y0118504D01*
X0199239Y0121573D02*
X0199239Y0115435D01*
X0202308Y0068504D02*
X0196169Y0068504D01*
D13*
X0313523Y0121200D02*
X0316592Y0121200D01*
X0316592Y0125804D01*
X0318127Y0125037D02*
X0318894Y0125804D01*
X0320429Y0125804D01*
X0321196Y0125037D01*
X0321196Y0121967D01*
X0320429Y0121200D01*
X0318894Y0121200D01*
X0318127Y0121967D01*
X0322731Y0121967D02*
X0322731Y0122735D01*
X0323498Y0123502D01*
X0325033Y0123502D01*
X0325800Y0124269D01*
X0325800Y0125037D01*
X0325033Y0125804D01*
X0323498Y0125804D01*
X0322731Y0125037D01*
X0323498Y0128700D02*
X0325033Y0128700D01*
X0325800Y0129467D01*
X0325033Y0131002D02*
X0323498Y0131002D01*
X0322731Y0130235D01*
X0322731Y0129467D01*
X0323498Y0128700D01*
X0321196Y0128700D02*
X0318894Y0128700D01*
X0318127Y0129467D01*
X0318127Y0132537D01*
X0318894Y0133304D01*
X0321196Y0133304D01*
X0321196Y0128700D01*
X0325033Y0131002D02*
X0325800Y0131769D01*
X0325800Y0132537D01*
X0325033Y0133304D01*
X0323498Y0133304D01*
X0322731Y0132537D01*
X0316592Y0131769D02*
X0315058Y0133304D01*
X0313523Y0131769D01*
X0313523Y0128700D01*
X0313523Y0131002D02*
X0316592Y0131002D01*
X0316592Y0131769D02*
X0316592Y0128700D01*
X0322731Y0121967D02*
X0323498Y0121200D01*
X0325033Y0121200D01*
X0325800Y0121967D01*
X0333523Y0121967D02*
X0333523Y0125037D01*
X0334290Y0125804D01*
X0336592Y0125804D01*
X0336592Y0121200D01*
X0334290Y0121200D01*
X0333523Y0121967D01*
X0338127Y0121200D02*
X0338127Y0125804D01*
X0341196Y0125804D02*
X0338127Y0121200D01*
X0341196Y0121200D02*
X0341196Y0125804D01*
X0342731Y0125037D02*
X0343498Y0125804D01*
X0345033Y0125804D01*
X0345800Y0125037D01*
X0345800Y0121967D01*
X0345033Y0121200D01*
X0343498Y0121200D01*
X0342731Y0121967D01*
X0342731Y0123502D01*
X0344265Y0123502D01*
X0344265Y0128700D02*
X0342731Y0130235D01*
X0342731Y0133304D01*
X0341196Y0131002D02*
X0338127Y0131002D01*
X0339661Y0132537D02*
X0339661Y0129467D01*
X0344265Y0128700D02*
X0345800Y0130235D01*
X0345800Y0133304D01*
X0368523Y0148700D02*
X0371592Y0153304D01*
X0368523Y0153304D02*
X0371592Y0148700D01*
X0373127Y0148700D02*
X0376196Y0148700D01*
X0376196Y0153304D01*
X0377731Y0153304D02*
X0379265Y0151769D01*
X0380800Y0153304D01*
X0380800Y0148700D01*
X0377731Y0148700D02*
X0377731Y0153304D01*
X0380800Y0110804D02*
X0380800Y0106200D01*
X0377731Y0106200D01*
X0376196Y0106200D02*
X0376196Y0109269D01*
X0374661Y0110804D01*
X0373127Y0109269D01*
X0373127Y0106200D01*
X0371592Y0106967D02*
X0370825Y0106200D01*
X0369290Y0106200D01*
X0368523Y0106967D01*
X0368523Y0107735D01*
X0369290Y0108502D01*
X0370825Y0108502D01*
X0371592Y0109269D01*
X0371592Y0110037D01*
X0370825Y0110804D01*
X0369290Y0110804D01*
X0368523Y0110037D01*
X0366988Y0110804D02*
X0366988Y0106200D01*
X0363919Y0106200D01*
X0362384Y0106200D02*
X0362384Y0110804D01*
X0360082Y0110804D01*
X0359315Y0110037D01*
X0359315Y0108502D01*
X0360082Y0107735D01*
X0362384Y0107735D01*
X0360850Y0107735D02*
X0359315Y0106200D01*
X0365454Y0108502D02*
X0366988Y0108502D01*
X0366988Y0110804D02*
X0363919Y0110804D01*
X0373127Y0108502D02*
X0376196Y0108502D01*
D14*
X0314400Y0085800D02*
X0314400Y0081200D01*
X0307600Y0081200D02*
X0307600Y0085800D01*
D15*
X0305802Y0084488D02*
X0304334Y0083020D01*
X0304701Y0083387D02*
X0303600Y0084488D01*
X0303600Y0083020D02*
X0305802Y0083020D01*
X0305435Y0082278D02*
X0305802Y0081911D01*
X0305802Y0081177D01*
X0305435Y0080810D01*
X0303967Y0080810D01*
X0305435Y0082278D01*
X0303967Y0082278D01*
X0303600Y0081911D01*
X0303600Y0081177D01*
X0303967Y0080810D01*
X0303600Y0080068D02*
X0303600Y0078600D01*
X0303600Y0079334D02*
X0305802Y0079334D01*
X0305068Y0078600D01*
X0316100Y0078600D02*
X0318302Y0078600D01*
X0318302Y0079701D01*
X0317935Y0080068D01*
X0317201Y0080068D01*
X0316834Y0079701D01*
X0316834Y0078600D01*
X0316834Y0079334D02*
X0316100Y0080068D01*
X0316467Y0080810D02*
X0316100Y0081177D01*
X0316100Y0081911D01*
X0316467Y0082278D01*
X0316834Y0082278D01*
X0317201Y0081911D01*
X0317201Y0081544D01*
X0317201Y0081911D02*
X0317568Y0082278D01*
X0317935Y0082278D01*
X0318302Y0081911D01*
X0318302Y0081177D01*
X0317935Y0080810D01*
X0305802Y0087806D02*
X0305435Y0087440D01*
X0303967Y0087440D01*
X0303600Y0087806D01*
X0303600Y0088540D01*
X0303967Y0088907D01*
X0305435Y0088907D01*
X0305802Y0088540D01*
X0305802Y0087806D01*
X0305802Y0089649D02*
X0303600Y0089649D01*
X0304701Y0089649D02*
X0305068Y0090016D01*
X0305068Y0090750D01*
X0304701Y0091117D01*
X0303600Y0091117D01*
X0303600Y0091859D02*
X0305068Y0091859D01*
X0305068Y0092226D01*
X0304701Y0092593D01*
X0305068Y0092960D01*
X0304701Y0093327D01*
X0303600Y0093327D01*
X0303600Y0092593D02*
X0304701Y0092593D01*
X0304701Y0094069D02*
X0305068Y0094436D01*
X0305068Y0095537D01*
X0304334Y0095170D02*
X0304334Y0094436D01*
X0304701Y0094069D01*
X0303600Y0094069D02*
X0303600Y0095170D01*
X0303967Y0095537D01*
X0304334Y0095170D01*
M02*
