%
M48
M72
T01C0.03543
T02C0.04000
T03C0.11811
%
T01
X417664Y261971
X417664Y291971
X538333Y220750
X568333Y220750
X553333Y145750
X553333Y115750
T02
X399810Y134865
X399810Y144865
X399810Y154865
X399810Y164865
X399810Y174865
X399810Y184865
X399810Y194865
X399810Y204865
X399810Y214865
X399810Y224865
X399810Y234865
X399810Y244865
X399810Y254865
X399810Y264865
X399810Y274865
X399810Y284865
X464633Y263250
X470144Y250061
X496522Y250061
X502034Y263250
X496522Y276439
X470144Y276439
X568333Y280750
X508333Y224451
X508333Y214451
X508333Y204451
X508333Y194451
X508333Y184451
X508333Y174451
X508333Y164451
X508333Y154451
X508333Y144451
X508333Y134451
X508333Y124451
X508333Y114451
X448333Y114451
X448333Y124451
X448333Y134451
X448333Y144451
X448333Y154451
X448333Y164451
X448333Y174451
X448333Y184451
X448333Y194451
X448333Y204451
X448333Y214451
X448333Y224451
X573333Y148250
X400833Y123250
X400833Y110750
T03
X483333Y263250
M30
