G75*
%MOIN*%
%OFA0B0*%
%FSLAX25Y25*%
%IPPOS*%
%LPD*%
%AMOC8*
5,1,8,0,0,1.08239X$1,22.5*
%
%ADD10C,0.07800*%
%ADD11R,0.07800X0.07800*%
%ADD12C,0.06400*%
%ADD13C,0.12211*%
D10*
X0399810Y0134865D03*
X0399810Y0144865D03*
X0399810Y0154865D03*
X0399810Y0164865D03*
X0399810Y0174865D03*
X0399810Y0184865D03*
X0399810Y0194865D03*
X0399810Y0204865D03*
X0399810Y0214865D03*
X0399810Y0224865D03*
X0399810Y0234865D03*
X0399810Y0244865D03*
X0399810Y0254865D03*
X0399810Y0264865D03*
X0399810Y0274865D03*
X0417664Y0261971D03*
X0417664Y0291971D03*
X0448333Y0224451D03*
X0448333Y0214451D03*
X0448333Y0204451D03*
X0448333Y0194451D03*
X0448333Y0184451D03*
X0448333Y0174451D03*
X0448333Y0164451D03*
X0448333Y0154451D03*
X0448333Y0144451D03*
X0448333Y0134451D03*
X0448333Y0124451D03*
X0448333Y0114451D03*
X0400833Y0110750D03*
X0400833Y0123250D03*
X0508333Y0124451D03*
X0508333Y0114451D03*
X0508333Y0134451D03*
X0508333Y0144451D03*
X0508333Y0154451D03*
X0508333Y0164451D03*
X0508333Y0174451D03*
X0508333Y0184451D03*
X0508333Y0194451D03*
X0508333Y0204451D03*
X0508333Y0214451D03*
X0508333Y0224451D03*
X0538333Y0220750D03*
X0568333Y0220750D03*
X0568333Y0280750D03*
X0573333Y0148250D03*
X0553333Y0145750D03*
X0553333Y0115750D03*
D11*
X0399810Y0284865D03*
D12*
X0464633Y0263250D03*
X0470144Y0250061D03*
X0496522Y0250061D03*
X0502034Y0263250D03*
X0496522Y0276439D03*
X0470144Y0276439D03*
D13*
X0483333Y0263250D03*
M02*
