G75*
%MOIN*%
%OFA0B0*%
%FSLAX25Y25*%
%IPPOS*%
%LPD*%
%AMOC8*
5,1,8,0,0,1.08239X$1,22.5*
%
%ADD10C,0.00000*%
%ADD11C,0.07400*%
%ADD12R,0.07400X0.07400*%
%ADD13C,0.06000*%
%ADD14C,0.01600*%
D10*
X0380833Y0098861D02*
X0380833Y0298211D01*
X0585184Y0298211D01*
X0585184Y0098861D01*
X0380833Y0098861D01*
X0477427Y0263250D02*
X0477429Y0263403D01*
X0477435Y0263557D01*
X0477445Y0263710D01*
X0477459Y0263862D01*
X0477477Y0264015D01*
X0477499Y0264166D01*
X0477524Y0264317D01*
X0477554Y0264468D01*
X0477588Y0264618D01*
X0477625Y0264766D01*
X0477666Y0264914D01*
X0477711Y0265060D01*
X0477760Y0265206D01*
X0477813Y0265350D01*
X0477869Y0265492D01*
X0477929Y0265633D01*
X0477993Y0265773D01*
X0478060Y0265911D01*
X0478131Y0266047D01*
X0478206Y0266181D01*
X0478283Y0266313D01*
X0478365Y0266443D01*
X0478449Y0266571D01*
X0478537Y0266697D01*
X0478628Y0266820D01*
X0478722Y0266941D01*
X0478820Y0267059D01*
X0478920Y0267175D01*
X0479024Y0267288D01*
X0479130Y0267399D01*
X0479239Y0267507D01*
X0479351Y0267612D01*
X0479465Y0267713D01*
X0479583Y0267812D01*
X0479702Y0267908D01*
X0479824Y0268001D01*
X0479949Y0268090D01*
X0480076Y0268177D01*
X0480205Y0268259D01*
X0480336Y0268339D01*
X0480469Y0268415D01*
X0480604Y0268488D01*
X0480741Y0268557D01*
X0480880Y0268622D01*
X0481020Y0268684D01*
X0481162Y0268742D01*
X0481305Y0268797D01*
X0481450Y0268848D01*
X0481596Y0268895D01*
X0481743Y0268938D01*
X0481891Y0268977D01*
X0482040Y0269013D01*
X0482190Y0269044D01*
X0482341Y0269072D01*
X0482492Y0269096D01*
X0482645Y0269116D01*
X0482797Y0269132D01*
X0482950Y0269144D01*
X0483103Y0269152D01*
X0483256Y0269156D01*
X0483410Y0269156D01*
X0483563Y0269152D01*
X0483716Y0269144D01*
X0483869Y0269132D01*
X0484021Y0269116D01*
X0484174Y0269096D01*
X0484325Y0269072D01*
X0484476Y0269044D01*
X0484626Y0269013D01*
X0484775Y0268977D01*
X0484923Y0268938D01*
X0485070Y0268895D01*
X0485216Y0268848D01*
X0485361Y0268797D01*
X0485504Y0268742D01*
X0485646Y0268684D01*
X0485786Y0268622D01*
X0485925Y0268557D01*
X0486062Y0268488D01*
X0486197Y0268415D01*
X0486330Y0268339D01*
X0486461Y0268259D01*
X0486590Y0268177D01*
X0486717Y0268090D01*
X0486842Y0268001D01*
X0486964Y0267908D01*
X0487083Y0267812D01*
X0487201Y0267713D01*
X0487315Y0267612D01*
X0487427Y0267507D01*
X0487536Y0267399D01*
X0487642Y0267288D01*
X0487746Y0267175D01*
X0487846Y0267059D01*
X0487944Y0266941D01*
X0488038Y0266820D01*
X0488129Y0266697D01*
X0488217Y0266571D01*
X0488301Y0266443D01*
X0488383Y0266313D01*
X0488460Y0266181D01*
X0488535Y0266047D01*
X0488606Y0265911D01*
X0488673Y0265773D01*
X0488737Y0265633D01*
X0488797Y0265492D01*
X0488853Y0265350D01*
X0488906Y0265206D01*
X0488955Y0265060D01*
X0489000Y0264914D01*
X0489041Y0264766D01*
X0489078Y0264618D01*
X0489112Y0264468D01*
X0489142Y0264317D01*
X0489167Y0264166D01*
X0489189Y0264015D01*
X0489207Y0263862D01*
X0489221Y0263710D01*
X0489231Y0263557D01*
X0489237Y0263403D01*
X0489239Y0263250D01*
X0489237Y0263097D01*
X0489231Y0262943D01*
X0489221Y0262790D01*
X0489207Y0262638D01*
X0489189Y0262485D01*
X0489167Y0262334D01*
X0489142Y0262183D01*
X0489112Y0262032D01*
X0489078Y0261882D01*
X0489041Y0261734D01*
X0489000Y0261586D01*
X0488955Y0261440D01*
X0488906Y0261294D01*
X0488853Y0261150D01*
X0488797Y0261008D01*
X0488737Y0260867D01*
X0488673Y0260727D01*
X0488606Y0260589D01*
X0488535Y0260453D01*
X0488460Y0260319D01*
X0488383Y0260187D01*
X0488301Y0260057D01*
X0488217Y0259929D01*
X0488129Y0259803D01*
X0488038Y0259680D01*
X0487944Y0259559D01*
X0487846Y0259441D01*
X0487746Y0259325D01*
X0487642Y0259212D01*
X0487536Y0259101D01*
X0487427Y0258993D01*
X0487315Y0258888D01*
X0487201Y0258787D01*
X0487083Y0258688D01*
X0486964Y0258592D01*
X0486842Y0258499D01*
X0486717Y0258410D01*
X0486590Y0258323D01*
X0486461Y0258241D01*
X0486330Y0258161D01*
X0486197Y0258085D01*
X0486062Y0258012D01*
X0485925Y0257943D01*
X0485786Y0257878D01*
X0485646Y0257816D01*
X0485504Y0257758D01*
X0485361Y0257703D01*
X0485216Y0257652D01*
X0485070Y0257605D01*
X0484923Y0257562D01*
X0484775Y0257523D01*
X0484626Y0257487D01*
X0484476Y0257456D01*
X0484325Y0257428D01*
X0484174Y0257404D01*
X0484021Y0257384D01*
X0483869Y0257368D01*
X0483716Y0257356D01*
X0483563Y0257348D01*
X0483410Y0257344D01*
X0483256Y0257344D01*
X0483103Y0257348D01*
X0482950Y0257356D01*
X0482797Y0257368D01*
X0482645Y0257384D01*
X0482492Y0257404D01*
X0482341Y0257428D01*
X0482190Y0257456D01*
X0482040Y0257487D01*
X0481891Y0257523D01*
X0481743Y0257562D01*
X0481596Y0257605D01*
X0481450Y0257652D01*
X0481305Y0257703D01*
X0481162Y0257758D01*
X0481020Y0257816D01*
X0480880Y0257878D01*
X0480741Y0257943D01*
X0480604Y0258012D01*
X0480469Y0258085D01*
X0480336Y0258161D01*
X0480205Y0258241D01*
X0480076Y0258323D01*
X0479949Y0258410D01*
X0479824Y0258499D01*
X0479702Y0258592D01*
X0479583Y0258688D01*
X0479465Y0258787D01*
X0479351Y0258888D01*
X0479239Y0258993D01*
X0479130Y0259101D01*
X0479024Y0259212D01*
X0478920Y0259325D01*
X0478820Y0259441D01*
X0478722Y0259559D01*
X0478628Y0259680D01*
X0478537Y0259803D01*
X0478449Y0259929D01*
X0478365Y0260057D01*
X0478283Y0260187D01*
X0478206Y0260319D01*
X0478131Y0260453D01*
X0478060Y0260589D01*
X0477993Y0260727D01*
X0477929Y0260867D01*
X0477869Y0261008D01*
X0477813Y0261150D01*
X0477760Y0261294D01*
X0477711Y0261440D01*
X0477666Y0261586D01*
X0477625Y0261734D01*
X0477588Y0261882D01*
X0477554Y0262032D01*
X0477524Y0262183D01*
X0477499Y0262334D01*
X0477477Y0262485D01*
X0477459Y0262638D01*
X0477445Y0262790D01*
X0477435Y0262943D01*
X0477429Y0263097D01*
X0477427Y0263250D01*
D11*
X0417664Y0261971D03*
X0399810Y0264865D03*
X0399810Y0274865D03*
X0417664Y0291971D03*
X0399810Y0254865D03*
X0399810Y0244865D03*
X0399810Y0234865D03*
X0399810Y0224865D03*
X0399810Y0214865D03*
X0399810Y0204865D03*
X0399810Y0194865D03*
X0399810Y0184865D03*
X0399810Y0174865D03*
X0399810Y0164865D03*
X0399810Y0154865D03*
X0399810Y0144865D03*
X0399810Y0134865D03*
X0400833Y0123250D03*
X0400833Y0110750D03*
X0448333Y0114451D03*
X0448333Y0124451D03*
X0448333Y0134451D03*
X0448333Y0144451D03*
X0448333Y0154451D03*
X0448333Y0164451D03*
X0448333Y0174451D03*
X0448333Y0184451D03*
X0448333Y0194451D03*
X0448333Y0204451D03*
X0448333Y0214451D03*
X0448333Y0224451D03*
X0508333Y0224451D03*
X0508333Y0214451D03*
X0508333Y0204451D03*
X0508333Y0194451D03*
X0508333Y0184451D03*
X0508333Y0174451D03*
X0508333Y0164451D03*
X0508333Y0154451D03*
X0508333Y0144451D03*
X0508333Y0134451D03*
X0508333Y0124451D03*
X0508333Y0114451D03*
X0553333Y0115750D03*
X0553333Y0145750D03*
X0573333Y0148250D03*
X0568333Y0220750D03*
X0538333Y0220750D03*
X0568333Y0280750D03*
D12*
X0399810Y0284865D03*
D13*
X0464633Y0263250D03*
X0470144Y0250061D03*
X0496522Y0250061D03*
X0502034Y0263250D03*
X0496522Y0276439D03*
X0470144Y0276439D03*
D14*
X0428333Y0291971D02*
X0428333Y0248250D01*
X0399810Y0248250D01*
X0399810Y0244865D01*
X0435833Y0228250D02*
X0445833Y0238250D01*
X0494534Y0238250D01*
X0508333Y0224451D01*
X0435833Y0228250D02*
X0435833Y0215750D01*
X0404948Y0184865D01*
X0399810Y0184865D01*
X0399810Y0134865D02*
X0388333Y0123388D01*
X0388333Y0103861D01*
X0388944Y0103250D01*
X0463333Y0103250D01*
X0504534Y0144451D01*
X0508333Y0144451D01*
X0509633Y0145750D01*
X0553333Y0145750D01*
X0557133Y0164451D02*
X0573333Y0148250D01*
X0573333Y0135750D01*
X0553333Y0115750D01*
X0557133Y0164451D02*
X0508333Y0164451D01*
X0428333Y0291971D02*
X0417664Y0291971D01*
M02*
