G75*
%MOIN*%
%OFA0B0*%
%FSLAX25Y25*%
%IPPOS*%
%LPD*%
%AMOC8*
5,1,8,0,0,1.08239X$1,22.5*
%
%ADD10R,0.04400X0.07900*%
%ADD11C,0.07924*%
%ADD12R,0.07900X0.04400*%
%ADD13R,0.06350X0.06350*%
%ADD14C,0.06350*%
%ADD15R,0.05200X0.07700*%
%ADD16C,0.07000*%
%ADD17R,0.02900X0.05400*%
D10*
X0020500Y0046000D03*
X0031500Y0046000D03*
X0090500Y0106000D03*
X0101500Y0106000D03*
X0125500Y0031000D03*
X0136500Y0031000D03*
D11*
X0021000Y0021000D03*
X0041000Y0021000D03*
X0071000Y0021000D03*
X0091000Y0021000D03*
X0131000Y0051000D03*
X0131000Y0071000D03*
X0131000Y0101000D03*
X0131000Y0121000D03*
X0131000Y0161000D03*
X0131000Y0181000D03*
X0056000Y0181000D03*
X0036000Y0181000D03*
D12*
X0111000Y0036500D03*
X0111000Y0025500D03*
D13*
X0116000Y0016000D03*
X0099000Y0186000D03*
D14*
X0099000Y0166000D03*
X0099000Y0146000D03*
X0099000Y0126000D03*
X0126000Y0016000D03*
X0136000Y0016000D03*
D15*
X0106800Y0056000D03*
X0095200Y0056000D03*
X0095200Y0076000D03*
X0106800Y0076000D03*
X0101800Y0091000D03*
X0090200Y0091000D03*
D16*
X0073500Y0093500D03*
X0073500Y0083500D03*
X0073500Y0073500D03*
X0073500Y0063500D03*
X0073500Y0103500D03*
X0073500Y0113500D03*
X0073500Y0123500D03*
X0073500Y0133500D03*
X0073500Y0143500D03*
X0073500Y0153500D03*
X0073500Y0163500D03*
X0073500Y0173500D03*
X0073500Y0183500D03*
X0073500Y0193500D03*
X0013500Y0193500D03*
X0013500Y0183500D03*
X0013500Y0173500D03*
X0013500Y0163500D03*
X0013500Y0153500D03*
X0013500Y0143500D03*
X0013500Y0133500D03*
X0013500Y0123500D03*
X0013500Y0113500D03*
X0013500Y0103500D03*
X0013500Y0093500D03*
X0013500Y0083500D03*
X0013500Y0073500D03*
X0013500Y0063500D03*
D17*
X0052300Y0054300D03*
X0056000Y0045700D03*
X0059700Y0054300D03*
X0046000Y0141700D03*
X0042300Y0150300D03*
X0049700Y0150300D03*
M02*
