G75*
%MOIN*%
%OFA0B0*%
%FSLAX25Y25*%
%IPPOS*%
%LPD*%
%AMOC8*
5,1,8,0,0,1.08239X$1,22.5*
%
%ADD10C,0.09461*%
%ADD11R,0.07900X0.04400*%
%ADD12R,0.03162X0.09461*%
%ADD13R,0.07700X0.05200*%
%ADD14R,0.08800X0.06800*%
%ADD15C,0.05950*%
%ADD16R,0.05950X0.05950*%
%ADD17R,0.04369X0.04369*%
D10*
X0012340Y0187717D03*
X0242340Y0187717D03*
D11*
X0184541Y0188477D03*
X0184541Y0177477D03*
X0207930Y0077238D03*
X0207930Y0066238D03*
X0203919Y0029642D03*
X0203919Y0018642D03*
X0046513Y0018949D03*
X0046513Y0029949D03*
X0037202Y0065608D03*
X0037202Y0076608D03*
D12*
X0010667Y0015354D03*
X0015667Y0015354D03*
X0020667Y0015354D03*
X0025667Y0015354D03*
X0025667Y0035827D03*
X0020667Y0035827D03*
X0015667Y0035827D03*
X0010667Y0035827D03*
X0013039Y0060630D03*
X0018039Y0060630D03*
X0023039Y0060630D03*
X0028039Y0060630D03*
X0028039Y0081102D03*
X0023039Y0081102D03*
X0018039Y0081102D03*
X0013039Y0081102D03*
X0131564Y0171832D03*
X0136564Y0171832D03*
X0141564Y0171832D03*
X0146564Y0171832D03*
X0151564Y0171832D03*
X0156564Y0171832D03*
X0161564Y0171832D03*
X0166564Y0171832D03*
X0166564Y0192305D03*
X0161564Y0192305D03*
X0156564Y0192305D03*
X0151564Y0192305D03*
X0146564Y0192305D03*
X0141564Y0192305D03*
X0136564Y0192305D03*
X0131564Y0192305D03*
X0228147Y0081102D03*
X0233147Y0081102D03*
X0238147Y0081102D03*
X0243147Y0081102D03*
X0243147Y0060630D03*
X0238147Y0060630D03*
X0233147Y0060630D03*
X0228147Y0060630D03*
X0228147Y0038268D03*
X0233147Y0038268D03*
X0238147Y0038268D03*
X0243147Y0038268D03*
X0243147Y0017795D03*
X0238147Y0017795D03*
X0233147Y0017795D03*
X0228147Y0017795D03*
D13*
X0216659Y0018353D03*
X0216659Y0029953D03*
X0218553Y0066099D03*
X0218553Y0077699D03*
X0047467Y0076818D03*
X0047467Y0065218D03*
X0034993Y0030202D03*
X0034993Y0018602D03*
D14*
X0069331Y0007717D03*
X0113993Y0007717D03*
X0136260Y0007717D03*
X0180923Y0007717D03*
X0199978Y0100079D03*
X0244640Y0100079D03*
X0053695Y0100079D03*
X0009033Y0100079D03*
D15*
X0062243Y0174756D03*
X0062243Y0184756D03*
X0072243Y0184756D03*
X0082243Y0184756D03*
X0092243Y0184756D03*
X0092243Y0174756D03*
X0082243Y0174756D03*
X0072243Y0174756D03*
X0102243Y0174756D03*
D16*
X0102243Y0184756D03*
D17*
X0141440Y0184917D03*
X0156540Y0184617D03*
X0166540Y0184817D03*
X0051940Y0092517D03*
X0018040Y0089017D03*
X0028240Y0052417D03*
X0015840Y0043117D03*
X0032340Y0012517D03*
X0018240Y0006817D03*
X0125040Y0089317D03*
X0146640Y0079417D03*
X0221540Y0040717D03*
X0236840Y0069417D03*
X0242740Y0069017D03*
X0233040Y0088617D03*
X0244840Y0010017D03*
X0171340Y0008217D03*
M02*
