G75*
%MOIN*%
%OFA0B0*%
%FSLAX25Y25*%
%IPPOS*%
%LPD*%
%AMOC8*
5,1,8,0,0,1.08239X$1,22.5*
%
%ADD10C,0.05150*%
%ADD11R,0.05150X0.05150*%
%ADD12R,0.03569X0.03569*%
%ADD13C,0.01600*%
D10*
X0062243Y0174756D03*
X0062243Y0184756D03*
X0072243Y0184756D03*
X0082243Y0184756D03*
X0092243Y0184756D03*
X0092243Y0174756D03*
X0082243Y0174756D03*
X0072243Y0174756D03*
X0102243Y0174756D03*
D11*
X0102243Y0184756D03*
D12*
X0141440Y0184917D03*
X0156540Y0184617D03*
X0166540Y0184817D03*
X0051940Y0092517D03*
X0018040Y0089017D03*
X0028240Y0052417D03*
X0015840Y0043117D03*
X0032340Y0012517D03*
X0018240Y0006817D03*
X0125040Y0089317D03*
X0146640Y0079417D03*
X0221540Y0040717D03*
X0236840Y0069417D03*
X0242740Y0069017D03*
X0233040Y0088617D03*
X0244840Y0010017D03*
X0171340Y0008217D03*
D13*
X0006277Y0006654D02*
X0006277Y0101142D01*
X0112576Y0101142D01*
X0112576Y0164134D01*
X0073483Y0164134D01*
X0074253Y0164904D01*
X0075153Y0165804D01*
X0075640Y0166980D01*
X0075640Y0171117D01*
X0076460Y0171938D01*
X0077218Y0173766D01*
X0077218Y0175745D01*
X0076460Y0177574D01*
X0075061Y0178973D01*
X0073233Y0179731D01*
X0071253Y0179731D01*
X0069425Y0178973D01*
X0068026Y0177574D01*
X0067268Y0175745D01*
X0067268Y0173766D01*
X0068026Y0171938D01*
X0069240Y0170724D01*
X0069240Y0168942D01*
X0067914Y0167617D01*
X0061065Y0167617D01*
X0057940Y0170742D01*
X0057940Y0173959D01*
X0057976Y0173731D01*
X0058189Y0173077D01*
X0058501Y0172463D01*
X0058906Y0171906D01*
X0059393Y0171419D01*
X0059950Y0171014D01*
X0060564Y0170702D01*
X0061219Y0170489D01*
X0061899Y0170381D01*
X0062243Y0170381D01*
X0062243Y0174756D01*
X0062243Y0179131D01*
X0061899Y0179131D01*
X0061219Y0179023D01*
X0060564Y0178810D01*
X0059950Y0178498D01*
X0059393Y0178093D01*
X0058906Y0177606D01*
X0058501Y0177049D01*
X0058189Y0176435D01*
X0057976Y0175780D01*
X0057940Y0175552D01*
X0057940Y0182145D01*
X0058026Y0181938D01*
X0059425Y0180538D01*
X0061253Y0179781D01*
X0063233Y0179781D01*
X0065061Y0180538D01*
X0066460Y0181938D01*
X0067218Y0183766D01*
X0067218Y0185745D01*
X0066460Y0187574D01*
X0065061Y0188973D01*
X0063233Y0189731D01*
X0061253Y0189731D01*
X0059425Y0188973D01*
X0058026Y0187574D01*
X0057940Y0187367D01*
X0057940Y0199591D01*
X0059265Y0200917D01*
X0152414Y0200917D01*
X0153340Y0199991D01*
X0153340Y0188379D01*
X0152721Y0187760D01*
X0152356Y0186878D01*
X0152356Y0182355D01*
X0152721Y0181473D01*
X0153396Y0180798D01*
X0154278Y0180432D01*
X0158802Y0180432D01*
X0159684Y0180798D01*
X0160359Y0181473D01*
X0160724Y0182355D01*
X0160724Y0186878D01*
X0160359Y0187760D01*
X0159740Y0188379D01*
X0159740Y0201953D01*
X0159253Y0203129D01*
X0156453Y0205929D01*
X0155553Y0206829D01*
X0154376Y0207317D01*
X0057303Y0207317D01*
X0056127Y0206829D01*
X0052927Y0203629D01*
X0052027Y0202729D01*
X0051540Y0201553D01*
X0051540Y0168780D01*
X0052027Y0167604D01*
X0055497Y0164134D01*
X0037773Y0164134D01*
X0037773Y0207441D01*
X0222812Y0207441D01*
X0222812Y0164134D01*
X0140135Y0164134D01*
X0140135Y0101730D01*
X0136040Y0105825D01*
X0136040Y0161653D01*
X0135553Y0162829D01*
X0134653Y0163729D01*
X0110913Y0187469D01*
X0109737Y0187956D01*
X0107157Y0187956D01*
X0106852Y0188690D01*
X0106177Y0189365D01*
X0105295Y0189731D01*
X0099191Y0189731D01*
X0098309Y0189365D01*
X0097634Y0188690D01*
X0097268Y0187808D01*
X0097268Y0181704D01*
X0097634Y0180822D01*
X0098309Y0180146D01*
X0099191Y0179781D01*
X0105295Y0179781D01*
X0106177Y0180146D01*
X0106852Y0180822D01*
X0107157Y0181556D01*
X0107775Y0181556D01*
X0111473Y0177858D01*
X0111237Y0177956D01*
X0106078Y0177956D01*
X0105061Y0178973D01*
X0103233Y0179731D01*
X0101253Y0179731D01*
X0099425Y0178973D01*
X0098026Y0177574D01*
X0097268Y0175745D01*
X0097268Y0173766D01*
X0098026Y0171938D01*
X0099425Y0170538D01*
X0101253Y0169781D01*
X0103233Y0169781D01*
X0105061Y0170538D01*
X0106078Y0171556D01*
X0109275Y0171556D01*
X0120640Y0160191D01*
X0120640Y0101442D01*
X0110614Y0091417D01*
X0022167Y0091417D01*
X0021859Y0092160D01*
X0021184Y0092835D01*
X0020302Y0093201D01*
X0015778Y0093201D01*
X0014896Y0092835D01*
X0014221Y0092160D01*
X0013856Y0091278D01*
X0013856Y0089358D01*
X0013127Y0088629D01*
X0012640Y0087453D01*
X0012640Y0046879D01*
X0012021Y0046260D01*
X0011656Y0045378D01*
X0011656Y0040855D01*
X0012021Y0039973D01*
X0012696Y0039298D01*
X0013578Y0038932D01*
X0018102Y0038932D01*
X0018984Y0039298D01*
X0019659Y0039973D01*
X0020024Y0040855D01*
X0020024Y0045378D01*
X0019659Y0046260D01*
X0019040Y0046879D01*
X0019040Y0084832D01*
X0020302Y0084832D01*
X0020746Y0085017D01*
X0112576Y0085017D01*
X0113753Y0085504D01*
X0114653Y0086404D01*
X0120640Y0092391D01*
X0120640Y0089880D01*
X0120856Y0089359D01*
X0120856Y0087055D01*
X0121221Y0086173D01*
X0121896Y0085498D01*
X0122778Y0085132D01*
X0127302Y0085132D01*
X0128184Y0085498D01*
X0128859Y0086173D01*
X0129224Y0087055D01*
X0129224Y0091578D01*
X0128859Y0092460D01*
X0128184Y0093135D01*
X0127302Y0093501D01*
X0127040Y0093501D01*
X0127040Y0162153D01*
X0126942Y0162389D01*
X0129640Y0159691D01*
X0129640Y0082642D01*
X0125114Y0078117D01*
X0054703Y0078117D01*
X0053527Y0077629D01*
X0049927Y0074029D01*
X0049027Y0073129D01*
X0048540Y0071953D01*
X0048540Y0063742D01*
X0040114Y0055317D01*
X0032160Y0055317D01*
X0032059Y0055560D01*
X0031384Y0056235D01*
X0030502Y0056601D01*
X0025978Y0056601D01*
X0025096Y0056235D01*
X0024421Y0055560D01*
X0024056Y0054678D01*
X0024056Y0050155D01*
X0024421Y0049273D01*
X0025040Y0048654D01*
X0025040Y0015980D01*
X0025527Y0014804D01*
X0028156Y0012175D01*
X0028156Y0010255D01*
X0028521Y0009373D01*
X0029196Y0008698D01*
X0030078Y0008332D01*
X0034602Y0008332D01*
X0035484Y0008698D01*
X0036159Y0009373D01*
X0036524Y0010255D01*
X0036524Y0014778D01*
X0036159Y0015660D01*
X0035484Y0016335D01*
X0034602Y0016701D01*
X0032681Y0016701D01*
X0031440Y0017942D01*
X0031440Y0048654D01*
X0031702Y0048917D01*
X0042076Y0048917D01*
X0043253Y0049404D01*
X0044153Y0050304D01*
X0054453Y0060604D01*
X0054940Y0061780D01*
X0054940Y0069991D01*
X0055542Y0070593D01*
X0055542Y0035604D01*
X0055984Y0034538D01*
X0056800Y0033723D01*
X0057865Y0033281D01*
X0196814Y0033281D01*
X0197880Y0033723D01*
X0198696Y0034538D01*
X0199138Y0035604D01*
X0199138Y0072191D01*
X0198696Y0073257D01*
X0197880Y0074073D01*
X0196814Y0074514D01*
X0130563Y0074514D01*
X0135553Y0079504D01*
X0136040Y0080680D01*
X0136040Y0096775D01*
X0149233Y0083581D01*
X0149434Y0083380D01*
X0148902Y0083601D01*
X0144378Y0083601D01*
X0143496Y0083235D01*
X0142821Y0082560D01*
X0142456Y0081678D01*
X0142456Y0077155D01*
X0142821Y0076273D01*
X0143496Y0075598D01*
X0144378Y0075232D01*
X0148902Y0075232D01*
X0149784Y0075598D01*
X0150402Y0076217D01*
X0217676Y0076217D01*
X0218340Y0076491D01*
X0218340Y0044479D01*
X0217721Y0043860D01*
X0217356Y0042978D01*
X0217356Y0038455D01*
X0217721Y0037573D01*
X0218396Y0036898D01*
X0219278Y0036532D01*
X0223802Y0036532D01*
X0224684Y0036898D01*
X0225359Y0037573D01*
X0225724Y0038455D01*
X0225724Y0042978D01*
X0225359Y0043860D01*
X0224740Y0044479D01*
X0224740Y0075791D01*
X0233381Y0084432D01*
X0235302Y0084432D01*
X0236184Y0084798D01*
X0236859Y0085473D01*
X0237224Y0086355D01*
X0237224Y0090078D01*
X0239297Y0088005D01*
X0239297Y0072537D01*
X0238921Y0072160D01*
X0238556Y0071278D01*
X0238556Y0066755D01*
X0238921Y0065873D01*
X0239596Y0065198D01*
X0240478Y0064832D01*
X0242499Y0064832D01*
X0243640Y0063691D01*
X0243640Y0014201D01*
X0242578Y0014201D01*
X0241696Y0013835D01*
X0241021Y0013160D01*
X0240656Y0012278D01*
X0240656Y0007755D01*
X0241021Y0006873D01*
X0241240Y0006654D01*
X0006277Y0006654D01*
X0006277Y0007512D02*
X0240756Y0007512D01*
X0240656Y0009111D02*
X0035897Y0009111D01*
X0036524Y0010709D02*
X0240656Y0010709D01*
X0240668Y0012308D02*
X0036524Y0012308D01*
X0036524Y0013906D02*
X0241867Y0013906D01*
X0243640Y0015505D02*
X0036223Y0015505D01*
X0032279Y0017103D02*
X0243640Y0017103D01*
X0243640Y0018702D02*
X0031440Y0018702D01*
X0031440Y0020300D02*
X0243640Y0020300D01*
X0243640Y0021899D02*
X0031440Y0021899D01*
X0031440Y0023497D02*
X0243640Y0023497D01*
X0243640Y0025096D02*
X0031440Y0025096D01*
X0031440Y0026694D02*
X0243640Y0026694D01*
X0243640Y0028293D02*
X0031440Y0028293D01*
X0031440Y0029891D02*
X0243640Y0029891D01*
X0243640Y0031490D02*
X0031440Y0031490D01*
X0031440Y0033088D02*
X0243640Y0033088D01*
X0243640Y0034687D02*
X0198757Y0034687D01*
X0199138Y0036285D02*
X0243640Y0036285D01*
X0243640Y0037884D02*
X0225488Y0037884D01*
X0225724Y0039482D02*
X0243640Y0039482D01*
X0243640Y0041081D02*
X0225724Y0041081D01*
X0225724Y0042679D02*
X0243640Y0042679D01*
X0243640Y0044278D02*
X0224941Y0044278D01*
X0224740Y0045876D02*
X0243640Y0045876D01*
X0243640Y0047475D02*
X0224740Y0047475D01*
X0224740Y0049073D02*
X0243640Y0049073D01*
X0243640Y0050672D02*
X0224740Y0050672D01*
X0224740Y0052270D02*
X0243640Y0052270D01*
X0243640Y0053869D02*
X0224740Y0053869D01*
X0224740Y0055467D02*
X0243640Y0055467D01*
X0243640Y0057066D02*
X0224740Y0057066D01*
X0224740Y0058664D02*
X0243640Y0058664D01*
X0243640Y0060263D02*
X0224740Y0060263D01*
X0224740Y0061861D02*
X0243640Y0061861D01*
X0243640Y0063460D02*
X0224740Y0063460D01*
X0224740Y0065058D02*
X0239932Y0065058D01*
X0238596Y0066657D02*
X0224740Y0066657D01*
X0224740Y0068255D02*
X0238556Y0068255D01*
X0238556Y0069854D02*
X0224740Y0069854D01*
X0224740Y0071453D02*
X0238628Y0071453D01*
X0239297Y0073051D02*
X0224740Y0073051D01*
X0224740Y0074650D02*
X0239297Y0074650D01*
X0239297Y0076248D02*
X0225197Y0076248D01*
X0226795Y0077847D02*
X0239297Y0077847D01*
X0239297Y0079445D02*
X0228394Y0079445D01*
X0229992Y0081044D02*
X0239297Y0081044D01*
X0239297Y0082642D02*
X0231591Y0082642D01*
X0233189Y0084241D02*
X0239297Y0084241D01*
X0239297Y0085839D02*
X0237010Y0085839D01*
X0237224Y0087438D02*
X0239297Y0087438D01*
X0238266Y0089036D02*
X0237224Y0089036D01*
X0233040Y0088617D02*
X0232440Y0089217D01*
X0226840Y0089217D01*
X0217040Y0079417D01*
X0146640Y0079417D01*
X0142456Y0079445D02*
X0135494Y0079445D01*
X0136040Y0081044D02*
X0142456Y0081044D01*
X0142903Y0082642D02*
X0136040Y0082642D01*
X0136040Y0084241D02*
X0148574Y0084241D01*
X0146975Y0085839D02*
X0136040Y0085839D01*
X0136040Y0087438D02*
X0145377Y0087438D01*
X0143778Y0089036D02*
X0136040Y0089036D01*
X0136040Y0090635D02*
X0142180Y0090635D01*
X0140581Y0092233D02*
X0136040Y0092233D01*
X0136040Y0093832D02*
X0138983Y0093832D01*
X0137384Y0095430D02*
X0136040Y0095430D01*
X0129640Y0095430D02*
X0127040Y0095430D01*
X0127040Y0093832D02*
X0129640Y0093832D01*
X0129640Y0092233D02*
X0128953Y0092233D01*
X0129224Y0090635D02*
X0129640Y0090635D01*
X0129640Y0089036D02*
X0129224Y0089036D01*
X0129224Y0087438D02*
X0129640Y0087438D01*
X0129640Y0085839D02*
X0128525Y0085839D01*
X0129640Y0084241D02*
X0019040Y0084241D01*
X0019040Y0082642D02*
X0129640Y0082642D01*
X0128041Y0081044D02*
X0019040Y0081044D01*
X0019040Y0079445D02*
X0126443Y0079445D01*
X0126440Y0074917D02*
X0055340Y0074917D01*
X0051740Y0071317D01*
X0051740Y0062417D01*
X0041440Y0052117D01*
X0028540Y0052117D01*
X0028240Y0052417D01*
X0028240Y0016617D01*
X0032340Y0012517D01*
X0028783Y0009111D02*
X0006277Y0009111D01*
X0006277Y0010709D02*
X0028156Y0010709D01*
X0028023Y0012308D02*
X0006277Y0012308D01*
X0006277Y0013906D02*
X0026425Y0013906D01*
X0025237Y0015505D02*
X0006277Y0015505D01*
X0006277Y0017103D02*
X0025040Y0017103D01*
X0025040Y0018702D02*
X0006277Y0018702D01*
X0006277Y0020300D02*
X0025040Y0020300D01*
X0025040Y0021899D02*
X0006277Y0021899D01*
X0006277Y0023497D02*
X0025040Y0023497D01*
X0025040Y0025096D02*
X0006277Y0025096D01*
X0006277Y0026694D02*
X0025040Y0026694D01*
X0025040Y0028293D02*
X0006277Y0028293D01*
X0006277Y0029891D02*
X0025040Y0029891D01*
X0025040Y0031490D02*
X0006277Y0031490D01*
X0006277Y0033088D02*
X0025040Y0033088D01*
X0025040Y0034687D02*
X0006277Y0034687D01*
X0006277Y0036285D02*
X0025040Y0036285D01*
X0025040Y0037884D02*
X0006277Y0037884D01*
X0006277Y0039482D02*
X0012512Y0039482D01*
X0011656Y0041081D02*
X0006277Y0041081D01*
X0006277Y0042679D02*
X0011656Y0042679D01*
X0011656Y0044278D02*
X0006277Y0044278D01*
X0006277Y0045876D02*
X0011862Y0045876D01*
X0012640Y0047475D02*
X0006277Y0047475D01*
X0006277Y0049073D02*
X0012640Y0049073D01*
X0012640Y0050672D02*
X0006277Y0050672D01*
X0006277Y0052270D02*
X0012640Y0052270D01*
X0012640Y0053869D02*
X0006277Y0053869D01*
X0006277Y0055467D02*
X0012640Y0055467D01*
X0012640Y0057066D02*
X0006277Y0057066D01*
X0006277Y0058664D02*
X0012640Y0058664D01*
X0012640Y0060263D02*
X0006277Y0060263D01*
X0006277Y0061861D02*
X0012640Y0061861D01*
X0012640Y0063460D02*
X0006277Y0063460D01*
X0006277Y0065058D02*
X0012640Y0065058D01*
X0012640Y0066657D02*
X0006277Y0066657D01*
X0006277Y0068255D02*
X0012640Y0068255D01*
X0012640Y0069854D02*
X0006277Y0069854D01*
X0006277Y0071453D02*
X0012640Y0071453D01*
X0012640Y0073051D02*
X0006277Y0073051D01*
X0006277Y0074650D02*
X0012640Y0074650D01*
X0012640Y0076248D02*
X0006277Y0076248D01*
X0006277Y0077847D02*
X0012640Y0077847D01*
X0012640Y0079445D02*
X0006277Y0079445D01*
X0006277Y0081044D02*
X0012640Y0081044D01*
X0012640Y0082642D02*
X0006277Y0082642D01*
X0006277Y0084241D02*
X0012640Y0084241D01*
X0012640Y0085839D02*
X0006277Y0085839D01*
X0006277Y0087438D02*
X0012640Y0087438D01*
X0013534Y0089036D02*
X0006277Y0089036D01*
X0006277Y0090635D02*
X0013856Y0090635D01*
X0014294Y0092233D02*
X0006277Y0092233D01*
X0006277Y0093832D02*
X0113030Y0093832D01*
X0114628Y0095430D02*
X0006277Y0095430D01*
X0006277Y0097029D02*
X0116227Y0097029D01*
X0117825Y0098627D02*
X0006277Y0098627D01*
X0006277Y0100226D02*
X0119424Y0100226D01*
X0120640Y0101824D02*
X0112576Y0101824D01*
X0112576Y0103423D02*
X0120640Y0103423D01*
X0120640Y0105021D02*
X0112576Y0105021D01*
X0112576Y0106620D02*
X0120640Y0106620D01*
X0120640Y0108218D02*
X0112576Y0108218D01*
X0112576Y0109817D02*
X0120640Y0109817D01*
X0120640Y0111415D02*
X0112576Y0111415D01*
X0112576Y0113014D02*
X0120640Y0113014D01*
X0120640Y0114612D02*
X0112576Y0114612D01*
X0112576Y0116211D02*
X0120640Y0116211D01*
X0120640Y0117809D02*
X0112576Y0117809D01*
X0112576Y0119408D02*
X0120640Y0119408D01*
X0120640Y0121006D02*
X0112576Y0121006D01*
X0112576Y0122605D02*
X0120640Y0122605D01*
X0120640Y0124203D02*
X0112576Y0124203D01*
X0112576Y0125802D02*
X0120640Y0125802D01*
X0120640Y0127400D02*
X0112576Y0127400D01*
X0112576Y0128999D02*
X0120640Y0128999D01*
X0120640Y0130597D02*
X0112576Y0130597D01*
X0112576Y0132196D02*
X0120640Y0132196D01*
X0120640Y0133794D02*
X0112576Y0133794D01*
X0112576Y0135393D02*
X0120640Y0135393D01*
X0120640Y0136991D02*
X0112576Y0136991D01*
X0112576Y0138590D02*
X0120640Y0138590D01*
X0120640Y0140189D02*
X0112576Y0140189D01*
X0112576Y0141787D02*
X0120640Y0141787D01*
X0120640Y0143386D02*
X0112576Y0143386D01*
X0112576Y0144984D02*
X0120640Y0144984D01*
X0120640Y0146583D02*
X0112576Y0146583D01*
X0112576Y0148181D02*
X0120640Y0148181D01*
X0120640Y0149780D02*
X0112576Y0149780D01*
X0112576Y0151378D02*
X0120640Y0151378D01*
X0120640Y0152977D02*
X0112576Y0152977D01*
X0112576Y0154575D02*
X0120640Y0154575D01*
X0120640Y0156174D02*
X0112576Y0156174D01*
X0112576Y0157772D02*
X0120640Y0157772D01*
X0120640Y0159371D02*
X0112576Y0159371D01*
X0112576Y0160969D02*
X0119862Y0160969D01*
X0118263Y0162568D02*
X0112576Y0162568D01*
X0115066Y0165765D02*
X0075114Y0165765D01*
X0075640Y0167363D02*
X0113468Y0167363D01*
X0111869Y0168962D02*
X0075640Y0168962D01*
X0075640Y0170560D02*
X0080999Y0170560D01*
X0081219Y0170489D02*
X0081899Y0170381D01*
X0082243Y0170381D01*
X0082243Y0174756D01*
X0082243Y0179131D01*
X0082587Y0179131D01*
X0083267Y0179023D01*
X0083922Y0178810D01*
X0084536Y0178498D01*
X0085093Y0178093D01*
X0085580Y0177606D01*
X0085985Y0177049D01*
X0086297Y0176435D01*
X0086510Y0175780D01*
X0086618Y0175100D01*
X0086618Y0174756D01*
X0082243Y0174756D01*
X0082243Y0174756D01*
X0082243Y0179131D01*
X0081899Y0179131D01*
X0081219Y0179023D01*
X0080564Y0178810D01*
X0079950Y0178498D01*
X0079393Y0178093D01*
X0078906Y0177606D01*
X0078501Y0177049D01*
X0078189Y0176435D01*
X0077976Y0175780D01*
X0077868Y0175100D01*
X0077868Y0174756D01*
X0082243Y0174756D01*
X0082243Y0174756D01*
X0082243Y0174756D01*
X0077868Y0174756D01*
X0077868Y0174412D01*
X0077976Y0173731D01*
X0078189Y0173077D01*
X0078501Y0172463D01*
X0078906Y0171906D01*
X0079393Y0171419D01*
X0079950Y0171014D01*
X0080564Y0170702D01*
X0081219Y0170489D01*
X0082243Y0170560D02*
X0082243Y0170560D01*
X0082243Y0170381D02*
X0082587Y0170381D01*
X0083267Y0170489D01*
X0083922Y0170702D01*
X0084536Y0171014D01*
X0085093Y0171419D01*
X0085580Y0171906D01*
X0085985Y0172463D01*
X0086297Y0173077D01*
X0086510Y0173731D01*
X0086618Y0174412D01*
X0086618Y0174756D01*
X0082243Y0174756D01*
X0082243Y0174756D01*
X0082243Y0170381D01*
X0083487Y0170560D02*
X0090999Y0170560D01*
X0091219Y0170489D02*
X0091899Y0170381D01*
X0092243Y0170381D01*
X0092243Y0174756D01*
X0092243Y0179131D01*
X0092587Y0179131D01*
X0093267Y0179023D01*
X0093922Y0178810D01*
X0094536Y0178498D01*
X0095093Y0178093D01*
X0095580Y0177606D01*
X0095985Y0177049D01*
X0096297Y0176435D01*
X0096510Y0175780D01*
X0096618Y0175100D01*
X0096618Y0174756D01*
X0092243Y0174756D01*
X0092243Y0174756D01*
X0092243Y0179131D01*
X0091899Y0179131D01*
X0091219Y0179023D01*
X0090564Y0178810D01*
X0089950Y0178498D01*
X0089393Y0178093D01*
X0088906Y0177606D01*
X0088501Y0177049D01*
X0088189Y0176435D01*
X0087976Y0175780D01*
X0087868Y0175100D01*
X0087868Y0174756D01*
X0092243Y0174756D01*
X0092243Y0174756D01*
X0092243Y0174756D01*
X0087868Y0174756D01*
X0087868Y0174412D01*
X0087976Y0173731D01*
X0088189Y0173077D01*
X0088501Y0172463D01*
X0088906Y0171906D01*
X0089393Y0171419D01*
X0089950Y0171014D01*
X0090564Y0170702D01*
X0091219Y0170489D01*
X0092243Y0170560D02*
X0092243Y0170560D01*
X0092243Y0170381D02*
X0092587Y0170381D01*
X0093267Y0170489D01*
X0093922Y0170702D01*
X0094536Y0171014D01*
X0095093Y0171419D01*
X0095580Y0171906D01*
X0095985Y0172463D01*
X0096297Y0173077D01*
X0096510Y0173731D01*
X0096618Y0174412D01*
X0096618Y0174756D01*
X0092243Y0174756D01*
X0092243Y0174756D01*
X0092243Y0170381D01*
X0093487Y0170560D02*
X0099403Y0170560D01*
X0097934Y0172159D02*
X0095764Y0172159D01*
X0096514Y0173757D02*
X0097272Y0173757D01*
X0097268Y0175356D02*
X0096577Y0175356D01*
X0096033Y0176954D02*
X0097769Y0176954D01*
X0099004Y0178553D02*
X0094428Y0178553D01*
X0094126Y0180151D02*
X0098304Y0180151D01*
X0097268Y0181750D02*
X0096272Y0181750D01*
X0096460Y0181938D02*
X0097218Y0183766D01*
X0097218Y0185745D01*
X0096460Y0187574D01*
X0095061Y0188973D01*
X0093233Y0189731D01*
X0091253Y0189731D01*
X0089425Y0188973D01*
X0088026Y0187574D01*
X0087268Y0185745D01*
X0087268Y0183766D01*
X0088026Y0181938D01*
X0089425Y0180538D01*
X0091253Y0179781D01*
X0093233Y0179781D01*
X0095061Y0180538D01*
X0096460Y0181938D01*
X0097045Y0183348D02*
X0097268Y0183348D01*
X0097218Y0184947D02*
X0097268Y0184947D01*
X0097268Y0186545D02*
X0096887Y0186545D01*
X0097407Y0188144D02*
X0095891Y0188144D01*
X0102243Y0184756D02*
X0109101Y0184756D01*
X0132840Y0161017D01*
X0132840Y0104500D01*
X0132840Y0081317D01*
X0126440Y0074917D01*
X0130698Y0074650D02*
X0218340Y0074650D01*
X0218340Y0076248D02*
X0217752Y0076248D01*
X0218340Y0073051D02*
X0198781Y0073051D01*
X0199138Y0071453D02*
X0218340Y0071453D01*
X0218340Y0069854D02*
X0199138Y0069854D01*
X0199138Y0068255D02*
X0218340Y0068255D01*
X0218340Y0066657D02*
X0199138Y0066657D01*
X0199138Y0065058D02*
X0218340Y0065058D01*
X0218340Y0063460D02*
X0199138Y0063460D01*
X0199138Y0061861D02*
X0218340Y0061861D01*
X0218340Y0060263D02*
X0199138Y0060263D01*
X0199138Y0058664D02*
X0218340Y0058664D01*
X0218340Y0057066D02*
X0199138Y0057066D01*
X0199138Y0055467D02*
X0218340Y0055467D01*
X0218340Y0053869D02*
X0199138Y0053869D01*
X0199138Y0052270D02*
X0218340Y0052270D01*
X0218340Y0050672D02*
X0199138Y0050672D01*
X0199138Y0049073D02*
X0218340Y0049073D01*
X0218340Y0047475D02*
X0199138Y0047475D01*
X0199138Y0045876D02*
X0218340Y0045876D01*
X0218139Y0044278D02*
X0199138Y0044278D01*
X0199138Y0042679D02*
X0217356Y0042679D01*
X0217356Y0041081D02*
X0199138Y0041081D01*
X0199138Y0039482D02*
X0217356Y0039482D01*
X0217592Y0037884D02*
X0199138Y0037884D01*
X0221540Y0040717D02*
X0221540Y0077117D01*
X0233040Y0088617D01*
X0234623Y0097205D02*
X0226749Y0097205D01*
X0214938Y0085394D01*
X0151946Y0085394D01*
X0132840Y0104500D01*
X0129640Y0105021D02*
X0127040Y0105021D01*
X0127040Y0103423D02*
X0129640Y0103423D01*
X0129640Y0101824D02*
X0127040Y0101824D01*
X0127040Y0100226D02*
X0129640Y0100226D01*
X0129640Y0098627D02*
X0127040Y0098627D01*
X0127040Y0097029D02*
X0129640Y0097029D01*
X0123840Y0100117D02*
X0123840Y0090517D01*
X0125040Y0089317D01*
X0121555Y0085839D02*
X0114088Y0085839D01*
X0115686Y0087438D02*
X0120856Y0087438D01*
X0120856Y0089036D02*
X0117285Y0089036D01*
X0118883Y0090635D02*
X0120640Y0090635D01*
X0120640Y0092233D02*
X0120482Y0092233D01*
X0123840Y0100117D02*
X0111940Y0088217D01*
X0018840Y0088217D01*
X0018040Y0089017D01*
X0015840Y0086817D01*
X0015840Y0043117D01*
X0020024Y0042679D02*
X0025040Y0042679D01*
X0025040Y0041081D02*
X0020024Y0041081D01*
X0019168Y0039482D02*
X0025040Y0039482D01*
X0025040Y0044278D02*
X0020024Y0044278D01*
X0019818Y0045876D02*
X0025040Y0045876D01*
X0025040Y0047475D02*
X0019040Y0047475D01*
X0019040Y0049073D02*
X0024620Y0049073D01*
X0024056Y0050672D02*
X0019040Y0050672D01*
X0019040Y0052270D02*
X0024056Y0052270D01*
X0024056Y0053869D02*
X0019040Y0053869D01*
X0019040Y0055467D02*
X0024383Y0055467D01*
X0019040Y0057066D02*
X0041864Y0057066D01*
X0043462Y0058664D02*
X0019040Y0058664D01*
X0019040Y0060263D02*
X0045061Y0060263D01*
X0046659Y0061861D02*
X0019040Y0061861D01*
X0019040Y0063460D02*
X0048258Y0063460D01*
X0048540Y0065058D02*
X0019040Y0065058D01*
X0019040Y0066657D02*
X0048540Y0066657D01*
X0048540Y0068255D02*
X0019040Y0068255D01*
X0019040Y0069854D02*
X0048540Y0069854D01*
X0048540Y0071453D02*
X0019040Y0071453D01*
X0019040Y0073051D02*
X0048995Y0073051D01*
X0050547Y0074650D02*
X0019040Y0074650D01*
X0019040Y0076248D02*
X0052146Y0076248D01*
X0054052Y0077847D02*
X0019040Y0077847D01*
X0021786Y0092233D02*
X0111431Y0092233D01*
X0123840Y0100117D02*
X0123840Y0161517D01*
X0110601Y0174756D01*
X0102243Y0174756D01*
X0105482Y0178553D02*
X0110778Y0178553D01*
X0109180Y0180151D02*
X0106182Y0180151D01*
X0111837Y0186545D02*
X0152356Y0186545D01*
X0152356Y0184947D02*
X0113435Y0184947D01*
X0115034Y0183348D02*
X0152356Y0183348D01*
X0152606Y0181750D02*
X0116632Y0181750D01*
X0118231Y0180151D02*
X0222812Y0180151D01*
X0222812Y0178553D02*
X0119829Y0178553D01*
X0121428Y0176954D02*
X0222812Y0176954D01*
X0222812Y0175356D02*
X0123026Y0175356D01*
X0124625Y0173757D02*
X0222812Y0173757D01*
X0222812Y0172159D02*
X0126223Y0172159D01*
X0127822Y0170560D02*
X0222812Y0170560D01*
X0222812Y0168962D02*
X0129420Y0168962D01*
X0131019Y0167363D02*
X0222812Y0167363D01*
X0222812Y0165765D02*
X0132617Y0165765D01*
X0134216Y0164166D02*
X0222812Y0164166D01*
X0222812Y0181750D02*
X0160473Y0181750D01*
X0160724Y0183348D02*
X0222812Y0183348D01*
X0222812Y0184947D02*
X0160724Y0184947D01*
X0160724Y0186545D02*
X0222812Y0186545D01*
X0222812Y0188144D02*
X0159975Y0188144D01*
X0159740Y0189742D02*
X0222812Y0189742D01*
X0222812Y0191341D02*
X0159740Y0191341D01*
X0159740Y0192939D02*
X0222812Y0192939D01*
X0222812Y0194538D02*
X0159740Y0194538D01*
X0159740Y0196136D02*
X0222812Y0196136D01*
X0222812Y0197735D02*
X0159740Y0197735D01*
X0159740Y0199333D02*
X0222812Y0199333D01*
X0222812Y0200932D02*
X0159740Y0200932D01*
X0159501Y0202530D02*
X0222812Y0202530D01*
X0222812Y0204129D02*
X0158253Y0204129D01*
X0156654Y0205727D02*
X0222812Y0205727D01*
X0222812Y0207326D02*
X0037773Y0207326D01*
X0037773Y0205727D02*
X0055025Y0205727D01*
X0053427Y0204129D02*
X0037773Y0204129D01*
X0037773Y0202530D02*
X0051945Y0202530D01*
X0051540Y0200932D02*
X0037773Y0200932D01*
X0037773Y0199333D02*
X0051540Y0199333D01*
X0051540Y0197735D02*
X0037773Y0197735D01*
X0037773Y0196136D02*
X0051540Y0196136D01*
X0051540Y0194538D02*
X0037773Y0194538D01*
X0037773Y0192939D02*
X0051540Y0192939D01*
X0051540Y0191341D02*
X0037773Y0191341D01*
X0037773Y0189742D02*
X0051540Y0189742D01*
X0051540Y0188144D02*
X0037773Y0188144D01*
X0037773Y0186545D02*
X0051540Y0186545D01*
X0051540Y0184947D02*
X0037773Y0184947D01*
X0037773Y0183348D02*
X0051540Y0183348D01*
X0051540Y0181750D02*
X0037773Y0181750D01*
X0037773Y0180151D02*
X0051540Y0180151D01*
X0051540Y0178553D02*
X0037773Y0178553D01*
X0037773Y0176954D02*
X0051540Y0176954D01*
X0051540Y0175356D02*
X0037773Y0175356D01*
X0037773Y0173757D02*
X0051540Y0173757D01*
X0051540Y0172159D02*
X0037773Y0172159D01*
X0037773Y0170560D02*
X0051540Y0170560D01*
X0051540Y0168962D02*
X0037773Y0168962D01*
X0037773Y0167363D02*
X0052268Y0167363D01*
X0053866Y0165765D02*
X0037773Y0165765D01*
X0037773Y0164166D02*
X0055465Y0164166D01*
X0059740Y0164417D02*
X0054740Y0169417D01*
X0054740Y0200917D01*
X0057940Y0204117D01*
X0153740Y0204117D01*
X0156540Y0201317D01*
X0156540Y0184617D01*
X0153105Y0188144D02*
X0107079Y0188144D01*
X0092243Y0178553D02*
X0092243Y0178553D01*
X0092243Y0176954D02*
X0092243Y0176954D01*
X0092243Y0175356D02*
X0092243Y0175356D01*
X0092243Y0173757D02*
X0092243Y0173757D01*
X0092243Y0172159D02*
X0092243Y0172159D01*
X0088722Y0172159D02*
X0085764Y0172159D01*
X0086514Y0173757D02*
X0087972Y0173757D01*
X0087909Y0175356D02*
X0086577Y0175356D01*
X0086033Y0176954D02*
X0088453Y0176954D01*
X0090059Y0178553D02*
X0084428Y0178553D01*
X0084126Y0180151D02*
X0090360Y0180151D01*
X0088214Y0181750D02*
X0086272Y0181750D01*
X0086460Y0181938D02*
X0087218Y0183766D01*
X0087218Y0185745D01*
X0086460Y0187574D01*
X0085061Y0188973D01*
X0083233Y0189731D01*
X0081253Y0189731D01*
X0079425Y0188973D01*
X0078026Y0187574D01*
X0077268Y0185745D01*
X0077268Y0183766D01*
X0078026Y0181938D01*
X0079425Y0180538D01*
X0081253Y0179781D01*
X0083233Y0179781D01*
X0085061Y0180538D01*
X0086460Y0181938D01*
X0087045Y0183348D02*
X0087441Y0183348D01*
X0087268Y0184947D02*
X0087218Y0184947D01*
X0086887Y0186545D02*
X0087600Y0186545D01*
X0088596Y0188144D02*
X0085891Y0188144D01*
X0078596Y0188144D02*
X0075891Y0188144D01*
X0076460Y0187574D02*
X0075061Y0188973D01*
X0073233Y0189731D01*
X0071253Y0189731D01*
X0069425Y0188973D01*
X0068026Y0187574D01*
X0067268Y0185745D01*
X0067268Y0183766D01*
X0068026Y0181938D01*
X0069425Y0180538D01*
X0071253Y0179781D01*
X0073233Y0179781D01*
X0075061Y0180538D01*
X0076460Y0181938D01*
X0077218Y0183766D01*
X0077218Y0185745D01*
X0076460Y0187574D01*
X0076887Y0186545D02*
X0077600Y0186545D01*
X0077268Y0184947D02*
X0077218Y0184947D01*
X0077045Y0183348D02*
X0077441Y0183348D01*
X0078214Y0181750D02*
X0076272Y0181750D01*
X0074126Y0180151D02*
X0080360Y0180151D01*
X0080059Y0178553D02*
X0075482Y0178553D01*
X0076717Y0176954D02*
X0078453Y0176954D01*
X0077909Y0175356D02*
X0077218Y0175356D01*
X0077214Y0173757D02*
X0077972Y0173757D01*
X0078722Y0172159D02*
X0076552Y0172159D01*
X0072440Y0174559D02*
X0072243Y0174756D01*
X0072440Y0174559D02*
X0072440Y0167617D01*
X0069240Y0164417D01*
X0059740Y0164417D01*
X0059720Y0168962D02*
X0069240Y0168962D01*
X0069240Y0170560D02*
X0063487Y0170560D01*
X0063267Y0170489D02*
X0063922Y0170702D01*
X0064536Y0171014D01*
X0065093Y0171419D01*
X0065580Y0171906D01*
X0065985Y0172463D01*
X0066297Y0173077D01*
X0066510Y0173731D01*
X0066618Y0174412D01*
X0066618Y0174756D01*
X0066618Y0175100D01*
X0066510Y0175780D01*
X0066297Y0176435D01*
X0065985Y0177049D01*
X0065580Y0177606D01*
X0065093Y0178093D01*
X0064536Y0178498D01*
X0063922Y0178810D01*
X0063267Y0179023D01*
X0062587Y0179131D01*
X0062243Y0179131D01*
X0062243Y0174756D01*
X0062243Y0174756D01*
X0066618Y0174756D01*
X0062243Y0174756D01*
X0062243Y0174756D01*
X0062243Y0174756D01*
X0062243Y0170381D01*
X0062587Y0170381D01*
X0063267Y0170489D01*
X0062243Y0170560D02*
X0062243Y0170560D01*
X0060999Y0170560D02*
X0058122Y0170560D01*
X0057940Y0172159D02*
X0058722Y0172159D01*
X0057972Y0173757D02*
X0057940Y0173757D01*
X0057940Y0176954D02*
X0058453Y0176954D01*
X0057940Y0178553D02*
X0060059Y0178553D01*
X0060360Y0180151D02*
X0057940Y0180151D01*
X0057940Y0181750D02*
X0058214Y0181750D01*
X0062243Y0178553D02*
X0062243Y0178553D01*
X0062243Y0176954D02*
X0062243Y0176954D01*
X0062243Y0175356D02*
X0062243Y0175356D01*
X0062243Y0173757D02*
X0062243Y0173757D01*
X0062243Y0172159D02*
X0062243Y0172159D01*
X0065764Y0172159D02*
X0067934Y0172159D01*
X0067272Y0173757D02*
X0066514Y0173757D01*
X0066577Y0175356D02*
X0067268Y0175356D01*
X0067769Y0176954D02*
X0066033Y0176954D01*
X0064428Y0178553D02*
X0069004Y0178553D01*
X0070360Y0180151D02*
X0064126Y0180151D01*
X0066272Y0181750D02*
X0068214Y0181750D01*
X0067441Y0183348D02*
X0067045Y0183348D01*
X0067218Y0184947D02*
X0067268Y0184947D01*
X0067600Y0186545D02*
X0066887Y0186545D01*
X0065891Y0188144D02*
X0068596Y0188144D01*
X0058596Y0188144D02*
X0057940Y0188144D01*
X0057940Y0189742D02*
X0153340Y0189742D01*
X0153340Y0191341D02*
X0057940Y0191341D01*
X0057940Y0192939D02*
X0153340Y0192939D01*
X0153340Y0194538D02*
X0057940Y0194538D01*
X0057940Y0196136D02*
X0153340Y0196136D01*
X0153340Y0197735D02*
X0057940Y0197735D01*
X0057940Y0199333D02*
X0153340Y0199333D01*
X0116665Y0164166D02*
X0073515Y0164166D01*
X0082243Y0172159D02*
X0082243Y0172159D01*
X0082243Y0173757D02*
X0082243Y0173757D01*
X0082243Y0175356D02*
X0082243Y0175356D01*
X0082243Y0176954D02*
X0082243Y0176954D01*
X0082243Y0178553D02*
X0082243Y0178553D01*
X0105083Y0170560D02*
X0110271Y0170560D01*
X0127040Y0160969D02*
X0128362Y0160969D01*
X0129640Y0159371D02*
X0127040Y0159371D01*
X0127040Y0157772D02*
X0129640Y0157772D01*
X0129640Y0156174D02*
X0127040Y0156174D01*
X0127040Y0154575D02*
X0129640Y0154575D01*
X0129640Y0152977D02*
X0127040Y0152977D01*
X0127040Y0151378D02*
X0129640Y0151378D01*
X0129640Y0149780D02*
X0127040Y0149780D01*
X0127040Y0148181D02*
X0129640Y0148181D01*
X0129640Y0146583D02*
X0127040Y0146583D01*
X0127040Y0144984D02*
X0129640Y0144984D01*
X0129640Y0143386D02*
X0127040Y0143386D01*
X0127040Y0141787D02*
X0129640Y0141787D01*
X0129640Y0140189D02*
X0127040Y0140189D01*
X0127040Y0138590D02*
X0129640Y0138590D01*
X0129640Y0136991D02*
X0127040Y0136991D01*
X0127040Y0135393D02*
X0129640Y0135393D01*
X0129640Y0133794D02*
X0127040Y0133794D01*
X0127040Y0132196D02*
X0129640Y0132196D01*
X0129640Y0130597D02*
X0127040Y0130597D01*
X0127040Y0128999D02*
X0129640Y0128999D01*
X0129640Y0127400D02*
X0127040Y0127400D01*
X0127040Y0125802D02*
X0129640Y0125802D01*
X0129640Y0124203D02*
X0127040Y0124203D01*
X0127040Y0122605D02*
X0129640Y0122605D01*
X0129640Y0121006D02*
X0127040Y0121006D01*
X0127040Y0119408D02*
X0129640Y0119408D01*
X0129640Y0117809D02*
X0127040Y0117809D01*
X0127040Y0116211D02*
X0129640Y0116211D01*
X0129640Y0114612D02*
X0127040Y0114612D01*
X0127040Y0113014D02*
X0129640Y0113014D01*
X0129640Y0111415D02*
X0127040Y0111415D01*
X0127040Y0109817D02*
X0129640Y0109817D01*
X0129640Y0108218D02*
X0127040Y0108218D01*
X0127040Y0106620D02*
X0129640Y0106620D01*
X0136040Y0106620D02*
X0140135Y0106620D01*
X0140135Y0108218D02*
X0136040Y0108218D01*
X0136040Y0109817D02*
X0140135Y0109817D01*
X0140135Y0111415D02*
X0136040Y0111415D01*
X0136040Y0113014D02*
X0140135Y0113014D01*
X0140135Y0114612D02*
X0136040Y0114612D01*
X0136040Y0116211D02*
X0140135Y0116211D01*
X0140135Y0117809D02*
X0136040Y0117809D01*
X0136040Y0119408D02*
X0140135Y0119408D01*
X0140135Y0121006D02*
X0136040Y0121006D01*
X0136040Y0122605D02*
X0140135Y0122605D01*
X0140135Y0124203D02*
X0136040Y0124203D01*
X0136040Y0125802D02*
X0140135Y0125802D01*
X0140135Y0127400D02*
X0136040Y0127400D01*
X0136040Y0128999D02*
X0140135Y0128999D01*
X0140135Y0130597D02*
X0136040Y0130597D01*
X0136040Y0132196D02*
X0140135Y0132196D01*
X0140135Y0133794D02*
X0136040Y0133794D01*
X0136040Y0135393D02*
X0140135Y0135393D01*
X0140135Y0136991D02*
X0136040Y0136991D01*
X0136040Y0138590D02*
X0140135Y0138590D01*
X0140135Y0140189D02*
X0136040Y0140189D01*
X0136040Y0141787D02*
X0140135Y0141787D01*
X0140135Y0143386D02*
X0136040Y0143386D01*
X0136040Y0144984D02*
X0140135Y0144984D01*
X0140135Y0146583D02*
X0136040Y0146583D01*
X0136040Y0148181D02*
X0140135Y0148181D01*
X0140135Y0149780D02*
X0136040Y0149780D01*
X0136040Y0151378D02*
X0140135Y0151378D01*
X0140135Y0152977D02*
X0136040Y0152977D01*
X0136040Y0154575D02*
X0140135Y0154575D01*
X0140135Y0156174D02*
X0136040Y0156174D01*
X0136040Y0157772D02*
X0140135Y0157772D01*
X0140135Y0159371D02*
X0136040Y0159371D01*
X0136040Y0160969D02*
X0140135Y0160969D01*
X0140135Y0162568D02*
X0135661Y0162568D01*
X0136844Y0105021D02*
X0140135Y0105021D01*
X0140135Y0103423D02*
X0138443Y0103423D01*
X0140041Y0101824D02*
X0140135Y0101824D01*
X0142456Y0077847D02*
X0133895Y0077847D01*
X0132297Y0076248D02*
X0142846Y0076248D01*
X0055542Y0069854D02*
X0054940Y0069854D01*
X0054940Y0068255D02*
X0055542Y0068255D01*
X0055542Y0066657D02*
X0054940Y0066657D01*
X0054940Y0065058D02*
X0055542Y0065058D01*
X0055542Y0063460D02*
X0054940Y0063460D01*
X0054940Y0061861D02*
X0055542Y0061861D01*
X0055542Y0060263D02*
X0054112Y0060263D01*
X0055542Y0058664D02*
X0052513Y0058664D01*
X0050915Y0057066D02*
X0055542Y0057066D01*
X0055542Y0055467D02*
X0049316Y0055467D01*
X0047718Y0053869D02*
X0055542Y0053869D01*
X0055542Y0052270D02*
X0046119Y0052270D01*
X0044521Y0050672D02*
X0055542Y0050672D01*
X0055542Y0049073D02*
X0042455Y0049073D01*
X0040265Y0055467D02*
X0032097Y0055467D01*
X0031440Y0047475D02*
X0055542Y0047475D01*
X0055542Y0045876D02*
X0031440Y0045876D01*
X0031440Y0044278D02*
X0055542Y0044278D01*
X0055542Y0042679D02*
X0031440Y0042679D01*
X0031440Y0041081D02*
X0055542Y0041081D01*
X0055542Y0039482D02*
X0031440Y0039482D01*
X0031440Y0037884D02*
X0055542Y0037884D01*
X0055542Y0036285D02*
X0031440Y0036285D01*
X0031440Y0034687D02*
X0055922Y0034687D01*
X0234623Y0097205D02*
X0242497Y0089331D01*
X0242497Y0069259D01*
X0242740Y0069017D01*
X0242840Y0069017D01*
X0246840Y0065017D01*
X0246840Y0012017D01*
X0244840Y0010017D01*
M02*
