%
M48
M72
T01C0.01969
T02C0.03150
T03C0.08661
%
T01
X18240Y6817
X32340Y12517
X15840Y43117
X28240Y52417
X18040Y89017
X51940Y92517
X125040Y89317
X146640Y79417
X221540Y40717
X236840Y69417
X242740Y69017
X233040Y88617
X244840Y10017
X171340Y8217
X166540Y184817
X156540Y184617
X141440Y184917
T02
X102243Y184756
X92243Y184756
X82243Y184756
X72243Y184756
X62243Y184756
X62243Y174756
X72243Y174756
X82243Y174756
X92243Y174756
X102243Y174756
T03
X12340Y187717
X242340Y187717
M30
