G75*
%MOIN*%
%OFA0B0*%
%FSLAX25Y25*%
%IPPOS*%
%LPD*%
%AMOC8*
5,1,8,0,0,1.08239X$1,22.5*
%
%ADD10R,0.05550X0.05550*%
%ADD11C,0.05550*%
%ADD12C,0.07124*%
%ADD13C,0.06200*%
%ADD14C,0.01600*%
D10*
X0136000Y0011000D03*
X0098500Y0183500D03*
D11*
X0098500Y0163500D03*
X0098500Y0143500D03*
X0098500Y0123500D03*
X0116000Y0011000D03*
X0126000Y0011000D03*
D12*
X0021000Y0021000D03*
X0041000Y0021000D03*
X0071000Y0021000D03*
X0091000Y0021000D03*
X0131000Y0051000D03*
X0131000Y0071000D03*
X0131000Y0101000D03*
X0131000Y0121000D03*
X0131000Y0161000D03*
X0131000Y0181000D03*
X0051000Y0183500D03*
X0031000Y0183500D03*
D13*
X0011000Y0186000D03*
X0011000Y0176000D03*
X0011000Y0166000D03*
X0011000Y0156000D03*
X0011000Y0146000D03*
X0011000Y0136000D03*
X0011000Y0126000D03*
X0011000Y0116000D03*
X0011000Y0106000D03*
X0011000Y0096000D03*
X0011000Y0086000D03*
X0011000Y0076000D03*
X0011000Y0066000D03*
X0071000Y0066000D03*
X0071000Y0076000D03*
X0071000Y0086000D03*
X0071000Y0096000D03*
X0071000Y0106000D03*
X0071000Y0116000D03*
X0071000Y0126000D03*
X0071000Y0136000D03*
X0071000Y0146000D03*
X0071000Y0156000D03*
X0071000Y0166000D03*
X0071000Y0176000D03*
X0071000Y0186000D03*
X0071000Y0196000D03*
X0011000Y0196000D03*
D14*
X0131000Y0121000D02*
X0131000Y0101000D01*
X0051000Y0021000D01*
X0041000Y0021000D01*
X0021000Y0021000D01*
X0071000Y0021000D02*
X0106000Y0021000D01*
X0116000Y0011000D01*
X0131000Y0016000D02*
X0136000Y0011000D01*
X0131000Y0016000D02*
X0131000Y0071000D01*
X0091000Y0021000D02*
X0071000Y0021000D01*
M02*
