G75*
%MOIN*%
%OFA0B0*%
%FSLAX25Y25*%
%IPPOS*%
%LPD*%
%AMOC8*
5,1,8,0,0,1.08239X$1,22.5*
%
%ADD10R,0.04400X0.07900*%
%ADD11R,0.06350X0.06350*%
%ADD12C,0.06350*%
%ADD13C,0.07924*%
%ADD14R,0.05200X0.07700*%
%ADD15C,0.07000*%
%ADD16R,0.02900X0.05400*%
%ADD17R,0.11400X0.05300*%
%ADD18R,0.07900X0.04400*%
D10*
X0028500Y0045000D03*
X0039500Y0045000D03*
X0061500Y0056000D03*
X0072500Y0056000D03*
X0093500Y0050000D03*
X0104500Y0050000D03*
X0126500Y0028000D03*
X0137500Y0028000D03*
X0101500Y0101000D03*
X0090500Y0101000D03*
D11*
X0098500Y0183500D03*
X0136000Y0011000D03*
D12*
X0126000Y0011000D03*
X0116000Y0011000D03*
X0098500Y0123500D03*
X0098500Y0143500D03*
X0098500Y0163500D03*
D13*
X0021000Y0021000D03*
X0041000Y0021000D03*
X0071000Y0021000D03*
X0091000Y0021000D03*
X0131000Y0051000D03*
X0131000Y0071000D03*
X0131000Y0101000D03*
X0131000Y0121000D03*
X0131000Y0161000D03*
X0131000Y0181000D03*
X0051000Y0183500D03*
X0031000Y0183500D03*
D14*
X0094200Y0087000D03*
X0105800Y0087000D03*
X0126200Y0142000D03*
X0137800Y0142000D03*
X0022800Y0054000D03*
X0011200Y0054000D03*
D15*
X0011000Y0066000D03*
X0011000Y0076000D03*
X0011000Y0086000D03*
X0011000Y0096000D03*
X0011000Y0106000D03*
X0011000Y0116000D03*
X0011000Y0126000D03*
X0011000Y0136000D03*
X0011000Y0146000D03*
X0011000Y0156000D03*
X0011000Y0166000D03*
X0011000Y0176000D03*
X0011000Y0186000D03*
X0011000Y0196000D03*
X0071000Y0196000D03*
X0071000Y0186000D03*
X0071000Y0176000D03*
X0071000Y0166000D03*
X0071000Y0156000D03*
X0071000Y0146000D03*
X0071000Y0136000D03*
X0071000Y0126000D03*
X0071000Y0116000D03*
X0071000Y0106000D03*
X0071000Y0096000D03*
X0071000Y0086000D03*
X0071000Y0076000D03*
X0071000Y0066000D03*
D16*
X0057700Y0047300D03*
X0054000Y0038700D03*
X0050300Y0047300D03*
X0041000Y0141700D03*
X0037300Y0150300D03*
X0044700Y0150300D03*
D17*
X0088000Y0075400D03*
X0088000Y0062600D03*
D18*
X0104000Y0063500D03*
X0104000Y0074500D03*
M02*
