%
M48
M72
T01C0.03150
T02C0.03800
T03C0.04724
%
T01
X98500Y123500
X98500Y143500
X98500Y163500
X98500Y183500
X116000Y11000
X126000Y11000
X136000Y11000
T02
X71000Y66000
X71000Y76000
X71000Y86000
X71000Y96000
X71000Y106000
X71000Y116000
X71000Y126000
X71000Y136000
X71000Y146000
X71000Y156000
X71000Y166000
X71000Y176000
X71000Y186000
X71000Y196000
X11000Y196000
X11000Y186000
X11000Y176000
X11000Y166000
X11000Y156000
X11000Y146000
X11000Y136000
X11000Y126000
X11000Y116000
X11000Y106000
X11000Y96000
X11000Y86000
X11000Y76000
X11000Y66000
T03
X21000Y21000
X41000Y21000
X71000Y21000
X91000Y21000
X131000Y51000
X131000Y71000
X131000Y101000
X131000Y121000
X131000Y161000
X131000Y181000
X51000Y183500
X31000Y183500
M30
